<svg width="56" height="56" viewBox="0 0 56 56" fill="none" xmlns="http://www.w3.org/2000/svg">
<g clip-path="url(#clip0_365_256)">
<path d="M12.25 41.125V35C12.25 34.517 11.858 34.125 11.375 34.125H10.5C8.56712 34.125 7 35.6921 7 37.625V41.125H12.25Z" fill="#446AA9"/>
<path d="M12.25 37.625L23.625 35.875H32.375L43.75 37.625V41.125H12.25V37.625Z" fill="#F1A141"/>
<path d="M23.625 32.2002V35.8752L28 38.5002L32.375 35.8752V32.2002H23.625Z" fill="#F4C8AD"/>
<path d="M43.75 41.125V35C43.75 34.517 44.142 34.125 44.625 34.125H45.5C47.4329 34.125 49 35.6921 49 37.625V40.9439L43.75 41.125Z" fill="#446AA9"/>
<path d="M7 44.2969V37.625C7 39.5579 8.56712 41.125 10.5 41.125H45.5C47.4329 41.125 49 39.5579 49 37.625V52.5C49 53.4669 48.2169 54.25 47.25 54.25H8.75C7.78312 54.25 7 53.4669 7 52.5V44.2969Z" fill="#598EDE"/>
<path d="M40.25 37.0868V41.125H35.875V36.4131L40.25 37.0868Z" fill="#F7F3EA"/>
<path d="M36.75 41.1251V36.5488L39.375 36.9531V41.1251H36.75Z" fill="#FFBE51"/>
<path d="M12.25 41.125H43.75V45.01C43.75 49.0175 40.4967 52.2716 36.4884 52.2716H19.5116C15.5041 52.2716 12.25 49.0184 12.25 45.01V41.125Z" fill="#66A4FF"/>
<path d="M34.125 41.125H26.25C25.2835 41.125 24.5 41.9085 24.5 42.875C24.5 43.8415 25.2835 44.625 26.25 44.625H34.125C35.0915 44.625 35.875 43.8415 35.875 42.875C35.875 41.9085 35.0915 41.125 34.125 41.125Z" fill="#85B6FF"/>
<path d="M41.125 41.125H38.5C37.5335 41.125 36.75 41.9085 36.75 42.875C36.75 43.8415 37.5335 44.625 38.5 44.625H41.125C42.0915 44.625 42.875 43.8415 42.875 42.875C42.875 41.9085 42.0915 41.125 41.125 41.125Z" fill="#85B6FF"/>
<path d="M48.762 45.9565C47.8984 46.0641 47.25 46.7991 47.25 47.6698V51.6221C47.25 52.4928 47.8984 53.2269 48.762 53.3354L48.7777 53.3371C48.9151 53.0878 49 52.8051 49 52.4998V45.9268L48.762 45.9565Z" fill="#446AA9"/>
<path d="M7.238 45.9565C8.10163 46.0641 8.75 46.7991 8.75 47.6698V51.6221C8.75 52.4928 8.10163 53.2269 7.238 53.3354L7.22225 53.3371C7.08487 53.0878 7 52.8051 7 52.4998V45.9268L7.238 45.9565Z" fill="#446AA9"/>
<path d="M52.3093 52.2577L48.762 51.8141C47.8984 51.7065 47.25 50.9715 47.25 50.1008V46.1485C47.25 45.2778 47.8984 44.5437 48.762 44.4352L52.3093 43.9916C53.34 43.863 54.25 44.6662 54.25 45.7048V50.5436C54.25 51.5822 53.34 52.3863 52.3093 52.2577Z" fill="#F2B9A1"/>
<path d="M52.3093 43.9925L50.2582 44.2488C49.4769 44.3468 48.8906 45.011 48.8906 45.7976V48.203C48.8906 49.0736 49.539 49.8077 50.4026 49.9162L54.2176 50.3931L54.25 50.3642V45.7048C54.25 44.6662 53.34 43.8638 52.3093 43.9925Z" fill="#F4C8AD"/>
<path d="M23.625 33.9411C24.9384 34.6131 26.4232 34.9998 28 34.9998C29.5767 34.9998 31.0616 34.6131 32.375 33.9411V32.2007H23.625V33.9411Z" fill="#F2B9A1"/>
<path d="M37.625 22.75C39.5579 22.75 41.125 21.1829 41.125 19.25C41.125 17.3171 39.5579 15.75 37.625 15.75H18.375C16.4421 15.75 14.875 17.3171 14.875 19.25C14.875 21.1829 16.4421 22.75 18.375 22.75H37.625Z" fill="#F2B9A1"/>
<path d="M37.625 14.875V23.625C37.625 28.9406 33.3156 33.25 28 33.25C22.6844 33.25 18.375 28.9406 18.375 23.625V14.875H37.625Z" fill="#F4C8AD"/>
<path d="M18.375 11.375V10.5C18.375 6.63425 21.5092 3.5 25.375 3.5H30.625C34.4907 3.5 37.625 6.63425 37.625 10.5V11.375H18.375Z" fill="#DD933C"/>
<path d="M32.375 21.875C31.8911 21.875 31.5 21.483 31.5 21V19.25C31.5 18.767 31.8911 18.375 32.375 18.375C32.8589 18.375 33.25 18.767 33.25 19.25V21C33.25 21.483 32.8589 21.875 32.375 21.875Z" fill="#2B2E33"/>
<path d="M23.625 21.875C23.1411 21.875 22.75 21.483 22.75 21V19.25C22.75 18.767 23.1411 18.375 23.625 18.375C24.1089 18.375 24.5 18.767 24.5 19.25V21C24.5 21.483 24.1089 21.875 23.625 21.875Z" fill="#2B2E33"/>
<path d="M28 27.9999C26.9176 27.9999 25.956 27.4959 25.4913 26.6857C25.2507 26.2665 25.396 25.7319 25.8142 25.4913C26.2333 25.2498 26.7688 25.395 27.0086 25.815C27.1293 26.025 27.4907 26.2508 28 26.2508C28.5092 26.2508 28.8706 26.025 28.9913 25.815C29.2311 25.395 29.7657 25.2498 30.1857 25.4913C30.6048 25.7319 30.7501 26.2665 30.5086 26.6857C30.044 27.4968 29.0823 27.9999 28 27.9999Z" fill="#E2A18A"/>
<path d="M17.5 11.375H38.5C39.466 11.375 40.25 12.159 40.25 13.125V14.875H15.75V13.125C15.75 12.159 16.534 11.375 17.5 11.375Z" fill="#F1A141"/>
<path d="M25.375 11.375V2.625C25.375 2.142 25.767 1.75 26.25 1.75H29.75C30.233 1.75 30.625 2.142 30.625 2.625V11.375H25.375Z" fill="#F1A141"/>
<path d="M34.125 12.25C33.6411 12.25 33.25 11.858 33.25 11.375V8.75C33.25 8.267 33.6411 7.875 34.125 7.875C34.6089 7.875 35 8.267 35 8.75V11.375C35 11.858 34.6089 12.25 34.125 12.25Z" fill="#BC731C"/>
<path d="M21.875 12.25C21.3911 12.25 21 11.858 21 11.375V8.75C21 8.267 21.3911 7.875 21.875 7.875C22.3589 7.875 22.75 8.267 22.75 8.75V11.375C22.75 11.858 22.3589 12.25 21.875 12.25Z" fill="#BC731C"/>
<path d="M36.3125 11.375H19.6875C18.9626 11.375 18.375 11.9626 18.375 12.6875V13.5625C18.375 14.2874 18.9626 14.875 19.6875 14.875H36.3125C37.0374 14.875 37.625 14.2874 37.625 13.5625V12.6875C37.625 11.9626 37.0374 11.375 36.3125 11.375Z" fill="#FFBE51"/>
<path d="M27.3962 1.75H29.75C30.233 1.75 30.625 2.142 30.625 2.625V10.5H28.5136C27.2641 10.5 26.25 9.48588 26.25 8.23637V2.89625C26.25 2.26362 26.7636 1.75 27.3962 1.75Z" fill="#FFBE51"/>
<path d="M18.375 14.875H37.625C37.625 15.841 36.841 16.625 35.875 16.625H20.125C19.159 16.625 18.375 15.841 18.375 14.875Z" fill="#F2B9A1"/>
<path d="M43.75 41.1249H42.4008V37.4175L43.75 37.6249V41.1249Z" fill="#B57931"/>
<path d="M15.75 37.0868V41.125H20.125V36.4131L15.75 37.0868Z" fill="#F7F3EA"/>
<path d="M19.25 41.1251V36.5488L16.625 36.9531V41.1251H19.25Z" fill="#FFBE51"/>
<path d="M12.25 41.1249H13.5992V37.4175L12.25 37.6249V41.1249Z" fill="#B57931"/>
<path d="M3.69075 52.2577L7.238 51.8141C8.10163 51.7065 8.75 50.9715 8.75 50.1008V46.1485C8.75 45.2778 8.10163 44.5437 7.238 44.4352L3.69075 43.9916C2.66 43.863 1.75 44.6662 1.75 45.7048V50.5436C1.75 51.5822 2.66 52.3863 3.69075 52.2577Z" fill="#F2B9A1"/>
<path d="M3.69073 43.9925L6.19848 44.3057C6.71911 44.3705 7.11023 44.8132 7.11023 45.3382V48.203C7.11023 49.0736 6.46185 49.8077 5.59823 49.9162L2.05098 50.3598L1.75085 50.0947V45.7048C1.75085 44.6662 2.66085 43.863 3.6916 43.9916L3.69073 43.9925Z" fill="#F4C8AD"/>
<path d="M32.375 21.875C32.8589 21.875 33.25 21.483 33.25 21V19.25C33.25 18.767 32.8589 18.375 32.375 18.375C31.8911 18.375 31.5 18.767 31.5 19.25V21C31.5 21.483 31.8911 21.875 32.375 21.875Z" fill="black"/>
<path d="M23.625 18.375C23.1411 18.375 22.75 18.767 22.75 19.25V21C22.75 21.483 23.1411 21.875 23.625 21.875C24.1089 21.875 24.5 21.483 24.5 21V19.25C24.5 18.767 24.1089 18.375 23.625 18.375Z" fill="black"/>
<path d="M30.5087 26.6858C30.7493 26.2667 30.6041 25.7321 30.1858 25.4915C29.7658 25.2491 29.2312 25.3961 28.9914 25.8152C28.8707 26.0252 28.5093 26.251 28.0001 26.251C27.4908 26.251 27.1294 26.0252 27.0087 25.8152C26.7689 25.3961 26.2334 25.25 25.8143 25.4915C25.3952 25.7321 25.2499 26.2667 25.4914 26.6858C25.9561 27.497 26.9177 28.0001 28.0001 28.0001C29.0824 28.0001 30.0441 27.4961 30.5087 26.6858Z" fill="black"/>
<path d="M52.2008 43.1244L49.875 43.4149V37.625C49.875 35.2126 47.9124 33.25 45.5 33.25H44.625C43.6599 33.25 42.875 34.0349 42.875 35V36.6048L33.25 35.1242V32.704C36.3834 30.8849 38.5 27.5012 38.5 23.625V23.5366C40.4941 23.1297 42 21.3631 42 19.25C42 17.8141 41.2948 16.548 40.2229 15.75H40.25C40.7339 15.75 41.125 15.358 41.125 14.875V13.125C41.125 11.6777 39.9473 10.5 38.5 10.5C38.5 6.454 35.4314 3.11325 31.5 2.67663V2.625C31.5 1.65987 30.7151 0.875 29.75 0.875H26.25C25.2849 0.875 24.5 1.65987 24.5 2.625V2.67663C20.5686 3.11413 17.5 6.454 17.5 10.5C16.0527 10.5 14.875 11.6777 14.875 13.125V14.875C14.875 15.358 15.2661 15.75 15.75 15.75H15.7771C14.7052 16.548 14 17.8141 14 19.25C14 21.3622 15.5059 23.1297 17.5 23.5366V23.625C17.5 27.5012 19.6166 30.8857 22.75 32.704V35.1242L13.125 36.6048V35C13.125 34.0349 12.3401 33.25 11.375 33.25H10.5C8.08763 33.25 6.125 35.2126 6.125 37.625V43.4149L3.79925 43.1244C3.05988 43.0299 2.31525 43.2609 1.75525 43.7552C1.19525 44.2487 0.875 44.9593 0.875 45.7056V50.5444C0.875 51.2907 1.19525 52.0013 1.75525 52.4948C2.233 52.9165 2.84637 53.1457 3.47638 53.1457C3.584 53.1457 3.69163 53.1396 3.79925 53.1256L6.15825 52.8307C6.32275 54.1214 7.41563 55.125 8.75 55.125H47.25C48.5844 55.125 49.6772 54.1205 49.8418 52.8307L52.2008 53.1256C52.3084 53.1396 52.416 53.1457 52.5236 53.1457C53.1536 53.1457 53.767 52.9165 54.2448 52.4948C54.8047 52.0013 55.125 51.2907 55.125 50.5444V45.7056C55.125 44.9593 54.8047 44.2487 54.2448 43.7552C53.6847 43.2617 52.9375 43.029 52.2008 43.1244ZM44.625 35H45.5C46.9473 35 48.125 36.1777 48.125 37.625C48.125 39.0723 46.9473 40.25 45.5 40.25H44.625V35ZM36.75 40.25V37.4334L39.375 37.8376V40.2509L36.75 40.25ZM41.125 38.1063L42.875 38.3758V40.25H41.125V38.1063ZM38.5 21.714V16.7869C39.5159 17.1491 40.25 18.1116 40.25 19.2509C40.25 20.3901 39.5159 21.3517 38.5 21.714ZM36.75 10.5H35V8.75C35 8.267 34.6089 7.875 34.125 7.875C33.6411 7.875 33.25 8.267 33.25 8.75V10.5H31.5V4.445C34.4627 4.872 36.75 7.42088 36.75 10.5ZM26.25 2.625H29.75V10.5H26.25V2.625ZM24.5 4.445V10.5H22.75V8.75C22.75 8.267 22.3589 7.875 21.875 7.875C21.3911 7.875 21 8.267 21 8.75V10.5H19.25C19.25 7.42088 21.5373 4.872 24.5 4.445ZM16.625 13.125C16.625 12.6429 17.017 12.25 17.5 12.25H38.5C38.983 12.25 39.375 12.6429 39.375 13.125V14H16.625V13.125ZM15.75 19.25C15.75 18.1108 16.4841 17.1483 17.5 16.786V21.7131C16.4841 21.3509 15.75 20.3892 15.75 19.25ZM19.25 23.625V15.75H36.75V23.625C36.75 28.4497 32.8247 32.375 28 32.375C23.1753 32.375 19.25 28.4497 19.25 23.625ZM28 34.125C29.2285 34.125 30.4036 33.9019 31.5 33.5125V35.3797L28 37.4798L24.5 35.3797V33.5125C25.5964 33.9019 26.7715 34.125 28 34.125ZM16.625 40.25V37.8368L19.25 37.4325V40.2491L16.625 40.25ZM14.875 38.1063V40.25H13.125V38.3758L14.875 38.1063ZM10.5 35H11.375V40.25H10.5C9.05275 40.25 7.875 39.0723 7.875 37.625C7.875 36.1777 9.05275 35 10.5 35ZM3.58225 51.3887C3.33462 51.4202 3.09838 51.3459 2.91287 51.1823C2.72738 51.0177 2.625 50.792 2.625 50.5444V45.7056C2.625 45.458 2.72738 45.2314 2.91287 45.0677C3.07125 44.9286 3.26638 44.8543 3.47288 44.8543C3.50875 44.8543 3.5455 44.856 3.58225 44.8613L7.1295 45.3049C7.55475 45.3582 7.87588 45.7214 7.87588 46.1493V50.1016C7.87588 50.5304 7.55562 50.8935 7.1295 50.946L3.58225 51.3887ZM47.25 53.375H8.75C8.2845 53.375 7.91175 53.0075 7.88462 52.5499C8.90487 52.1903 9.625 51.2216 9.625 50.1016V46.1493C9.625 45.0257 8.9005 44.0536 7.875 43.6966V41.1031C8.60825 41.6587 9.51125 42.0009 10.5 42.0009H30.625C31.1089 42.0009 31.5 41.6089 31.5 41.1259C31.5 40.6429 31.1089 40.2509 30.625 40.2509H21V37.1647L23.4456 36.7885L27.5494 39.2508C27.6876 39.3339 27.8442 39.3759 28 39.3759C28.1558 39.3759 28.3115 39.3348 28.4506 39.2508L32.5544 36.7885L35 37.1647V40.2509H33.25C32.7661 40.2509 32.375 40.6429 32.375 41.1259C32.375 41.6089 32.7661 42.0009 33.25 42.0009H45.5C46.4888 42.0009 47.3918 41.6587 48.125 41.1031V43.6966C47.0995 44.0536 46.375 45.0257 46.375 46.1493V50.1016C46.375 51.2216 47.0951 52.1903 48.1154 52.5499C48.0882 53.0084 47.7155 53.375 47.25 53.375ZM53.375 50.5444C53.375 50.792 53.2726 51.0186 53.0871 51.1823C52.9016 51.3459 52.6662 51.4194 52.4177 51.3887L48.8705 50.9451C48.4453 50.8918 48.1241 50.5286 48.1241 50.1007V46.1484C48.1241 45.7196 48.4444 45.3565 48.8705 45.304L52.4177 44.8604C52.4545 44.856 52.4912 44.8534 52.5271 44.8534C52.7327 44.8534 52.9288 44.9269 53.0871 45.0669C53.2726 45.2314 53.375 45.4571 53.375 45.7048V50.5444Z" fill="black"/>
</g>
<defs>
<clipPath id="clip0_365_256">
<rect width="56" height="56" fill="white"/>
</clipPath>
</defs>
</svg>
