<svg width="56" height="56" viewBox="0 0 56 56" fill="none" xmlns="http://www.w3.org/2000/svg">
<g clip-path="url(#clip0_365_410)">
<path d="M23.6816 54.7553H8.97195V52.6006C8.97195 51.4246 9.92536 50.4712 11.1013 50.4712H21.5522C22.7282 50.4712 23.6816 51.4246 23.6816 52.6006V54.7553Z" fill="#FE9901"/>
<path d="M18.015 13.8438H13.7566L12.6558 50.4715H19.1158L18.015 13.8438Z" fill="#FEA613"/>
<path d="M16.91 1.24463H14.8574L13.7566 13.8437H18.0108L16.91 1.24463Z" fill="#FEC165"/>
<path d="M31.9766 22.4665H25.6423C24.9166 22.4665 24.3282 21.8781 24.3282 21.1523V16.209H33.2908V21.1523C33.2908 21.8781 32.7024 22.4665 31.9766 22.4665Z" fill="#855151"/>
<path d="M29.9884 16.209V21.1523C29.9884 21.8781 29.4 22.4665 28.6742 22.4665H31.9766C32.7024 22.4665 33.2908 21.8781 33.2908 21.1523V16.209H29.9884Z" fill="#704444"/>
<path d="M52.6062 37.4951H34.1304C33.7457 37.4951 33.4337 37.1831 33.4337 36.7984V34.4296C33.4337 34.0448 33.7457 33.7329 34.1304 33.7329H52.6062C52.9911 33.7329 53.3029 34.0449 53.3029 34.4296V36.7984C53.303 37.1831 52.9911 37.4951 52.6062 37.4951Z" fill="#7A8C98"/>
<path d="M54.424 40.1368H31.8396C31.4251 40.1368 31.0892 39.8009 31.0892 39.3864V37.8334C31.0892 37.419 31.4251 37.083 31.8396 37.083H54.424C54.8384 37.083 55.1744 37.419 55.1744 37.8334V39.3864C55.1744 39.8009 54.8384 40.1368 54.424 40.1368Z" fill="#9B5E5E"/>
<path d="M5.61913 18.2531H1.97681C1.34099 18.2531 0.825592 17.7377 0.825592 17.1019V11.1869C0.825592 10.551 1.34099 10.0356 1.97681 10.0356H5.61913C6.25495 10.0356 6.77034 10.551 6.77034 11.1869V17.1019C6.77034 17.7376 6.25495 18.2531 5.61913 18.2531Z" fill="#855151"/>
<path d="M5.61914 10.0356H2.31674C2.95256 10.0356 3.46796 10.551 3.46796 11.1869V17.1019C3.46796 17.7377 2.95256 18.2531 2.31674 18.2531H5.61914C6.25496 18.2531 6.77035 17.7377 6.77035 17.1019V11.1869C6.77035 10.551 6.25496 10.0356 5.61914 10.0356Z" fill="#704444"/>
<path d="M49.1161 16.2089H6.77036V11.9619H45.8137L49.1161 16.2089Z" fill="#FEA613"/>
<path d="M45.8137 11.9619H42.5113L45.8137 16.2089H49.116L45.8137 11.9619Z" fill="#FE9901"/>
<path d="M54.424 36.2574H54.1286V34.4293C54.1286 33.5899 53.4457 32.907 52.6064 32.907H51.0613L44.3941 26.2398C44.3657 26.2114 44.3353 26.1865 44.3041 26.1631V17.0345H49.1161C49.4313 17.0345 49.7191 16.855 49.8577 16.5716C49.9961 16.2884 49.9614 15.951 49.7678 15.7021L46.4654 11.4551C46.309 11.254 46.0685 11.1363 45.8137 11.1363H44.0685L17.2174 0.478278C17.1913 0.467821 17.1645 0.458684 17.1371 0.450868C17.1284 0.448337 17.1196 0.446685 17.1108 0.444484C17.0944 0.440411 17.078 0.436118 17.0613 0.433036C17.0454 0.430063 17.0296 0.428192 17.0137 0.426211C17.0039 0.425 16.9942 0.423349 16.9843 0.422468C16.9649 0.420707 16.9458 0.420046 16.9265 0.419716C16.921 0.419606 16.9156 0.418945 16.91 0.418945H16.8978C16.895 0.418945 16.8923 0.418945 16.8897 0.418945H14.8575C14.4294 0.418945 14.0723 0.746212 14.035 1.17266L13.1644 11.1364H7.59341C7.56622 10.07 6.69208 9.21025 5.61913 9.21025H1.97681C0.886803 9.21014 0 10.0969 0 11.1869V17.102C0 18.192 0.886803 19.0788 1.97681 19.0788H5.61913C6.70914 19.0788 7.59594 18.192 7.59594 17.102V17.0346H12.8346L11.8545 49.6458H11.1012C9.47181 49.6458 8.14623 50.9714 8.14623 52.6008V54.7555C8.14623 55.2115 8.51588 55.5811 8.97183 55.5811H10.4541C10.91 55.5811 11.2797 55.2115 11.2797 54.7555C11.2797 54.2996 10.91 53.9299 10.4541 53.9299H9.79743V52.6008C9.79743 51.8819 10.3823 51.297 11.1012 51.297H13.5421H21.552C22.2709 51.297 22.8558 51.8819 22.8558 52.6008V53.9299H13.7563C13.3004 53.9299 12.9307 54.2996 12.9307 54.7555C12.9307 55.2115 13.3004 55.5811 13.7563 55.5811H23.6814C24.1373 55.5811 24.507 55.2115 24.507 54.7555V52.6008C24.507 50.9714 23.1814 49.6458 21.552 49.6458H19.9167L18.9366 17.0346H23.5023V21.1524C23.5023 22.3322 24.4621 23.2921 25.642 23.2921H31.9763C33.1561 23.2921 34.116 22.3322 34.116 21.1524V17.0346H42.6526V26.0942C42.5818 26.1317 42.5152 26.1801 42.4556 26.2398L35.7884 32.907H34.1302C33.2909 32.907 32.6079 33.5899 32.6079 34.4293V36.2574H31.8393C30.9702 36.2574 30.2632 36.9643 30.2632 37.8334V39.3864C30.2632 40.2554 30.9702 40.9623 31.8393 40.9623H34.0545C34.5104 40.9623 34.8801 40.5927 34.8801 40.1367C34.8801 39.6808 34.5104 39.3111 34.0545 39.3111H31.9144V37.9086H54.3485V39.3111H37.3572C36.9013 39.3111 36.5316 39.6808 36.5316 40.1367C36.5316 40.5927 36.9013 40.9623 37.3572 40.9623H54.424C55.293 40.9623 56 40.2554 56 39.3864V37.8334C56 36.9644 55.293 36.2574 54.424 36.2574ZM15.614 2.07014H16.1534L16.9456 11.1364H14.8219L15.614 2.07014ZM5.94475 17.102C5.94475 17.2815 5.79867 17.4276 5.61913 17.4276H1.97681C1.79727 17.4276 1.6512 17.2815 1.6512 17.102V11.1869C1.6512 11.0074 1.79727 10.8613 1.97681 10.8613H5.61913C5.79867 10.8613 5.94475 11.0074 5.94475 11.1869V11.962V16.209V17.102ZM7.59594 12.7876H24.3281C24.784 12.7876 25.1537 12.418 25.1537 11.962C25.1537 11.5061 24.784 11.1364 24.3281 11.1364H18.6029L17.8488 2.5054L39.5928 11.1364H27.6305C27.1745 11.1364 26.8049 11.5061 26.8049 11.962C26.8049 12.418 27.1745 12.7876 27.6305 12.7876H43.9056C43.9072 12.7876 43.9087 12.7878 43.9103 12.7878C43.9113 12.7878 43.9121 12.7876 43.9131 12.7876H45.4097L47.4281 15.3834H33.2905H24.328H7.59583L7.59594 12.7876ZM14.2889 23.6148L16.7805 25.4187L14.1244 29.0872L14.2889 23.6148ZM14.4321 40.8106L17.8703 36.5151L18.0788 43.4528L14.4321 40.8106ZM14.6878 31.1247L17.588 27.1189L17.7756 33.3617L14.6878 31.1247ZM14.0166 32.6775L17.0614 34.8834L13.8289 38.9217L14.0166 32.6775ZM17.0614 44.7546L13.5207 49.178L13.7262 42.3383L17.0614 44.7546ZM14.9226 22.0352L17.339 18.8307L17.4912 23.8949L14.9226 22.0352ZM16.6251 17.0346L14.3979 19.9885L14.4866 17.0346H16.6251ZM15.2612 49.6457L18.1563 46.029L18.265 49.6457H15.2612ZM32.4652 21.1524C32.4652 21.4217 32.246 21.6409 31.9766 21.6409H25.6423C25.3729 21.6409 25.1538 21.4217 25.1538 21.1524V17.0346H32.4652V21.1524ZM48.7262 32.907H44.3041V28.485L48.7262 32.907ZM42.6529 28.378V32.9071H38.1238L42.6529 28.378ZM34.2595 34.5582H52.4774V36.2574H34.2595V34.5582Z" fill="black"/>
</g>
<defs>
<clipPath id="clip0_365_410">
<rect width="56" height="56" fill="white"/>
</clipPath>
</defs>
</svg>
