<svg width="56" height="56" viewBox="0 0 56 56" fill="none" xmlns="http://www.w3.org/2000/svg">
<mask id="mask0_365_426" style="mask-type:luminance" maskUnits="userSpaceOnUse" x="0" y="0" width="56" height="56">
<path d="M0 7.62939e-06H56V56H0V7.62939e-06Z" fill="white"/>
</mask>
<g mask="url(#mask0_365_426)">
<path d="M27.6011 5.45797L28.3282 1.33421C28.3878 0.99602 28.7104 0.770161 29.0487 0.829771L41.379 3.00393C41.7172 3.06354 41.9431 3.38619 41.8836 3.72438L41.1564 7.84814L27.6011 5.45797Z" fill="#B7CEE9"/>
<path d="M41.3791 3.00404L39.0354 2.59082C39.3123 2.6396 39.4885 2.95339 39.4288 3.29158L38.7017 7.41535L41.1564 7.84814L41.8835 3.72449C41.9431 3.38619 41.7172 3.06364 41.3791 3.00404Z" fill="#9EBCE2"/>
<path d="M41.0139 8.65586C41.46 8.73453 41.8855 8.43663 41.9642 7.99047L42.6914 3.86672V3.8664C42.8272 3.09469 42.3222 2.35761 41.558 2.20286L41.5214 2.19597L29.191 0.0218258H29.1909C28.4067 -0.116363 27.6586 0.407187 27.5203 1.19165L26.7932 5.31541C26.7145 5.76157 27.0124 6.18706 27.4586 6.26573C27.9047 6.34439 28.3302 6.04649 28.4088 5.60035L29.1015 1.67206L41.0412 3.77732L40.3485 7.70561C40.2698 8.15176 40.5677 8.57718 41.0139 8.65586Z" fill="black"/>
<path d="M22.8385 5.24964L16.4275 41.6082C16.3679 41.9465 16.5937 42.2689 16.932 42.3286L38.5715 46.1443C38.9097 46.2038 39.2323 45.978 39.292 45.6397L45.7029 9.2812C45.7625 8.94302 45.5367 8.62047 45.1985 8.56075L23.5589 4.7452C23.2208 4.68559 22.8981 4.91134 22.8385 5.24964Z" fill="#D7E3F2"/>
<path d="M45.1985 8.56083L42.9699 8.16784C43.2741 8.22155 43.4726 8.53928 43.4129 8.87757L37.0019 45.2359C36.9423 45.5742 36.6472 45.805 36.3428 45.7512L38.5716 46.1443C38.9098 46.2039 39.2323 45.9781 39.292 45.6398L45.7029 9.28128C45.7625 8.94309 45.5367 8.62043 45.1985 8.56083Z" fill="#B7CEE9"/>
<path d="M38.4292 46.952C39.2136 47.0903 39.9614 46.5664 40.0998 45.7822V45.7821L46.5108 9.42349C46.649 8.63911 46.1252 7.89128 45.3411 7.75282L45.341 7.75274L23.7014 3.93725L23.7014 3.93717C22.9171 3.79895 22.1692 4.32253 22.0307 5.10691V5.10707L19.8031 17.7401C19.7245 18.1863 20.0224 18.6117 20.4686 18.6904C20.9147 18.769 21.3401 18.4711 21.4188 18.025L23.6119 5.58741L44.8605 9.33401L38.5185 45.3018L17.2698 41.5551L20.7439 21.8531C20.8226 21.407 20.5246 20.9815 20.0784 20.9028C19.6323 20.8242 19.2069 21.1221 19.1282 21.5682L15.6197 41.4656L15.6196 41.4657C15.4814 42.2502 16.0053 42.9979 16.7894 43.1363H16.7896L38.4291 46.952H38.4292Z" fill="black"/>
<path d="M30.3083 15.4474L26.3419 14.7479C26.1389 14.7122 26.0034 14.5187 26.0391 14.3157L26.7386 10.3493C26.7744 10.1463 26.9678 10.0108 27.1708 10.0466L31.1373 10.746C31.3402 10.7818 31.4757 10.9753 31.44 11.1783L30.7405 15.1446C30.7048 15.3476 30.5112 15.4832 30.3083 15.4474Z" fill="#62A4FB"/>
<path d="M39.1622 17.0089L35.1958 16.3095C34.9929 16.2737 34.8573 16.0802 34.8931 15.8772L35.5926 11.9108C35.6283 11.7078 35.8218 11.5724 36.0248 11.6082L39.9912 12.3075C40.1942 12.3433 40.3297 12.5368 40.2939 12.7398L39.5945 16.7062C39.5587 16.9092 39.3651 17.0447 39.1622 17.0089Z" fill="#62A4FB"/>
<path d="M28.6214 25.0138L24.6551 24.3144C24.4521 24.2786 24.3165 24.0851 24.3523 23.8821L25.0518 19.9157C25.0875 19.7127 25.281 19.5773 25.484 19.6131L29.4505 20.3124C29.6534 20.3482 29.7889 20.5417 29.7531 20.7447L29.0537 24.7111C29.0179 24.9141 28.8244 25.0496 28.6214 25.0138Z" fill="#62A4FB"/>
<path d="M37.4754 26.5748L33.509 25.8754C33.306 25.8396 33.1705 25.6461 33.2063 25.4431L33.9057 21.4769C33.9415 21.2739 34.135 21.1384 34.338 21.1741L38.3044 21.8736C38.5074 21.9093 38.6429 22.1028 38.6071 22.3058L37.9077 26.2721C37.8719 26.4751 37.6783 26.6106 37.4754 26.5748Z" fill="#62A4FB"/>
<path d="M30.1659 16.2556C30.8149 16.37 31.4341 15.9366 31.5485 15.2873H31.5484L32.2479 11.3211V11.321C32.3622 10.672 31.929 10.053 31.2799 9.93856L27.3134 9.23905H27.3132C26.6641 9.1247 26.0452 9.55812 25.9308 10.2072L25.2313 14.1736V14.1737C25.117 14.8228 25.5504 15.4416 26.1995 15.5561L30.1659 16.2556ZM26.9247 14.0182L27.4688 10.9325L30.5545 11.4766L30.0104 14.5623L26.9247 14.0182ZM29.9331 15.0007L29.9328 15.0025L29.9327 15.0027C29.9328 15.0021 29.933 15.0014 29.9331 15.0007Z" fill="black"/>
<path d="M39.0198 17.8166C39.6689 17.9311 40.2881 17.4976 40.4024 16.8484H40.4024L41.1019 12.8821V12.882C41.2162 12.2329 40.7828 11.6139 40.1336 11.4995L40.1335 11.4996L36.1673 10.8002L36.1672 10.8002C35.5184 10.6859 34.8992 11.1188 34.7847 11.7683L34.0853 15.7346V15.7348C33.971 16.3838 34.4042 17.0027 35.0533 17.1171L39.0198 17.8166ZM35.7787 15.5792L36.3228 12.4937L39.4085 13.0376L38.8644 16.1233L35.7787 15.5792ZM38.7871 16.5617L38.7867 16.5636L38.7867 16.5637C38.7868 16.5631 38.7869 16.5624 38.7871 16.5617Z" fill="black"/>
<path d="M28.4791 25.8215C29.1283 25.9359 29.7473 25.5024 29.8616 24.8533H29.8616L30.5611 20.887V20.8869C30.6754 20.2379 30.2421 19.6189 29.593 19.5045L25.6265 18.8051L25.6264 18.8051C24.9776 18.6908 24.3584 19.1237 24.2439 19.7732L23.5445 23.7395V23.7397C23.4302 24.3888 23.8635 25.0076 24.5126 25.122L28.479 25.8215H28.4791ZM25.2379 23.5841L25.782 20.4986L28.8677 21.0425L28.3236 24.1282L25.2379 23.5841ZM28.2463 24.5666L28.2459 24.5685L28.2459 24.5686C28.246 24.568 28.2461 24.5673 28.2463 24.5666Z" fill="black"/>
<path d="M37.333 27.383C37.982 27.4975 38.6012 27.064 38.7156 26.4148H38.7155L39.415 22.4487V22.4485C39.5294 21.7994 39.0959 21.1806 38.4467 21.0662L38.4468 21.0661L34.4805 20.3667L34.4803 20.3666C33.8312 20.2522 33.2123 20.6857 33.0979 21.3348L32.3985 25.301V25.3012C32.2841 25.9503 32.7175 26.5691 33.3666 26.6835L37.333 27.383ZM34.0918 25.1456L34.6359 22.0601L37.7216 22.6042L37.1775 25.6897L34.0918 25.1456ZM37.1002 26.1281L37.0999 26.13L37.0998 26.1302C37.0999 26.1295 37.1001 26.1288 37.1002 26.1281Z" fill="black"/>
<path d="M53.2475 54.7022L45.3791 51.3484C45.2505 51.2936 45.1923 51.1435 45.2503 51.0163L47.4405 46.2165C47.5218 46.0383 47.375 45.8405 47.181 45.8667L41.4861 46.6341C41.3248 46.656 41.1863 46.5193 41.206 46.3576L42.2713 37.5974C42.2955 37.3989 42.0874 37.2545 41.9098 37.3466L32.6687 42.1414C32.5318 42.2124 32.364 42.1431 32.3171 41.9962L28.2369 29.2068C28.1632 28.9761 27.8366 28.976 27.7629 29.2067L23.568 42.3342C23.521 42.4812 23.3528 42.5504 23.216 42.4792L13.3673 37.3478C13.1898 37.2553 12.9814 37.3998 13.0055 37.5984L14.0708 46.3576C14.0904 46.5193 13.9521 46.656 13.7906 46.6341L8.09579 45.8667C7.90176 45.8405 7.75498 46.0383 7.83625 46.2165L10.1443 51.2743C10.2022 51.4015 10.1442 51.5516 10.0154 51.6064L2.7525 54.7022C2.50345 54.8084 2.57925 55.1797 2.85006 55.1797H53.15C53.4208 55.1797 53.4966 54.8084 53.2475 54.7022Z" fill="#EF7D31"/>
<path d="M53.2475 54.7022L45.3791 51.3484C45.2505 51.2936 45.1923 51.1435 45.2502 51.0163L47.4405 46.2165C47.5217 46.0383 47.375 45.8405 47.1809 45.8667L45.4378 46.1016C45.4397 46.1393 45.4345 46.1781 45.417 46.2164L43.2268 51.0163C43.1688 51.1435 43.227 51.2936 43.3557 51.3484L51.2241 54.702C51.4731 54.8082 51.3973 55.1797 51.1265 55.1797H53.15C53.4208 55.1797 53.4966 54.8084 53.2475 54.7022Z" fill="#D76134"/>
<path d="M39.1825 46.3574C39.1628 46.5191 39.3013 46.6557 39.4628 46.6339L41.2059 46.399C41.2052 46.3853 41.2042 46.3717 41.206 46.3574L42.2714 37.5973C42.2955 37.3989 42.0874 37.2544 41.9099 37.3465L40.1686 38.2499L39.1825 46.3574Z" fill="#D76134"/>
<path d="M30.4809 42.6059C30.5277 42.7529 30.6956 42.8223 30.8325 42.7512L32.3066 41.9863L28.2368 29.2068C28.1632 28.9761 27.8367 28.976 27.7628 29.2067L26.9875 31.6332L30.4809 42.6059Z" fill="#D76134"/>
<path d="M42.7863 54.9829L38.1781 53.6016C38.1027 53.5791 38.0687 53.5173 38.1027 53.4648L39.3853 51.488C39.4329 51.4146 39.347 51.3331 39.2334 51.3439L35.8981 51.6599C35.8036 51.6689 35.7226 51.6126 35.7341 51.546L36.3581 47.938C36.3722 47.8562 36.2503 47.7967 36.1463 47.8347L30.7342 49.8095C30.6541 49.8388 30.5558 49.8101 30.5284 49.7497L28.2987 44.8346C28.1822 44.5778 27.8176 44.5776 27.701 44.8343L25.4044 49.8889C25.3768 49.9494 25.2784 49.9779 25.1982 49.9486L19.4303 47.835C19.3264 47.797 19.2043 47.8565 19.2185 47.9384L19.8423 51.546C19.8539 51.6126 19.7728 51.6689 19.6783 51.6599L16.3431 51.3439C16.2295 51.3331 16.1435 51.4146 16.1911 51.488L17.5427 53.5712C17.5767 53.6235 17.5427 53.6854 17.4674 53.7079L13.2138 54.9829C13.0679 55.0267 13.1123 55.1797 13.2709 55.1797H42.7292C42.8878 55.1797 42.9322 55.0267 42.7863 54.9829Z" fill="#F9D448"/>
<path d="M42.7291 56C43.0455 56 43.5135 55.8298 43.6596 55.3264C43.7335 55.0718 43.6918 54.7961 43.5404 54.5724C43.3955 54.3583 43.1912 54.2481 43.0223 54.1973L43.0217 54.1972L39.3244 53.0889L40.0734 51.9345L40.0736 51.9342C40.1911 51.7529 40.2469 51.5252 40.2054 51.2903C40.166 51.0674 40.0506 50.8995 39.9341 50.789C39.7076 50.5743 39.4123 50.503 39.156 50.5273V50.5272L36.7024 50.7598L37.1663 48.0777L37.1664 48.0774C37.2607 47.5309 36.8697 47.2084 36.6561 47.1042C36.4211 46.9895 36.1331 46.966 35.8643 47.0644V47.0644L31.0137 48.8343L29.0456 44.4961L29.0456 44.496C28.6382 43.597 27.362 43.5969 26.9541 44.4951V44.4952L24.9195 48.9729L19.7125 47.0649L19.7124 47.065C19.4434 46.9664 19.1555 46.9899 18.9206 47.1043C18.7071 47.2084 18.3158 47.5309 18.41 48.0777L18.4101 48.0782L18.8738 50.7597L16.4204 50.5272L16.4204 50.5273C16.1642 50.503 15.8689 50.5743 15.6423 50.7889C15.5258 50.8994 15.4103 51.0672 15.3709 51.2902C15.3294 51.5252 15.3851 51.7529 15.5026 51.9342L15.5029 51.9344L16.3208 53.1952L12.9782 54.1972L12.9775 54.1973C12.8086 54.2481 12.6044 54.3583 12.4595 54.5724C12.308 54.7961 12.2664 55.0718 12.3403 55.3264C12.4864 55.8298 12.9544 56 13.2708 56L13.313 55.999C13.5891 55.985 13.8289 55.8344 13.9669 55.6136L17.7028 54.4937H17.7027C17.8954 54.436 18.124 54.3015 18.2645 54.0464C18.4204 53.7633 18.4163 53.4108 18.2307 53.1248L18.2308 53.1247L17.693 52.2959L19.6008 52.4766C19.821 52.4974 20.0622 52.4478 20.2676 52.3052C20.4716 52.1637 20.7268 51.8483 20.6506 51.4067L20.6506 51.4063L20.235 49.0038L24.9159 50.7188L24.9164 50.7191C25.131 50.7975 25.3548 50.7967 25.549 50.7405C25.7287 50.6885 26.0054 50.5486 26.151 50.2286L26.1511 50.2283L27.9993 46.1607L29.7813 50.0885L29.7814 50.0887C29.9264 50.4084 30.2025 50.5486 30.3822 50.6009C30.5766 50.6575 30.8008 50.6586 31.0158 50.5799H31.0157L35.3415 49.0015L34.9257 51.4063L34.9256 51.4067C34.8495 51.8483 35.1047 52.1637 35.3086 52.3052C35.514 52.4478 35.7552 52.4974 35.9754 52.4766H35.9754L37.8832 52.2959L37.4145 53.0183L37.4142 53.0188C37.2294 53.3039 37.2243 53.6562 37.3807 53.9402C37.5213 54.1955 37.7502 54.3298 37.9424 54.3874L42.0329 55.6136C42.1778 55.8456 42.4354 56 42.7291 56ZM30.4543 49.0384L30.453 49.0389L30.4524 49.039C30.453 49.0388 30.4537 49.0386 30.4543 49.0384ZM16.2652 52.1606H16.2657L16.267 52.1607C16.2664 52.1607 16.2658 52.1606 16.2652 52.1606ZM39.3108 52.1606H39.3112C39.3106 52.1606 39.31 52.1607 39.3093 52.1607L39.3108 52.1606Z" fill="black"/>
<path d="M27.4621 56C27.9152 56 28.2825 55.6327 28.2825 55.1797C28.2825 54.7266 27.9152 54.3594 27.4621 54.3594H5.64864L10.3371 52.3611H10.337C10.8902 52.1253 11.1398 51.4803 10.8905 50.9338V50.9337L9.01232 46.8179L13.6809 47.447L13.7133 47.451C14.3933 47.5223 14.9683 46.9421 14.885 46.2583L13.9508 38.5768L22.837 43.2066C23.4251 43.513 24.1474 43.2155 24.3492 42.5838L27.9993 31.1614L29.2112 34.9599C29.3489 35.3915 29.8105 35.6298 30.2421 35.4921C30.6737 35.3544 30.9119 34.8929 30.7742 34.4613L29.0183 28.9577C28.702 27.9657 27.2982 27.9649 26.9813 28.9572V28.9573L22.993 41.4379L13.7463 36.6203L13.7461 36.6201C12.9842 36.2235 12.0867 36.8425 12.1913 37.6978L13.1671 45.7224L8.20531 45.0536C7.37165 44.9413 6.74073 45.7913 7.08988 46.5568L7.08996 46.557L9.1546 51.0816L2.43084 53.9475C1.36054 54.4037 1.68601 56 2.84997 56H27.4621ZM28.5442 29.4564L28.5443 29.4562C28.5441 29.4567 28.5438 29.4572 28.5437 29.4577L28.5442 29.4564Z" fill="black"/>
<path d="M53.15 56C54.3134 56 54.6401 54.4037 53.5691 53.9475L53.569 53.9475L46.2399 50.8237L48.1868 46.557V46.557C48.5357 45.792 47.9057 44.9409 47.071 45.0538V45.0539L42.1096 45.7224L43.0857 37.6966L43.0898 37.6568C43.1616 36.8245 42.2832 36.2284 41.5317 36.6187V36.6188L32.8926 41.1012L31.9395 38.1134C31.8018 37.6818 31.3403 37.4436 30.9087 37.5813C30.4771 37.719 30.2388 38.1804 30.3764 38.612L31.5356 42.2455L31.5357 42.2457C31.7374 42.8772 32.4583 43.174 33.0458 42.87L33.0465 42.8696L41.3263 38.5736L40.3917 46.2585V46.2586C40.3072 46.9534 40.9023 47.5406 41.5958 47.447H41.5957L46.2644 46.8179L44.504 50.6758V50.6759C44.2544 51.223 44.5051 51.8675 45.0573 52.103L45.0574 52.103L50.3512 54.3594H31.2902C30.8372 54.3594 30.4699 54.7266 30.4699 55.1797C30.4699 55.6327 30.8372 56 31.2902 56H53.15ZM47.2905 46.6797H47.291C47.2899 46.6798 47.2888 46.6799 47.2877 46.6801L47.2905 46.6797Z" fill="black"/>
</g>
</svg>
