<svg width="56" height="56" viewBox="0 0 56 56" fill="none" xmlns="http://www.w3.org/2000/svg">
<path d="M26.25 12.2486L45.5 4.37354L46.375 6.99858L33.0324 15.4198C31.5 16.3116 30.9643 17.3557 30.625 18.3735L29.75 20.9986H21L22.5586 16.6235C23.1761 14.8903 24.3978 13.0565 26.25 12.2486Z" fill="#E8AB3C"/>
<path d="M7.875 39.374H33.25V42.874H7.875V39.374Z" fill="#E8AB3C"/>
<path d="M18.3801 22.7486L16.6301 29.7486H4.37501C3.40551 29.7486 2.625 30.5291 2.625 31.4986V37.6236C2.625 38.5931 3.40551 39.3736 4.37501 39.3736H34.1301C35.0996 39.3736 35.9016 38.5929 35.8801 37.6236V31.4986L32.3801 22.7486C32.02 21.8484 31.5996 20.9985 30.6301 20.9985H20.1301C19.1606 20.9985 18.4934 21.7857 18.3801 22.7486Z" fill="#FFBC42"/>
<path d="M21.8801 24.4985L20.4781 29.7485H25.3801V33.2486L27.1301 35.8735H32.3801V32.3736L29.0612 24.4985H21.8801Z" fill="#33B9EF"/>
<path d="M7.87497 42.8735H35C37.9085 42.8735 40.25 45.2151 40.25 48.1236C40.25 51.0321 37.9085 53.3736 35 53.3736H7.87497C4.96648 53.3736 2.625 51.0321 2.625 48.1236C2.625 45.2151 4.96648 42.8735 7.87497 42.8735Z" fill="#33658A"/>
<path d="M35 48.1241C35 48.3539 34.9548 48.5814 34.8668 48.7937C34.7789 49.006 34.65 49.199 34.4875 49.3615C34.325 49.524 34.132 49.6528 33.9197 49.7408C33.7074 49.8287 33.4798 49.874 33.25 49.874C33.0202 49.874 32.7926 49.8288 32.5803 49.7409C32.368 49.6529 32.1751 49.524 32.0126 49.3615C31.8501 49.199 31.7212 49.006 31.6332 48.7937C31.5453 48.5814 31.5 48.3539 31.5 48.1241C31.5 47.6599 31.6844 47.2148 32.0126 46.8866C32.3408 46.5584 32.7859 46.374 33.25 46.374C33.7141 46.374 34.1593 46.5584 34.4875 46.8866C34.8156 47.2148 35 47.6599 35 48.1241Z" fill="#DBE9EE"/>
<path d="M27.125 48.1241C27.125 48.3539 27.0798 48.5814 26.9918 48.7937C26.9039 49.006 26.775 49.199 26.6125 49.3615C26.45 49.524 26.257 49.6528 26.0447 49.7408C25.8324 49.8287 25.6048 49.874 25.375 49.874C25.1452 49.874 24.9176 49.8288 24.7053 49.7409C24.493 49.6529 24.3001 49.524 24.1376 49.3615C23.9751 49.199 23.8462 49.006 23.7582 48.7937C23.6703 48.5814 23.625 48.3539 23.625 48.1241C23.625 47.6599 23.8094 47.2148 24.1376 46.8866C24.4658 46.5584 24.9109 46.374 25.375 46.374C25.8391 46.374 26.2843 46.5584 26.6124 46.8866C26.9406 47.2148 27.125 47.6599 27.125 48.1241Z" fill="#DBE9EE"/>
<path d="M19.2499 48.1241C19.2499 48.5882 19.0656 49.0333 18.7374 49.3615C18.4092 49.6897 17.9641 49.874 17.5 49.874C17.2701 49.874 17.0426 49.8288 16.8302 49.7409C16.6179 49.6529 16.425 49.524 16.2625 49.3615C16.1 49.199 15.9711 49.006 15.8831 48.7937C15.7952 48.5814 15.7499 48.3539 15.7499 48.1241C15.7499 47.6599 15.9343 47.2148 16.2625 46.8866C16.5907 46.5584 17.0358 46.374 17.5 46.374C17.9641 46.374 18.4092 46.5584 18.7374 46.8866C19.0655 47.2148 19.2499 47.6599 19.2499 48.1241Z" fill="#DBE9EE"/>
<path d="M11.375 48.1241C11.3751 48.3539 11.3298 48.5814 11.2418 48.7937C11.1539 49.006 11.025 49.199 10.8625 49.3615C10.7 49.524 10.5071 49.6528 10.2947 49.7408C10.0824 49.8287 9.85485 49.874 9.62504 49.874C9.16091 49.874 8.7158 49.6897 8.38761 49.3615C8.05943 49.0333 7.87506 48.5882 7.87506 48.1241C7.87507 47.6599 8.05944 47.2148 8.38762 46.8866C8.71581 46.5584 9.16092 46.374 9.62504 46.374C10.0892 46.374 10.5343 46.5584 10.8625 46.8866C11.1907 47.2148 11.375 47.6599 11.375 48.1241Z" fill="#DBE9EE"/>
<path d="M53.375 32.3736C53.375 35.2821 51.0335 37.6236 48.125 37.6236H42.875L50.75 27.1236L53.375 27.1235V32.3736Z" fill="#33658A"/>
<path d="M50.75 27.1237L43.2782 6.47579C42.7009 4.88039 43.8049 3.16416 45.4437 2.72504C47.0826 2.28593 48.881 3.22314 49.1945 4.89058L53.375 27.1237H50.75Z" fill="#FFBC42"/>
<path d="M36.7569 37.6066V31.497C36.756 31.3862 36.7337 31.2767 36.692 31.1738L33.192 22.4222C33.0035 21.9512 32.7891 21.4378 32.4025 20.9746C32.0734 20.5803 31.5884 20.2111 30.9584 20.1526L31.4557 18.6505C31.7642 17.7244 32.1204 16.9626 33.486 16.1673L41.4413 11.1446C41.9099 10.849 41.9456 10.2987 41.7049 9.93232C41.4658 9.56864 40.9533 9.3866 40.5101 9.66638L32.5923 14.6634C30.88 15.66 30.1646 16.9871 29.7947 18.0968L29.1197 20.1219H22.2393L23.3809 16.9193C23.9411 15.3468 25.0616 13.7244 26.5981 13.0527L42.3985 6.58849C42.4184 6.65001 42.4316 6.71147 42.4531 6.77298L49.7659 26.98L42.1763 37.0972C41.7422 37.6734 42.1531 38.4975 42.8735 38.4986H48.1252C51.5033 38.4986 54.2467 35.7534 54.2467 32.3752V30.6253C54.2467 29.4584 52.4967 29.4584 52.4967 30.6253V32.3752C52.4967 34.8142 50.564 36.7486 48.1252 36.7486H44.6303L51.1859 28.0004L53.3768 27.9987C53.9252 27.9978 54.3375 27.4982 54.2348 26.9596L50.0563 4.72735C49.6934 2.79697 47.7886 1.46145 45.6591 1.78793C43.829 2.06837 42.7261 3.375 42.3778 4.70686L25.9084 11.4438C23.7304 12.3944 22.4078 14.4383 21.7333 16.3314L20.3832 20.1219H20.1302C18.5436 20.1219 17.8306 21.3738 17.524 22.5932L15.9449 28.8737H4.37677C2.93766 28.8737 1.74836 30.0578 1.74836 31.4969V37.627C1.74836 39.0662 2.93766 40.2487 4.37677 40.2487H6.99836V42.0704C4.03581 42.4985 1.74664 45.0447 1.74664 48.1237C1.74664 51.5018 4.4987 54.2452 7.87679 54.2452H35.0001C38.3782 54.2452 41.1217 51.5018 41.1217 48.1237C41.1217 44.7456 38.3782 41.9987 35.0001 41.9987H34.1268L34.1277 40.2487C35.5678 40.2487 36.7892 39.0685 36.7569 37.6066ZM48.3318 5.05051L52.3188 26.2487L51.3635 26.2505L44.0986 6.17672C43.7111 5.10572 44.497 3.77395 45.8905 3.53382C47.0826 3.32845 48.1461 4.06288 48.3318 5.05051ZM46.375 5.24862C45.8918 5.24862 45.5 5.64041 45.5 6.12364C45.5 6.60687 45.8918 6.99855 46.375 6.99855C46.8582 6.99855 47.25 6.6069 47.25 6.12364C47.25 5.64037 46.8582 5.24862 46.375 5.24862ZM34.1267 38.4986H4.3767C3.8768 38.4986 3.49827 38.1269 3.49827 37.627V31.4969C3.49827 30.997 3.8768 30.6253 4.3767 30.6253H16.6301C17.033 30.6261 17.3844 30.3515 17.4812 29.9605L19.2389 22.9041C19.4036 22.2424 19.6342 21.8736 20.1301 21.8736H30.6335C30.8627 21.8736 30.9031 21.9123 31.0591 22.0991C31.2152 22.286 31.3984 22.6458 31.57 23.075L35.0051 31.6643V37.6364C35.015 38.1224 34.6265 38.4986 34.1267 38.4986ZM21.8801 23.6236C21.4831 23.6236 21.1358 23.8907 21.0342 24.2747L19.6328 29.5196C19.4807 30.0771 19.901 30.6265 20.4787 30.6253H24.5034V33.2468C24.5039 33.4198 24.5557 33.5886 24.6522 33.7322L26.4022 36.3606C26.5653 36.604 26.8391 36.7495 27.1319 36.7486H32.3837C32.8642 36.7468 33.2533 36.3576 33.2552 35.877V32.3752C33.2545 32.2575 33.2288 32.1415 33.1835 32.0335L29.8697 24.1585C29.7328 23.8341 29.4151 23.6235 29.0631 23.6236H21.8801ZM22.5518 25.3736H24.5034V28.8736H21.6152L22.5518 25.3736ZM26.2534 25.3736H28.4819L31.5051 32.5496V34.9986H27.5966L26.2534 32.982V29.747V25.3736ZM6.11302 32.3616C5.62979 32.3682 5.24263 32.7636 5.24829 33.2468V35.877C5.22183 37.0702 7.02505 37.0702 6.99826 35.877V33.2468C7.00488 32.7556 6.60429 32.3559 6.11302 32.3616ZM9.61473 32.3616C9.1315 32.3682 8.74434 32.7636 8.74999 33.2468V35.877C8.72354 37.0692 10.5257 37.0692 10.5 35.877V33.2468C10.5066 32.7556 10.106 32.3559 9.61473 32.3616ZM13.1096 32.3616C12.6284 32.3715 12.2443 32.7656 12.25 33.2468V35.877C12.2764 37.0178 13.9744 37.0178 14 35.877V33.2468C14.0066 32.7535 13.6029 32.353 13.1096 32.3616ZM8.74999 40.2486H32.3767V41.9986H27.9966C26.8288 41.9986 26.8288 43.7503 27.9966 43.7503H35C37.4389 43.7503 39.3716 45.6847 39.3716 48.1236C39.3716 50.5624 37.4389 52.4952 35 52.4952H7.87669C5.43785 52.4952 3.49827 50.5624 3.49827 48.1236C3.49827 45.6847 5.43785 43.7503 7.87669 43.7503H24.5034C25.6712 43.7503 25.6712 41.9986 24.5034 41.9986H8.74999V40.2486ZM9.62842 45.5002C8.18904 45.5002 6.99826 46.6842 6.99826 48.1236C6.99826 49.563 8.18901 50.752 9.62842 50.752C11.0678 50.752 12.25 49.563 12.25 48.1236C12.25 46.6842 11.0678 45.5002 9.62842 45.5002ZM17.5017 45.5002C16.0623 45.5002 14.8716 46.6842 14.8716 48.1236C14.8716 49.563 16.0623 50.752 17.5017 50.752C18.9411 50.752 20.1233 49.563 20.1233 48.1236C20.1232 46.6842 18.9411 45.5002 17.5017 45.5002ZM25.375 45.5002C23.9356 45.5002 22.7534 46.6842 22.7534 48.1236C22.7534 49.563 23.9356 50.752 25.375 50.752C26.8144 50.752 27.9966 49.563 27.9966 48.1236C27.9965 46.6842 26.8144 45.5002 25.375 45.5002ZM33.2483 45.5002C31.8089 45.5002 30.6267 46.6842 30.6267 48.1236C30.6267 49.563 31.8089 50.752 33.2483 50.752C34.6877 50.752 35.8784 49.563 35.8784 48.1236C35.8784 46.6842 34.6876 45.5002 33.2483 45.5002ZM9.62842 47.2503C10.122 47.2503 10.5 47.63 10.5 48.1236C10.5 48.6172 10.122 49.002 9.62842 49.002C9.13477 49.002 8.74999 48.6172 8.74999 48.1236C8.74999 47.63 9.13477 47.2503 9.62842 47.2503ZM17.5017 47.2503C17.9953 47.2503 18.3733 47.63 18.3733 48.1236C18.3733 48.6172 17.9953 49.002 17.5017 49.002C17.0081 49.002 16.6232 48.6172 16.6233 48.1236C16.6233 47.63 17.0081 47.2503 17.5017 47.2503ZM25.375 47.2503C25.8686 47.2503 26.2466 47.63 26.2466 48.1236C26.2466 48.6172 25.8686 49.002 25.375 49.002C24.8814 49.002 24.5034 48.6172 24.5034 48.1236C24.5034 47.63 24.8814 47.2503 25.375 47.2503ZM33.2483 47.2503C33.7419 47.2503 34.1267 47.63 34.1267 48.1236C34.1267 48.6172 33.7419 49.002 33.2483 49.002C32.7546 49.002 32.3767 48.6172 32.3767 48.1236C32.3767 47.63 32.7546 47.2503 33.2483 47.2503Z" fill="black"/>
</svg>
