<svg width="34" height="30" viewBox="0 0 34 30" fill="none" xmlns="http://www.w3.org/2000/svg">
<path d="M16.4062 1.81641L16.875 2.51953L17.3438 1.81641C18.1641 0.703125 19.5117 0 20.918 0C23.3203 0 25.3125 1.99219 25.3125 4.39453V4.51172C25.3125 8.32031 20.5078 12.3633 18.1641 14.1211C17.4023 14.6484 16.3477 14.6484 15.5859 14.1211C13.2422 12.3633 8.4375 8.32031 8.4375 4.51172V4.39453C8.4375 1.99219 10.4297 0 12.832 0C14.2383 0 15.5859 0.703125 16.4062 1.81641ZM6.38672 20.0391C7.79297 18.6328 9.72656 17.8125 11.7188 17.8125H20.625C21.6797 17.8125 22.5 18.6328 22.5 19.6875C22.5 20.7422 21.6797 21.5625 20.625 21.5625H16.4062C15.6445 21.5625 15 22.207 15 22.9688C15 23.7305 15.6445 24.375 16.4062 24.375H23.0273L30 19.2188C31.0547 18.457 32.5195 18.6914 33.2812 19.6875C34.043 20.7422 33.8672 22.207 32.8125 22.9688L25.3711 28.4766C24.0234 29.4727 22.3828 30 20.6836 30H1.875C0.820312 30 0 29.1797 0 28.125V24.375C0 23.3203 0.820312 22.5 1.875 22.5H3.92578L6.38672 20.0391Z" fill="black"/>
</svg>
