<svg width="56" height="56" viewBox="0 0 56 56" fill="none" xmlns="http://www.w3.org/2000/svg">
<g clip-path="url(#clip0_365_304)">
<path d="M24.9327 6.70801H44.7212V19.6664H24.9327V6.70801Z" fill="#FFE9C8"/>
<path d="M44.7211 15.8172L41.1173 11.8528C40.5262 11.1962 39.4966 11.1962 38.9054 11.8528L33.9766 17.3276L36.0511 19.6319L44.7211 19.6669V15.8172Z" fill="#009E65"/>
<path d="M39.1485 11.8526L44.721 17.6729V15.817L41.1172 11.8526C40.5648 11.239 39.6295 11.1992 39.027 11.7325C39.0692 11.7698 39.1099 11.8096 39.1485 11.8526Z" fill="#008954"/>
<path d="M36.051 19.6319L30.7212 13.7116C30.19 13.1215 29.2646 13.1215 28.7334 13.7116L24.9327 17.9333V19.6667L36.051 19.6319Z" fill="#00E0A7"/>
<path d="M30.7212 13.7113C30.193 13.1246 29.2756 13.1219 28.7429 13.7018C28.746 13.7051 28.7494 13.7079 28.7524 13.7113L34.0823 19.6315L24.9327 19.6603V19.6665L36.051 19.6315L30.7212 13.7113Z" fill="#00C988"/>
<path d="M12.133 52.4521H3.21729V52.3288C3.21729 50.7643 4.48549 49.4961 6.04999 49.4961H9.30029C10.8648 49.4961 12.133 50.7643 12.133 52.3288V52.4521Z" fill="#FF656B"/>
<path d="M9.30029 49.4961H7.33154C8.89604 49.4961 10.1642 50.7643 10.1642 52.3288V52.4521H12.133V52.3288C12.133 50.7643 10.8647 49.4961 9.30029 49.4961Z" fill="#FF3E4C"/>
<path d="M33.9766 12.2362C34.803 12.2362 35.4728 11.5663 35.4728 10.7399C35.4728 9.91355 34.803 9.24365 33.9766 9.24365C33.1502 9.24365 32.4803 9.91355 32.4803 10.7399C32.4803 11.5663 33.1502 12.2362 33.9766 12.2362Z" fill="#FFDC00"/>
<path d="M21.7734 3.54883H47.8805L44.7212 6.70812H24.9327L21.7734 3.54883Z" fill="#E8834D"/>
<path d="M21.7734 22.8258H47.8805L44.7212 19.6665H24.9327L21.7734 22.8258Z" fill="#E8834D"/>
<path d="M21.7734 22.8258V3.54883L24.9327 6.70812V19.6665L21.7734 22.8258Z" fill="#BC6640"/>
<path d="M47.8805 22.8258V3.54883L44.7212 6.70812V19.6665L47.8805 22.8258Z" fill="#BC6640"/>
<path d="M14.4751 19.465H0.875L3.75167 6.88232H11.5986L14.4751 19.465Z" fill="#FFE9C8"/>
<path d="M11.5985 6.88232H9.62976L12.5063 19.465H14.4751L11.5985 6.88232Z" fill="#FFDCA7"/>
<path d="M20.9015 44.6357H48.7523V52.4521H20.9015V44.6357Z" fill="#BC6640"/>
<path d="M46.7836 44.6357H48.7523V52.4521H46.7836V44.6357Z" fill="#A05638"/>
<path d="M20.9014 52.4521H14.5288V40.7688C14.5288 39.0091 15.9554 37.5825 17.7151 37.5825C19.4749 37.5825 20.9014 39.0091 20.9014 40.7688V52.4521Z" fill="#FF9A00"/>
<path d="M17.7151 37.5825C17.3714 37.5825 17.0408 37.6375 16.7307 37.7383C18.0085 38.1531 18.9327 39.3528 18.9327 40.7688V52.4521H20.9014V40.7688C20.9014 39.0091 19.4749 37.5825 17.7151 37.5825Z" fill="#EF8800"/>
<path d="M55.1249 52.4521H48.7523V40.7688C48.7523 39.0091 50.1789 37.5825 51.9386 37.5825C53.6984 37.5825 55.1249 39.0091 55.1249 40.7688V52.4521Z" fill="#FF9A00"/>
<path d="M51.9387 37.5825C51.5951 37.5825 51.2644 37.6375 50.9543 37.7383C52.2322 38.1531 53.1563 39.3528 53.1563 40.7688V52.4521H55.125V40.7688C55.125 39.0091 53.6985 37.5825 51.9387 37.5825Z" fill="#EF8800"/>
<path d="M20.9014 40.7687V44.6355H48.7522V40.7687C48.7522 39.009 50.1788 37.5824 51.9385 37.5824V33.8418C51.9385 31.4881 50.0305 29.5801 47.6768 29.5801H21.9768C19.6231 29.5801 17.7151 31.4881 17.7151 33.8418V37.5824C19.4749 37.5824 20.9014 39.009 20.9014 40.7687Z" fill="#E8834D"/>
<path d="M47.677 29.5801H45.7083C48.0619 29.5801 49.9699 31.488 49.9699 33.8418V35.5801C49.9699 35.7998 49.8372 35.9954 49.6358 36.0833C47.832 36.8712 46.7836 38.5007 46.7836 39.7844V44.6357H48.7524V40.7688C48.7524 39.0091 50.179 37.5825 51.9387 37.5825V33.8419C51.9387 31.4881 50.0306 29.5801 47.677 29.5801Z" fill="#D66E41"/>
<path d="M52.8075 36.8642V33.8532C52.8075 31.0454 50.5232 28.7612 47.7155 28.7612H28.2142C27.7603 28.7612 27.3922 29.1292 27.3922 29.5832C27.3922 30.0372 27.7603 30.4051 28.2142 30.4051H47.7155C49.6169 30.4051 51.1637 31.9519 51.1637 33.8533V36.8643C49.3429 37.2446 47.971 38.8619 47.971 40.7938V43.8463H21.7093V40.7938C21.7093 38.8618 20.3374 37.2446 18.5168 36.8643V33.8533C18.5168 31.9519 20.0636 30.4051 21.9649 30.4051H24.9266C25.3805 30.4051 25.7485 30.0372 25.7485 29.5832C25.7485 29.1292 25.3805 28.7612 24.9266 28.7612H21.9649C19.1571 28.7612 16.873 31.0455 16.873 33.8532V36.8642C15.0523 37.2445 13.6803 38.8618 13.6803 40.7937V52.4998C13.6803 52.9538 14.0482 53.3217 14.5023 53.3217H39.8534C40.3074 53.3217 40.6754 52.9538 40.6754 52.4998C40.6754 52.0457 40.3074 51.6778 39.8534 51.6778H21.7093V45.49H47.971V51.6778H43.141C42.687 51.6778 42.319 52.0457 42.319 52.4998C42.319 52.9538 42.687 53.3217 43.141 53.3217H55.1782C55.6322 53.3217 56.0001 52.9538 56.0001 52.4998V40.7938C56 38.8618 54.6281 37.2446 52.8075 36.8642ZM15.3241 40.7938C15.3241 39.4867 16.3875 38.4232 17.6948 38.4232C19.002 38.4232 20.0655 39.4867 20.0655 40.7938V51.6779H15.3241V40.7938ZM54.3562 51.6779H49.6148V40.7938C49.6148 39.4867 50.6783 38.4232 51.9855 38.4232C53.2926 38.4232 54.3561 39.4867 54.3561 40.7938V51.6779H54.3562Z" fill="black"/>
<path d="M20.9431 22.8958C20.9833 23.3101 21.3443 23.6375 21.761 23.6375H47.9193C48.3663 23.6375 48.7412 23.2626 48.7412 22.8155V3.50066C48.7412 3.05354 48.3664 2.67871 47.9193 2.67871H43.141C42.687 2.67871 42.319 3.04665 42.319 3.50066C42.319 3.95468 42.687 4.32262 43.141 4.32262H45.935L44.4134 5.84424H25.2668L23.7452 4.32262H39.8532C40.3072 4.32262 40.6751 3.95468 40.6751 3.50066C40.6751 3.04665 40.3072 2.67871 39.8532 2.67871H21.7609C21.3135 2.67871 20.939 3.05409 20.939 3.50066V22.8155C20.9391 22.842 20.9405 22.8694 20.9431 22.8958ZM23.7452 21.9937L25.2668 20.4719H44.4132L45.9349 21.9937H23.7452ZM43.9319 18.828H36.4642L35.0941 17.3062L39.5375 12.3705C39.8017 12.0769 40.2715 12.0811 40.5347 12.3734L43.9319 16.1105V18.828ZM34.2522 18.828H25.7484V18.2286L29.3454 14.2331C29.5489 14.0071 29.9121 14.007 30.1154 14.2331L34.2522 18.828ZM47.0973 5.48505V20.8311L45.5757 19.3095V7.00668L47.0973 5.48505ZM43.9319 13.6667L41.7538 11.2707C40.8487 10.2654 39.2209 10.2654 38.3158 11.2707L33.9881 16.0777L31.3371 13.1332C30.9279 12.6785 30.3423 12.4178 29.7305 12.4178C29.1227 12.4178 28.5304 12.6816 28.1237 13.1332L25.7484 15.7717V7.48804H43.9319V13.6667ZM24.1045 7.00668V19.3096L22.5829 20.8312V5.48505L24.1045 7.00668Z" fill="black"/>
<path d="M9.26326 48.7164H8.45684V20.2703H10.568V29.5701C10.568 30.0241 10.936 30.3921 11.3899 30.3921C11.8439 30.3921 12.2119 30.0241 12.2119 29.5701V20.2703H14.4483C14.9677 20.2703 15.3654 19.7719 15.2496 19.2651L12.3673 6.65779C12.2819 6.28406 11.9494 6.01904 11.566 6.01904H3.70373C3.32037 6.01904 2.98787 6.28406 2.90245 6.65779L0.0201963 19.2651C-0.0956318 19.7719 0.302056 20.2703 0.821478 20.2703H6.81304V48.7163H6.00662C3.98832 48.7163 2.34638 50.3582 2.34638 52.3764V52.4999C2.34638 52.9539 2.71443 53.3219 3.16834 53.3219H12.1015C12.5554 53.3219 12.9235 52.9539 12.9235 52.4999V52.3764C12.9234 50.3584 11.2814 48.7164 9.26326 48.7164ZM4.35899 7.66295H10.9109L13.4173 18.6265H1.85245L4.35899 7.66295ZM4.11487 51.6781C4.39957 50.9095 5.14004 50.3602 6.00651 50.3602H9.26315C10.1296 50.3602 10.8701 50.9094 11.1548 51.6781H4.11487Z" fill="black"/>
<path d="M33.988 13.0273C35.2679 13.0273 36.3091 11.9861 36.3091 10.7063C36.3091 9.42639 35.2678 8.38525 33.988 8.38525C32.7081 8.38525 31.667 9.4265 31.667 10.7063C31.667 11.9861 32.7081 13.0273 33.988 13.0273ZM33.988 10.0291C34.3614 10.0291 34.6653 10.3329 34.6653 10.7063C34.6653 11.0797 34.3614 11.3836 33.988 11.3836C33.6146 11.3836 33.3108 11.0797 33.3108 10.7063C33.3108 10.3328 33.6146 10.0291 33.988 10.0291Z" fill="black"/>
</g>
<defs>
<clipPath id="clip0_365_304">
<rect width="56" height="56" fill="white"/>
</clipPath>
</defs>
</svg>
