<svg width="182" height="70" viewBox="0 0 182 70" fill="none" xmlns="http://www.w3.org/2000/svg">
<path d="M67.5955 4.62535L67.1408 4.46771L60.9626 22.7537C56.0576 17.1152 50.2188 8.56007 50.2188 4.07347H44.1195C44.4893 14.3685 55.3299 23.1904 59.2102 29.5808L61.3325 23.1782V23.1721L67.5955 4.62535ZM68.796 25.2943C68.796 27.3617 66.1706 29.593 63.5818 29.593H74.0101C71.4213 29.593 68.796 27.3617 68.796 25.2943ZM73.1249 11.8282C73.1249 14.417 70.8938 17.0423 68.8262 17.0423C70.8938 17.0423 73.1249 19.6676 73.1249 22.2567C73.1249 19.6676 75.3502 17.0423 77.4237 17.0423C75.3502 17.0423 73.1249 14.417 73.1249 11.8282ZM91.8719 29.5626C90.1985 29.4839 88.501 28.7926 87.8037 26.9616L82.1166 8.85124C81.2312 6.01977 78.4787 4.07957 75.3502 4.07957H74.8288V4.07347L71.5061 4.06738C71.5061 4.06738 71.5061 4.06738 71.5061 4.07347C73.0947 4.09175 75.0349 5.33462 75.6048 7.00802L80.9586 25.7065C81.6072 27.98 83.79 29.5565 86.2818 29.5565H88.4464L91.8719 29.5687V29.5626ZM117.452 29.5384C115.773 29.4656 114.39 28.7198 114.166 26.907V23.3904C114.166 21.2743 112.359 19.5585 110.128 19.5585L104.956 19.5828C106.538 19.2554 112.996 17.8125 113.942 13.9623C114.784 9.68185 112.42 4.28571 104.235 4.28571C104.235 4.28571 98.4563 4.22502 94.7762 4.18263C94.7519 4.18263 94.7277 4.18263 94.7034 4.18263H94.5942C93.5999 4.17654 88.9739 4.17654 88.9739 4.17654C90.5806 4.24939 91.9085 5.01324 92.2238 6.74122V25.5065C92.2238 27.7315 94.0243 29.5384 96.2557 29.5384H98.7353H102.034L102.028 29.5323C100.348 29.4595 98.9658 28.6713 98.7414 26.7616V22.2262H98.7475V20.6924C98.7475 20.6924 99.6995 20.4983 104.756 19.6252C104.768 19.6252 104.78 19.6192 104.792 19.6192C106.217 19.7768 107.357 20.4802 107.648 21.9838V25.7126C107.648 27.8285 109.449 29.5384 111.68 29.5384H114.16H117.452ZM98.7536 20.2436L98.7475 19.0614V8.14781C98.7475 7.07477 98.317 6.09846 97.6197 5.38919H102.852C107.533 5.84384 109.655 11.1369 107.836 14.981C106.326 18.5278 98.7536 20.2436 98.7536 20.2436ZM121.472 25.2943C121.472 27.3617 118.847 29.593 116.258 29.593H126.686C124.097 29.593 121.472 27.3617 121.472 25.2943ZM125.801 11.8282C125.801 14.417 123.57 17.0423 121.502 17.0423C123.57 17.0423 125.801 19.6676 125.801 22.2567C125.801 19.6676 128.026 17.0423 130.1 17.0423C128.026 17.0423 125.801 14.417 125.801 11.8282ZM144.548 29.5626C142.874 29.4839 141.177 28.7926 140.48 26.9616L134.793 8.85124C133.907 6.01977 131.155 4.07957 128.026 4.07957H127.505V4.07347L124.182 4.06738C124.182 4.06738 124.182 4.06738 124.182 4.07347C125.771 4.09175 127.711 5.33462 128.281 7.00802L133.634 25.7065C134.283 27.98 136.466 29.5565 138.958 29.5565H141.122L144.548 29.5687V29.5626ZM169.358 29.5626C167.672 29.4839 166.284 28.6896 166.053 26.7735V8.16C166.053 5.9167 164.241 4.09784 161.997 4.09784L156.244 4.12806C157.856 4.207 159.19 4.93454 159.506 6.66861V17.1758C157.48 17.0788 155.352 14.5142 155.352 11.9919C155.352 14.4657 153.303 16.9758 151.32 17.1697V8.16C151.32 5.9167 149.502 4.09784 147.264 4.09784L141.504 4.12806C143.117 4.207 144.457 4.93454 144.766 6.66861V25.5124C144.766 27.7498 146.579 29.5626 148.816 29.5626H151.314H154.619C152.933 29.4839 151.545 28.6896 151.32 26.7735V17.1939C153.303 17.3941 155.352 19.8981 155.352 22.3717C155.352 19.8496 157.48 17.2911 159.506 17.188V25.5124C159.506 27.7498 161.318 29.5626 163.556 29.5626H166.048H169.358ZM181.235 29.508H181.23C179.55 29.4293 178.161 28.635 177.937 26.725V8.12978C177.937 5.89233 176.118 4.07347 173.881 4.07347L168.133 4.10393C169.746 4.18263 171.08 4.91018 171.395 6.64424V25.4639C171.395 27.6952 173.202 29.508 175.439 29.508H177.931H181.235Z" fill="#FF6600"/>
<path d="M74.2864 40.6291C74.6853 40.7034 75.0135 40.903 75.2705 41.2278C75.5276 41.5523 75.656 41.9244 75.656 42.3437C75.656 42.7226 75.5629 43.0556 75.377 43.3431C75.1911 43.6304 74.9221 43.8553 74.5705 44.0178C74.2187 44.1801 73.8028 44.2612 73.3225 44.2612H70.2686V37.1795H73.1905C73.6707 37.1795 74.0851 37.2575 74.4333 37.4129C74.7817 37.5684 75.0456 37.785 75.2247 38.0622C75.404 38.3395 75.4937 38.6541 75.4937 39.0057C75.4937 39.4184 75.3838 39.7634 75.1638 40.0407C74.944 40.318 74.6516 40.5141 74.2864 40.6291ZM71.6891 40.1016H72.9877C73.3259 40.1016 73.5862 40.0253 73.7689 39.8733C73.9514 39.721 74.0427 39.503 74.0427 39.2189C74.0427 38.9348 73.9514 38.715 73.7689 38.5593C73.5862 38.4039 73.3259 38.3261 72.9877 38.3261H71.6891V40.1016ZM73.1196 43.1046C73.4646 43.1046 73.7333 43.0235 73.926 42.8612C74.119 42.6987 74.2153 42.4689 74.2153 42.1712C74.2153 41.8669 74.1139 41.6283 73.9109 41.4561C73.708 41.2836 73.4341 41.1973 73.0891 41.1973H71.6891V43.1046H73.1196ZM78.1924 37.1795V41.5625C78.1924 42.0428 78.3176 42.4097 78.5679 42.6634C78.8181 42.917 79.1699 43.0437 79.6231 43.0437C80.0829 43.0437 80.4381 42.917 80.6883 42.6634C80.9386 42.4097 81.0638 42.0428 81.0638 41.5625V37.1795H82.4943V41.5523C82.4943 42.1544 82.3639 42.6634 82.1037 43.0793C81.8433 43.4952 81.4948 43.808 81.0587 44.0178C80.6223 44.2274 80.137 44.3321 79.6026 44.3321C79.0751 44.3321 78.5966 44.2274 78.167 44.0178C77.7377 43.808 77.3978 43.4952 77.1476 43.0793C76.8971 42.6634 76.7721 42.1544 76.7721 41.5523V37.1795H78.1924ZM85.2843 37.1795V44.2612H83.8638V37.1795H85.2843ZM88.1048 43.1351H90.4383V44.2612H86.6844V37.1795H88.1048V43.1351ZM93.8168 37.1795C94.5609 37.1795 95.2153 37.325 95.7801 37.6159C96.3449 37.9066 96.781 38.321 97.0887 38.8588C97.3965 39.3965 97.5505 40.0202 97.5505 40.7305C97.5505 41.4407 97.3965 42.0613 97.0887 42.5922C96.781 43.1231 96.3449 43.5342 95.7801 43.8248C95.2153 44.1158 94.5609 44.2612 93.8168 44.2612H91.3413V37.1795H93.8168ZM93.7661 43.0539C94.5102 43.0539 95.085 42.851 95.4909 42.4451C95.8968 42.0394 96.0995 41.4678 96.0995 40.7305C96.0995 39.9932 95.8968 39.4167 95.4909 39.0008C95.085 38.5846 94.5102 38.3768 93.7661 38.3768H92.7617V43.0539H93.7661ZM100.036 37.1795V44.2612H98.6157V37.1795H100.036ZM107.493 44.2612H106.073L102.857 39.4014V44.2612H101.436V37.1695H102.857L106.073 42.0394V37.1695H107.493V44.2612ZM113.824 39.3102C113.662 39.0125 113.438 38.7859 113.154 38.6304C112.87 38.4748 112.539 38.397 112.16 38.397C111.741 38.397 111.369 38.4918 111.044 38.6811C110.719 38.8704 110.466 39.1411 110.283 39.4927C110.1 39.8446 110.009 40.2502 110.009 40.7103C110.009 41.1837 110.102 41.5964 110.288 41.948C110.474 42.2998 110.733 42.5703 111.064 42.7596C111.396 42.9492 111.781 43.0437 112.221 43.0437C112.762 43.0437 113.205 42.8999 113.55 42.6124C113.895 42.3252 114.122 41.9244 114.23 41.4103H111.795V40.3248H115.63V41.5625C115.535 42.0562 115.332 42.5128 115.021 42.9321C114.71 43.3514 114.309 43.6879 113.819 43.9416C113.329 44.1952 112.779 44.3221 112.17 44.3221C111.487 44.3221 110.87 44.1682 110.319 43.8604C109.767 43.5527 109.335 43.1248 109.02 42.5771C108.706 42.0291 108.548 41.4069 108.548 40.7103C108.548 40.0137 108.706 39.3897 109.02 38.8383C109.335 38.2871 109.767 37.8576 110.319 37.5499C110.87 37.2421 111.484 37.0884 112.16 37.0884C112.958 37.0884 113.651 37.2828 114.24 37.6717C114.829 38.0605 115.234 38.6068 115.457 39.3102H113.824ZM123.473 37.1795V38.3261H120.52V40.1421H122.783V41.2682H120.52V44.2612H119.1V37.1795H123.473ZM125.877 37.1795V41.5625C125.877 42.0428 126.002 42.4097 126.252 42.6634C126.503 42.917 126.854 43.0437 127.308 43.0437C127.767 43.0437 128.123 42.917 128.373 42.6634C128.623 42.4097 128.748 42.0428 128.748 41.5625V37.1795H130.179V41.5523C130.179 42.1544 130.048 42.6634 129.788 43.0793C129.528 43.4952 129.179 43.808 128.743 44.0178C128.307 44.2274 127.821 44.3321 127.287 44.3321C126.76 44.3321 126.281 44.2274 125.852 44.0178C125.422 43.808 125.082 43.4952 124.832 43.0793C124.582 42.6634 124.457 42.1544 124.457 41.5523V37.1795H125.877ZM136.368 37.1795V38.3261H134.48V44.2612H133.06V38.3261H131.173V37.1795H136.368ZM138.802 37.1795V41.5625C138.802 42.0428 138.928 42.4097 139.178 42.6634C139.428 42.917 139.78 43.0437 140.233 43.0437C140.693 43.0437 141.048 42.917 141.298 42.6634C141.549 42.4097 141.674 42.0428 141.674 41.5625V37.1795H143.104V41.5523C143.104 42.1544 142.974 42.6634 142.714 43.0793C142.453 43.4952 142.105 43.808 141.669 44.0178C141.232 44.2274 140.747 44.3321 140.213 44.3321C139.685 44.3321 139.207 44.2274 138.777 44.0178C138.348 43.808 138.008 43.4952 137.758 43.0793C137.507 42.6634 137.382 42.1544 137.382 41.5523V37.1795H138.802ZM148.126 44.2612L146.564 41.5016H145.894V44.2612H144.474V37.1795H147.132C147.68 37.1795 148.147 37.276 148.532 37.4687C148.917 37.6614 149.207 37.9219 149.399 38.2499C149.592 38.5781 149.689 38.945 149.689 39.3507C149.689 39.8175 149.553 40.2385 149.283 40.6138C149.012 40.9892 148.61 41.248 148.075 41.39L149.77 44.2612H148.126ZM145.894 40.4364H147.081C147.467 40.4364 147.754 40.3433 147.944 40.1574C148.133 39.9713 148.228 39.7125 148.228 39.3811C148.228 39.0566 148.133 38.8047 147.944 38.6253C147.754 38.446 147.467 38.3566 147.081 38.3566H145.894V40.4364ZM152.398 38.3261V40.1016H154.782V41.2278H152.398V43.1046H155.086V44.2612H150.977V37.1695H155.086V38.3261H152.398Z" fill="#2B2A29"/>
<path fill-rule="evenodd" clip-rule="evenodd" d="M45.2817 70.0003H180.073V48.5H45.2817V70.0003Z" fill="#D4DB4C"/>
<path d="M56.601 58.0782C56.0944 58.0782 55.6293 57.9593 55.2053 57.7215C54.7816 57.4837 54.4456 57.1543 54.1973 56.7328C53.9493 56.3115 53.8253 55.8347 53.8253 55.3023C53.8253 54.775 53.9493 54.3009 54.1973 53.8796C54.4456 53.4584 54.7816 53.1287 55.2053 52.8909C55.6293 52.6531 56.0944 52.5342 56.601 52.5342C57.1129 52.5342 57.5792 52.6531 58.0005 52.8909C58.422 53.1287 58.7553 53.4584 59.0009 53.8796C59.2463 54.3009 59.3691 54.775 59.3691 55.3023C59.3691 55.8347 59.2463 56.3115 59.0009 56.7328C58.7553 57.1543 58.4205 57.4837 57.9968 57.7215C57.5729 57.9593 57.1078 58.0782 56.601 58.0782ZM56.601 57.109C56.9267 57.109 57.2135 57.0354 57.4618 56.888C57.7098 56.7406 57.9038 56.5301 58.0434 56.256C58.1827 55.9821 58.2527 55.6641 58.2527 55.3023C58.2527 54.9405 58.1827 54.624 58.0434 54.3525C57.9038 54.0811 57.7098 53.873 57.4618 53.7283C57.2135 53.5836 56.9267 53.5112 56.601 53.5112C56.2754 53.5112 55.9872 53.5836 55.7365 53.7283C55.4858 53.873 55.2906 54.0811 55.1512 54.3525C55.0116 54.624 54.9417 54.9405 54.9417 55.3023C54.9417 55.6641 55.0116 55.9821 55.1512 56.256C55.2906 56.5301 55.4858 56.7406 55.7365 56.888C55.9872 57.0354 56.2754 57.109 56.601 57.109ZM66.0761 52.6119V58.0239H64.9906V54.5036L63.5406 58.0239H62.7188L61.261 54.5036V58.0239H60.1756V52.6119H61.4084L63.1296 56.636L64.851 52.6119H66.0761ZM72.7599 54.24C72.6359 54.0126 72.4651 53.8394 72.248 53.7205C72.0309 53.6016 71.7777 53.5422 71.4883 53.5422C71.1676 53.5422 70.8835 53.6145 70.6353 53.7593C70.3872 53.904 70.1933 54.1109 70.0539 54.3796C69.9143 54.6483 69.8444 54.9585 69.8444 55.3101C69.8444 55.6719 69.9155 55.9872 70.0576 56.256C70.1999 56.5249 70.3975 56.7316 70.6509 56.8763C70.904 57.021 71.1988 57.0934 71.5348 57.0934C71.9483 57.0934 72.287 56.9835 72.5506 56.764C72.8142 56.5442 72.9872 56.2379 73.0701 55.8451H71.2091V55.0155H74.1399V55.9614C74.0676 56.3388 73.9126 56.6877 73.6748 57.0081C73.437 57.3288 73.1307 57.5858 72.756 57.7797C72.3813 57.9734 71.9612 58.0704 71.4961 58.0704C70.9739 58.0704 70.5022 57.9527 70.081 57.7176C69.6597 57.4825 69.3288 57.1555 69.0886 56.7367C68.8481 56.3181 68.728 55.8425 68.728 55.3101C68.728 54.7777 68.8481 54.3009 69.0886 53.8796C69.3288 53.4584 69.6597 53.1299 70.081 52.8948C70.5022 52.6597 70.9713 52.542 71.4883 52.542C72.0981 52.542 72.6281 52.6906 73.0779 52.9879C73.5274 53.2851 73.8376 53.7025 74.0081 54.24H72.7599ZM78.265 56.9928H76.1094L75.7527 58.0239H74.6129L76.5592 52.6041H77.823L79.7693 58.0239H78.6217L78.265 56.9928ZM77.9704 56.1241L77.1873 53.8601L76.4042 56.1241H77.9704ZM86.3985 52.6119V58.0239H85.3131V54.5036L83.8631 58.0239H83.0413L81.5835 54.5036V58.0239H80.498V52.6119H81.7309L83.4521 56.636L85.1734 52.6119H86.3985ZM93.0824 54.24C92.9584 54.0126 92.7875 53.8394 92.5704 53.7205C92.3533 53.6016 92.1002 53.5422 91.8107 53.5422C91.4901 53.5422 91.206 53.6145 90.9577 53.7593C90.7097 53.904 90.5157 54.1109 90.3764 54.3796C90.2368 54.6483 90.1668 54.9585 90.1668 55.3101C90.1668 55.6719 90.238 55.9872 90.38 56.256C90.5223 56.5249 90.7199 56.7316 90.9733 56.8763C91.2265 57.021 91.5213 57.0934 91.8573 57.0934C92.2708 57.0934 92.6094 56.9835 92.8731 56.764C93.1367 56.5442 93.3097 56.2379 93.3925 55.8451H91.5315V55.0155H94.4624V55.9614C94.39 56.3388 94.2351 56.6877 93.9973 57.0081C93.7595 57.3288 93.4532 57.5858 93.0785 57.7797C92.7037 57.9734 92.2837 58.0704 91.8185 58.0704C91.2964 58.0704 90.8247 57.9527 90.4034 57.7176C89.9821 57.4825 89.6513 57.1555 89.411 56.7367C89.1705 56.3181 89.0504 55.8425 89.0504 55.3101C89.0504 54.7777 89.1705 54.3009 89.411 53.8796C89.6513 53.4584 89.9821 53.1299 90.4034 52.8948C90.8247 52.6597 91.2937 52.542 91.8107 52.542C92.4206 52.542 92.9506 52.6906 93.4003 52.9879C93.8499 53.2851 94.16 53.7025 94.3306 54.24H93.0824ZM98.5874 56.9928H96.4318L96.0751 58.0239H94.9353L96.8816 52.6041H98.1454L100.092 58.0239H98.9441L98.5874 56.9928ZM98.2928 56.1241L97.5098 53.8601L96.7266 56.1241H98.2928ZM105.449 58.0239H104.364L101.906 54.3099V58.0239H100.82V52.6041H101.906L104.364 56.3259V52.6041H105.449V58.0239ZM109.838 56.9928H107.682L107.326 58.0239H106.186L108.132 52.6041H109.396L111.342 58.0239H110.195L109.838 56.9928ZM109.543 56.1241L108.76 53.8601L107.977 56.1241H109.543ZM116.018 54.2865C116.018 54.576 115.949 54.8474 115.812 55.1008C115.675 55.354 115.461 55.5581 115.169 55.7134C114.876 55.8683 114.508 55.9458 114.064 55.9458H113.157V58.0239H112.071V52.6119H114.064C114.482 52.6119 114.839 52.6843 115.134 52.829C115.428 52.9737 115.649 53.1725 115.797 53.4259C115.944 53.6793 116.018 53.9661 116.018 54.2865ZM114.017 55.0696C114.317 55.0696 114.539 55.0011 114.684 54.8642C114.829 54.7273 114.901 54.5348 114.901 54.2865C114.901 53.7593 114.607 53.4956 114.017 53.4956H113.157V55.0696H114.017ZM120.104 56.9928H117.948L117.591 58.0239H116.452L118.398 52.6041H119.662L121.608 58.0239H120.46L120.104 56.9928ZM119.809 56.1241L119.026 53.8601L118.243 56.1241H119.809ZM126.02 52.6119V53.4881H124.578V58.0239H123.492V53.4881H122.05V52.6119H126.02ZM130.129 56.9928H127.974L127.617 58.0239H126.477L128.423 52.6041H129.687L131.634 58.0239H130.486L130.129 56.9928ZM129.835 56.1241L129.052 53.8601L128.269 56.1241H129.835ZM136.666 52.6119L134.836 56.1397V58.0239H133.75V56.1397L131.913 52.6119H133.138L134.301 55.0852L135.456 52.6119H136.666ZM138.379 53.4881V54.845H140.201V55.7055H138.379V57.1399H140.434V58.0239H137.294V52.6041H140.434V53.4881H138.379ZM147.893 58.0239H146.807L144.35 54.3099V58.0239H143.264V52.6041H144.35L146.807 56.3259V52.6041H147.893V58.0239ZM152.282 56.9928H150.126L149.769 58.0239H148.629L150.576 52.6041H151.84L153.786 58.0239H152.638L152.282 56.9928ZM151.987 56.1241L151.204 53.8601L150.421 56.1241H151.987ZM160.415 52.6119V58.0239H159.33V54.5036L157.88 58.0239H157.058L155.6 54.5036V58.0239H154.515V52.6119H155.747L157.469 56.636L159.19 52.6119H160.415ZM164.804 56.9928H162.648L162.291 58.0239H161.152L163.098 52.6041H164.362L166.308 58.0239H165.16L164.804 56.9928ZM164.509 56.1241L163.726 53.8601L162.943 56.1241H164.509ZM171.526 52.6119V58.0239H170.441V55.7211H168.122V58.0239H167.037V52.6119H168.122V54.8372H170.441V52.6119H171.526Z" fill="#2B2A29"/>
<path d="M55.9419 65.9663C55.5862 65.9663 55.2594 65.883 54.9617 65.7158C54.6639 65.5489 54.4281 65.3175 54.2539 65.0217C54.0797 64.7259 53.9924 64.3909 53.9924 64.0171C53.9924 63.6467 54.0797 63.3137 54.2539 63.0179C54.4281 62.7221 54.6639 62.4906 54.9617 62.3237C55.2594 62.1566 55.5862 62.0732 55.9419 62.0732C56.3013 62.0732 56.6287 62.1566 56.9248 62.3237C57.2206 62.4906 57.4547 62.7221 57.627 63.0179C57.7995 63.3137 57.8858 63.6467 57.8858 64.0171C57.8858 64.3909 57.7995 64.7259 57.627 65.0217C57.4547 65.3175 57.2196 65.5489 56.9219 65.7158C56.6244 65.883 56.2976 65.9663 55.9419 65.9663ZM55.9419 65.2858C56.1704 65.2858 56.3719 65.2341 56.5461 65.1306C56.7206 65.027 56.8566 64.8791 56.9545 64.6869C57.0527 64.4944 57.1017 64.2712 57.1017 64.0171C57.1017 63.763 57.0527 63.5405 56.9545 63.35C56.8566 63.1594 56.7206 63.0133 56.5461 62.9116C56.3719 62.81 56.1704 62.7591 55.9419 62.7591C55.7131 62.7591 55.5109 62.81 55.3347 62.9116C55.1586 63.0133 55.0216 63.1594 54.9237 63.35C54.8255 63.5405 54.7765 63.763 54.7765 64.0171C54.7765 64.2712 54.8255 64.4944 54.9237 64.6869C55.0216 64.8791 55.1586 65.027 55.3347 65.1306C55.5109 65.2341 55.7131 65.2858 55.9419 65.2858ZM62.5958 62.1276V65.9283H61.8334V63.4562L60.8152 65.9283H60.2379L59.2144 63.4562V65.9283H58.452V62.1276H59.3177L60.5267 64.9537L61.7354 62.1276H62.5958ZM66.9737 65.2042H65.4599L65.2094 65.9283H64.409L65.7756 62.1222H66.6633L68.0299 65.9283H67.2242L66.9737 65.2042ZM66.7668 64.5943L66.2169 63.0042L65.6667 64.5943H66.7668ZM69.2932 62.1276V64.4798C69.2932 64.7376 69.3605 64.9345 69.4948 65.0707C69.629 65.2069 69.8178 65.2748 70.061 65.2748C70.3078 65.2748 70.4984 65.2069 70.6328 65.0707C70.7671 64.9345 70.8343 64.7376 70.8343 64.4798V62.1276H71.6021V64.4744C71.6021 64.7975 71.5322 65.0707 71.3923 65.2938C71.2527 65.5173 71.0656 65.6851 70.8314 65.7977C70.5973 65.9103 70.3368 65.9663 70.05 65.9663C69.7669 65.9663 69.5101 65.9103 69.2796 65.7977C69.0491 65.6851 68.8666 65.5173 68.7324 65.2938C68.5981 65.0707 68.5309 64.7975 68.5309 64.4744V62.1276H69.2932ZM76.481 62.1276V65.9283H75.7186V63.4562L74.7003 65.9283H74.1232L73.0996 63.4562V65.9283H72.3372V62.1276H73.2029L74.4119 64.9537L75.6206 62.1276H76.481ZM81.1746 63.271C81.0877 63.1114 80.9678 62.9899 80.8153 62.9063C80.6627 62.8227 80.4849 62.781 80.2817 62.781C80.0565 62.781 79.857 62.8317 79.6828 62.9336C79.5086 63.0352 79.3724 63.1804 79.2744 63.369C79.1762 63.5578 79.1273 63.7756 79.1273 64.0225C79.1273 64.2766 79.1772 64.4981 79.2771 64.6869C79.377 64.8755 79.5156 65.0207 79.6935 65.1223C79.8716 65.2242 80.0785 65.2748 80.3143 65.2748C80.6048 65.2748 80.8426 65.1978 81.0277 65.0434C81.2129 64.8891 81.3345 64.6742 81.3925 64.3982H80.0858V63.8156H82.1439V64.4798C82.0932 64.7449 81.9843 64.99 81.8172 65.2149C81.6503 65.44 81.4351 65.6206 81.172 65.7568C80.9088 65.893 80.6138 65.961 80.287 65.961C79.9206 65.961 79.5892 65.8784 79.2934 65.7132C78.9976 65.548 78.7652 65.3184 78.5963 65.0243C78.4277 64.7303 78.3432 64.3965 78.3432 64.0225C78.3432 63.6487 78.4277 63.3137 78.5963 63.0179C78.7652 62.7221 78.9976 62.4916 79.2934 62.3264C79.5892 62.1612 79.9186 62.0786 80.2817 62.0786C80.71 62.0786 81.0821 62.1829 81.3978 62.3917C81.7138 62.6005 81.9317 62.8936 82.0513 63.271H81.1746ZM85.0407 65.2042H83.5269L83.2764 65.9283H82.476L83.8426 62.1222H84.7303L86.0969 65.9283H85.2911L85.0407 65.2042ZM84.8338 64.5943L84.2839 63.0042L83.7337 64.5943H84.8338ZM90.7526 62.1276V65.9283H89.9902V63.4562L88.972 65.9283H88.3948L87.3712 63.4562V65.9283H86.6088V62.1276H87.4745L88.6835 64.9537L89.8922 62.1276H90.7526ZM94.9453 65.9283L93.5624 64.2349V65.9283H92.8V62.1276H93.5624V63.8319L94.9453 62.1276H95.8656L94.2975 64.0117L95.9092 65.9283H94.9453ZM97.7225 65.9663C97.4574 65.9663 97.2188 65.921 97.0064 65.8303C96.7942 65.7395 96.626 65.6089 96.5028 65.4383C96.3792 65.2675 96.3159 65.0662 96.3122 64.8338H97.1289C97.1399 64.99 97.1952 65.1133 97.2951 65.2042C97.3948 65.2948 97.5319 65.3401 97.7061 65.3401C97.884 65.3401 98.0236 65.2975 98.1255 65.2122C98.2271 65.1269 98.2777 65.0153 98.2777 64.8774C98.2777 64.7649 98.2434 64.6723 98.1744 64.5997C98.1055 64.5271 98.0192 64.4698 97.9157 64.4281C97.8124 64.3865 97.6698 64.3402 97.4883 64.2893C97.2415 64.2166 97.041 64.145 96.8865 64.0743C96.7323 64.0034 96.5997 63.8963 96.4891 63.753C96.3785 63.6095 96.3229 63.4182 96.3229 63.1785C96.3229 62.9536 96.3792 62.7574 96.4918 62.5905C96.6044 62.4234 96.7622 62.2955 96.9657 62.2065C97.1689 62.1176 97.4011 62.0732 97.6625 62.0732C98.0546 62.0732 98.373 62.1685 98.6181 62.3591C98.8633 62.5496 98.9985 62.8154 99.0238 63.1568H98.1852C98.1781 63.0262 98.1226 62.918 98.0192 62.8327C97.9157 62.7474 97.7788 62.7048 97.6082 62.7048C97.4593 62.7048 97.3404 62.7428 97.2515 62.8191C97.1626 62.8953 97.118 63.0062 97.118 63.1514C97.118 63.253 97.1516 63.3373 97.2188 63.4046C97.2858 63.4716 97.3694 63.5261 97.4693 63.5678C97.569 63.6095 97.7098 63.6577 97.8913 63.7121C98.1381 63.7847 98.3396 63.8573 98.4956 63.9299C98.6518 64.0025 98.786 64.1114 98.8986 64.2566C99.0111 64.4018 99.0674 64.5924 99.0674 64.8285C99.0674 65.0317 99.0148 65.2205 98.9095 65.3947C98.8043 65.5689 98.6498 65.7078 98.4466 65.8113C98.2434 65.9146 98.0019 65.9663 97.7225 65.9663ZM102.879 62.1276V65.9283H102.117V64.3112H100.489V65.9283H99.7263V62.1276H100.489V63.6904H102.117V62.1276H102.879ZM104.393 62.1276V65.9283H103.631V62.1276H104.393ZM107.916 63.3037C107.916 63.5071 107.868 63.6977 107.772 63.8755C107.675 64.0534 107.525 64.1967 107.32 64.3056C107.115 64.4145 106.856 64.4691 106.544 64.4691H105.907V65.9283H105.144V62.1276H106.544C106.838 62.1276 107.088 62.1785 107.295 62.2801C107.502 62.3817 107.657 62.5216 107.761 62.6994C107.864 62.8773 107.916 63.0788 107.916 63.3037ZM106.511 63.8536C106.721 63.8536 106.878 63.8056 106.979 63.7094C107.081 63.6131 107.132 63.4779 107.132 63.3037C107.132 62.9336 106.925 62.7484 106.511 62.7484H105.907V63.8536H106.511ZM110.415 65.9283L109.577 64.4472H109.217V65.9283H108.455V62.1276H109.882C110.176 62.1276 110.426 62.1792 110.633 62.2828C110.84 62.3863 110.995 62.526 111.099 62.7021C111.202 62.878 111.254 63.0751 111.254 63.293C111.254 63.5434 111.181 63.7693 111.036 63.9708C110.891 64.1723 110.675 64.3112 110.388 64.3875L111.298 65.9283H110.415ZM109.217 63.8755H109.854C110.061 63.8755 110.216 63.8256 110.317 63.7257C110.419 63.626 110.47 63.4872 110.47 63.3093C110.47 63.1348 110.419 62.9998 110.317 62.9036C110.216 62.8074 110.061 62.7591 109.854 62.7591H109.217V63.8755ZM114.276 65.2042H112.762L112.512 65.9283H111.711L113.078 62.1222H113.965L115.332 65.9283H114.526L114.276 65.2042ZM114.069 64.5943L113.519 63.0042L112.969 64.5943H114.069ZM119.912 63.3037C119.912 63.5071 119.864 63.6977 119.767 63.8755C119.671 64.0534 119.52 64.1967 119.315 64.3056C119.11 64.4145 118.852 64.4691 118.539 64.4691H117.902V65.9283H117.14V62.1276H118.539C118.833 62.1276 119.084 62.1785 119.291 62.2801C119.498 62.3817 119.653 62.5216 119.756 62.6994C119.86 62.8773 119.912 63.0788 119.912 63.3037ZM118.507 63.8536C118.717 63.8536 118.873 63.8056 118.975 63.7094C119.077 63.6131 119.127 63.4779 119.127 63.3037C119.127 62.9336 118.921 62.7484 118.507 62.7484H117.902V63.8536H118.507ZM122.411 65.9283L121.573 64.4472H121.213V65.9283H120.451V62.1276H121.877C122.171 62.1276 122.422 62.1792 122.629 62.2828C122.836 62.3863 122.991 62.526 123.094 62.7021C123.198 62.878 123.25 63.0751 123.25 63.293C123.25 63.5434 123.177 63.7693 123.032 63.9708C122.887 64.1723 122.671 64.3112 122.384 64.3875L123.293 65.9283H122.411ZM121.213 63.8755H121.85C122.057 63.8755 122.211 63.8256 122.313 63.7257C122.415 63.626 122.466 63.4872 122.466 63.3093C122.466 63.1348 122.415 62.9998 122.313 62.9036C122.211 62.8074 122.057 62.7591 121.85 62.7591H121.213V63.8755ZM126.272 65.2042H124.758L124.507 65.9283H123.707L125.074 62.1222H125.961L127.328 65.9283H126.522L126.272 65.2042ZM126.065 64.5943L125.515 63.0042L124.965 64.5943H126.065ZM129.152 65.9663C128.887 65.9663 128.648 65.921 128.436 65.8303C128.224 65.7395 128.056 65.6089 127.932 65.4383C127.809 65.2675 127.745 65.0662 127.742 64.8338H128.558C128.569 64.99 128.625 65.1133 128.725 65.2042C128.824 65.2948 128.961 65.3401 129.136 65.3401C129.314 65.3401 129.453 65.2975 129.555 65.2122C129.657 65.1269 129.707 65.0153 129.707 64.8774C129.707 64.7649 129.673 64.6723 129.604 64.5997C129.535 64.5271 129.449 64.4698 129.345 64.4281C129.242 64.3865 129.099 64.3402 128.918 64.2893C128.671 64.2166 128.471 64.145 128.316 64.0743C128.162 64.0034 128.029 63.8963 127.919 63.753C127.808 63.6095 127.752 63.4182 127.752 63.1785C127.752 62.9536 127.809 62.7574 127.921 62.5905C128.034 62.4234 128.192 62.2955 128.395 62.2065C128.598 62.1176 128.831 62.0732 129.092 62.0732C129.484 62.0732 129.803 62.1685 130.048 62.3591C130.293 62.5496 130.428 62.8154 130.453 63.1568H129.615C129.608 63.0262 129.552 62.918 129.449 62.8327C129.345 62.7474 129.208 62.7048 129.038 62.7048C128.889 62.7048 128.77 62.7428 128.681 62.8191C128.592 62.8953 128.548 63.0062 128.548 63.1514C128.548 63.253 128.581 63.3373 128.648 63.4046C128.715 63.4716 128.799 63.5261 128.899 63.5678C128.999 63.6095 129.139 63.6577 129.321 63.7121C129.568 63.7847 129.769 63.8573 129.925 63.9299C130.081 64.0025 130.216 64.1114 130.328 64.2566C130.441 64.4018 130.497 64.5924 130.497 64.8285C130.497 65.0317 130.444 65.2205 130.339 65.3947C130.234 65.5689 130.079 65.7078 129.876 65.8113C129.673 65.9146 129.431 65.9663 129.152 65.9663ZM133.486 65.2042H131.973L131.722 65.9283H130.922L132.288 62.1222H133.176L134.543 65.9283H133.737L133.486 65.2042ZM133.279 64.5943L132.73 63.0042L132.179 64.5943H133.279ZM136.383 62.1276C136.782 62.1276 137.134 62.2055 137.437 62.3617C137.74 62.5179 137.974 62.7401 138.139 63.0289C138.304 63.3173 138.387 63.6524 138.387 64.0334C138.387 64.4145 138.304 64.7476 138.139 65.0326C137.974 65.3175 137.74 65.538 137.437 65.6942C137.134 65.8503 136.782 65.9283 136.383 65.9283H135.054V62.1276H136.383ZM136.356 65.2804C136.755 65.2804 137.064 65.1715 137.281 64.9537C137.499 64.7359 137.608 64.4291 137.608 64.0334C137.608 63.6377 137.499 63.3283 137.281 63.1051C137.064 62.8817 136.755 62.7701 136.356 62.7701H135.817V65.2804H136.356ZM141.289 65.2042H139.775L139.525 65.9283H138.725L140.091 62.1222H140.979L142.345 65.9283H141.54L141.289 65.2042ZM141.082 64.5943L140.532 63.0042L139.982 64.5943H141.082ZM145.879 62.1276L144.594 64.605V65.9283H143.832V64.605L142.542 62.1276H143.402L144.219 63.8646L145.03 62.1276H145.879ZM148.651 65.2042H147.137L146.887 65.9283H146.086L147.453 62.1222H148.341L149.707 65.9283H148.901L148.651 65.2042ZM148.444 64.5943L147.894 63.0042L147.344 64.5943H148.444ZM154.766 65.9283H154.003L152.277 63.32V65.9283H151.515V62.1222H152.277L154.003 64.7359V62.1222H154.766V65.9283ZM157.848 65.2042H156.334L156.084 65.9283H155.283L156.65 62.1222H157.537L158.904 65.9283H158.098L157.848 65.2042ZM157.641 64.5943L157.091 63.0042L156.541 64.5943H157.641ZM163.56 62.1276V65.9283H162.797V63.4562L161.779 65.9283H161.202L160.178 63.4562V65.9283H159.416V62.1276H160.282L161.491 64.9537L162.699 62.1276H163.56ZM166.642 65.2042H165.128L164.877 65.9283H164.077L165.444 62.1222H166.331L167.698 65.9283H166.892L166.642 65.2042ZM166.435 64.5943L165.885 63.0042L165.335 64.5943H166.435ZM171.363 62.1276V65.9283H170.6V64.3112H168.972V65.9283H168.21V62.1276H168.972V63.6904H170.6V62.1276H171.363Z" fill="#2B2A29"/>
<path d="M3.5301 1.94334C2.61762 5.18682 1.78238 8.54214 2.1537 11.8909C2.63954 16.273 5.28901 19.6183 9.60261 20.5693C13.5887 21.4481 17.6136 19.7869 21.2362 18.2867C25.2828 16.788 30.2284 18.3613 30.2296 18.3615C29.0984 18.0017 26.8326 18.8057 25.7447 19.0584C19.6659 20.4703 14.4634 24.9889 7.88316 23.1554C3.08786 21.8189 0.930583 17.0626 0.572173 12.4274C0.286126 8.72708 1.44761 4.98143 3.53253 1.93408C3.5318 1.93701 3.53083 1.94017 3.5301 1.94334Z" fill="#FF6600"/>
<path d="M11.1186 0C11.1186 0 12.3176 4.27194 14.491 7.64456C16.6646 11.0169 19.0628 16.7128 13.292 19.1861C13.6667 18.9612 15.4653 16.0383 12.992 11.2418C10.7439 7.26982 11.1186 7.56951 11.1186 7.56951C11.1186 7.56951 8.94499 11.1668 8.04568 13.7151C7.14636 16.2632 7.59613 17.2373 8.94498 19.1858C9.16232 19.5001 8.08977 19.0925 8.04884 19.0713C7.21896 18.643 6.51529 17.8808 6.02166 17.1021C4.11143 14.0894 5.50122 11.0235 7.20897 8.34603C8.89893 5.69632 10.2982 3.06026 11.1186 0Z" fill="#FF6600"/>
<path d="M10.9939 10.7925C10.9939 10.7925 9.02004 13.8652 9.54462 16.4133C10.4439 18.8115 12.9172 18.1371 12.6173 14.9894C11.9429 11.8416 10.9939 10.7925 10.9939 10.7925Z" fill="#FF6600"/>
<path d="M1.75022 19.8604C1.75022 19.8604 -0.616846 20.9846 0.154553 23.7575C0.925953 25.4814 2.2 26.3807 1.75022 37.3228C1.30068 48.2647 3.5491 55.2349 6.54674 58.982C6.17201 58.0826 2.94948 53.1363 2.64979 43.5432C2.79963 33.9502 4.29857 26.3807 1.75022 19.8604Z" fill="#FF6600"/>
<path d="M19.1377 54.9351C19.1377 54.9351 15.6152 51.4877 20.6366 47.5157C24.9085 44.8926 32.4781 46.5414 31.6535 54.9351C30.6044 61.2306 26.1075 64.7531 20.6366 66.9265C15.1657 69.1001 5.42253 69.2499 1.37549 61.2306C1.37549 61.3057 1.52534 67.0763 11.4183 69.5496C18.9123 71.423 28.623 67.2783 32.2439 60.3625C34.0557 56.9021 34.6816 52.0949 32.7797 48.5145C31.0827 45.3207 27.2218 43.0418 23.5972 43.3751C19.4542 43.7562 14.2354 47.2134 15.9151 52.0123C16.9643 54.4106 19.1377 54.9351 19.1377 54.9351Z" fill="#FF6600"/>
<path d="M23.796 49.003C23.795 49.002 23.7941 49.001 23.7931 49.0001C25.034 50.2454 26.1239 51.1115 26.6487 52.9002C27.1596 54.6408 26.9009 56.3656 26.1826 58.0078C24.5555 61.7269 20.7243 63.7376 16.7382 63.3618C11.8444 62.9006 8.58097 59.3236 6.65004 55.0343C6.33451 54.3336 6.05821 53.6153 5.82065 52.8844C3.81467 46.7139 4.32415 40.0495 7.16756 34.2336C8.50471 31.4984 10.2661 28.893 12.61 26.9202C15.326 24.6345 18.5726 23.0451 21.8509 21.7382C25.1585 20.4193 29.0494 18.6372 32.6754 18.9459C34.5851 19.1084 35.8507 20.2943 35.8507 22.2586C35.8507 25.9309 33.3026 28.4793 32.7029 28.9288C32.403 28.854 35.251 24.0149 33.0777 23.2868C30.9043 22.5586 27.9815 23.1579 23.1849 25.0316C18.585 26.8285 13.6419 28.6593 10.5753 32.7558C5.04559 40.1424 5.78873 51.9763 13.521 57.618C14.711 58.4861 16.0711 59.1381 17.5371 59.3572C20.1668 59.7502 23.0249 58.5931 24.457 56.3527C25.8885 54.1136 25.6702 50.8869 23.796 49.003Z" fill="#FF6600"/>
<path d="M36.9361 26.6201C35.148 30.8409 30.0662 33.2323 25.9482 30.6104C24.794 29.8758 23.9191 28.9572 22.4862 28.8542C19.9973 28.6746 18.2515 30.4184 16.5849 32.0082C15.8116 32.746 15.0699 33.5164 14.2946 34.2523C13.99 34.5415 13.3941 35.2995 12.9173 35.2995C12.2428 35.2995 16.065 29.2289 18.9878 27.8048C21.9107 26.3809 25.2833 27.43 27.0819 28.7791C28.1869 29.6078 29.5467 30.0468 30.9304 29.9572C33.4575 29.7937 35.1063 28.0893 36.9361 26.6201Z" fill="#FF6600"/>
<path d="M15.8401 35.9906C15.8401 35.9906 19.1376 35.899 20.7864 34.775C20.2618 34.4003 17.9654 32.5266 20.4626 30.2031C22.4861 28.8543 24.159 30.2031 24.159 30.2031L24.4914 29.6035L26.2671 30.8028C26.2671 30.8028 24.9085 33.9505 23.3345 35.2996C21.7608 36.6485 16.2899 36.6818 15.8401 35.9906Z" fill="#FF6600"/>
<path d="M6.8216 25.8311C6.8216 25.8311 5.42255 28.0295 6.12207 29.6035C6.97144 29.5784 7.17148 26.8805 6.8216 25.8311Z" fill="#FF6600"/>
<path d="M5.10042 28.4795C5.10042 28.4795 5.03098 30.992 5.92616 30.9599C6.97142 30.5778 7.37126 29.7285 7.47115 28.8291C7.12151 28.979 5.72758 31.827 5.10042 28.4795Z" fill="#FF6600"/>
<path d="M4.32344 29.6035C4.32344 29.6035 4.68112 31.7269 5.92642 31.5269C7.17148 31.3271 7.72091 30.5718 7.72091 30.5718C7.72091 30.5718 7.22142 32.0766 5.52268 32.4764C4.62336 32.5263 4.02375 30.7275 4.32344 29.6035Z" fill="#FF6600"/>
</svg>
