<svg width="56" height="56" viewBox="0 0 56 56" fill="none" xmlns="http://www.w3.org/2000/svg">
<g clip-path="url(#clip0_365_373)">
<path d="M43.75 28V33.25H40.25C39.2875 33.25 38.5 34.0375 38.5 35V40.25H37.5638C37.1087 40.25 36.7238 40.6088 36.6888 41.0638L36.4963 43.75L35.9975 50.75H7V29.75H8.75C9.7125 29.75 10.5 30.5375 10.5 31.5V35C10.5 35.4812 10.6925 35.9187 11.0163 36.2337C11.3313 36.5575 11.7688 36.75 12.25 36.75C13.2125 36.75 14 35.9625 14 35V28.875C14 28.1488 14.2975 27.4925 14.77 27.02C15.2425 26.5475 15.8988 26.25 16.625 26.25C18.0775 26.25 19.25 27.4225 19.25 28.875V44.625C19.25 45.3512 19.5475 46.0075 20.02 46.48C20.4925 46.9525 21.1488 47.25 21.875 47.25C23.3275 47.25 24.5 46.0775 24.5 44.625V35C24.5 34.5188 24.6925 34.0813 25.0163 33.7663C25.3312 33.4425 25.7687 33.25 26.25 33.25C27.2125 33.25 28 34.0375 28 35V37.625C28 38.3512 28.2975 39.0075 28.77 39.48C29.2425 39.9525 29.8988 40.25 30.625 40.25C32.0775 40.25 33.25 39.0775 33.25 37.625V28H43.75Z" fill="#E6E9ED"/>
<path d="M41.125 52.4388V52.5612C41.125 53.025 40.9325 53.4537 40.635 53.76C40.3287 54.0575 39.9 54.25 39.4362 54.25H37.5638C36.6275 54.25 35.875 53.4975 35.875 52.5612C35.875 52.5175 35.875 52.4825 35.875 52.4388L35.9975 50.75L36.4962 43.75H40.5038L41.125 52.4388Z" fill="#969FAA"/>
<path d="M40.3113 41.0638L40.5038 43.75H36.4963L36.6888 41.0638C36.7238 40.6088 37.1088 40.25 37.5638 40.25H38.5H39.4363C39.8913 40.25 40.2763 40.6088 40.3113 41.0638Z" fill="#FCD770"/>
<path d="M42.4813 17.5H37.4325L25.375 5.92375L7.00001 23.5638L4.70751 25.76C4.38376 26.075 3.95501 26.25 3.50001 26.25C3.02751 26.25 2.56376 26.0575 2.24001 25.7075C1.91626 25.375 1.74126 24.9287 1.75001 24.465C1.75876 23.9925 1.95126 23.5637 2.28376 23.24L24.1675 2.24C24.4913 1.925 24.92 1.75 25.375 1.75C25.83 1.75 26.2588 1.925 26.5825 2.24L42.4813 17.5Z" fill="#B4DD7F"/>
<path d="M37.4325 17.5001H28C27.0375 17.5001 26.25 18.2876 26.25 19.2501V26.2501C26.25 27.2126 27.0375 28.0001 28 28.0001H33.25V37.6251C33.25 39.0776 32.0775 40.2501 30.625 40.2501C29.8988 40.2501 29.2425 39.9526 28.77 39.4801C28.2975 39.0076 28 38.3513 28 37.6251V35.0001C28 34.0376 27.2125 33.2501 26.25 33.2501C25.7687 33.2501 25.3312 33.4426 25.0163 33.7663C24.6925 34.0813 24.5 34.5188 24.5 35.0001V44.6251C24.5 46.0776 23.3275 47.2501 21.875 47.2501C21.1488 47.2501 20.4925 46.9526 20.02 46.4801C19.5475 46.0076 19.25 45.3513 19.25 44.6251V28.8751C19.25 27.4226 18.0775 26.2501 16.625 26.2501C15.8988 26.2501 15.2425 26.5476 14.77 27.0201C14.2975 27.4926 14 28.1488 14 28.8751V35.0001C14 35.9626 13.2125 36.7501 12.25 36.7501C11.7688 36.7501 11.3313 36.5576 11.0163 36.2338C10.6925 35.9188 10.5 35.4813 10.5 35.0001V31.5001C10.5 30.5376 9.7125 29.7501 8.75 29.7501H7V23.5638L25.375 5.92383L37.4325 17.5001Z" fill="#69D6F4"/>
<path d="M50.75 22.75V26.25C50.75 27.2125 49.9625 28 49 28H43.75H33.25H28C27.0375 28 26.25 27.2125 26.25 26.25V19.25C26.25 18.2875 27.0375 17.5 28 17.5H37.4325H42.4812H49C49.9625 17.5 50.75 18.2875 50.75 19.25V22.75Z" fill="#FFEAA7"/>
<path d="M52.5 21.8751H51.625V19.2501C51.625 17.8029 50.4472 16.6251 49 16.6251H42.8374L27.1932 1.60663C26.2115 0.663383 24.5385 0.664258 23.5576 1.60576L1.68174 22.6075C1.17599 23.0931 0.889865 23.7468 0.87499 24.4459C0.86099 25.1476 1.11999 25.8126 1.60474 26.3158C2.09649 26.8303 2.78774 27.1251 3.49999 27.1251C4.18074 27.1251 4.82649 26.8653 5.31736 26.3945L6.12499 25.6193V51.6251H35.0604L35.007 52.375C35.0017 52.4371 35 52.4993 35 52.5605C35 53.9754 36.1506 55.1251 37.5646 55.1251H39.4354C40.8494 55.1251 42 53.9754 42 52.5605C42 52.4993 41.9982 52.4363 41.9939 52.3776L41.181 41C41.1154 40.0883 40.3489 39.3751 39.4354 39.3751H39.375V35.0001C39.375 34.5171 39.7679 34.1251 40.25 34.1251H52.5C53.9472 34.1251 55.125 32.9474 55.125 31.5001V24.5001C55.125 23.0529 53.9472 21.8751 52.5 21.8751ZM49.875 19.2501V26.2501C49.875 26.7331 49.4821 27.1251 49 27.1251H28C27.5179 27.1251 27.125 26.7331 27.125 26.2501V19.2501C27.125 18.7671 27.5179 18.3751 28 18.3751H49C49.4821 18.3751 49.875 18.7671 49.875 19.2501ZM4.10549 25.1319C3.77036 25.453 3.19024 25.4416 2.86736 25.1048C2.70636 24.9368 2.62062 24.7163 2.62499 24.4818C2.62936 24.2446 2.72211 24.0329 2.89361 23.8693L24.7695 2.86751C25.0959 2.55513 25.6532 2.55426 25.9805 2.86838L40.3104 16.6251H37.7834L25.375 4.71288L4.10549 25.1319ZM25.375 7.13838L35.2564 16.6251H28C26.5527 16.6251 25.375 17.8029 25.375 19.2501V26.2501C25.375 27.6974 26.5527 28.8751 28 28.8751H32.375V37.6251C32.375 38.5903 31.5901 39.3751 30.625 39.3751C29.6599 39.3751 28.875 38.5903 28.875 37.6251V35.0001C28.875 33.5529 27.6972 32.3751 26.25 32.3751C24.8027 32.3751 23.625 33.5529 23.625 35.0001V44.6251C23.625 45.5903 22.8401 46.3751 21.875 46.3751C20.9099 46.3751 20.125 45.5903 20.125 44.6251V28.8751C20.125 26.9449 18.5552 25.3751 16.625 25.3751C14.6947 25.3751 13.125 26.9449 13.125 28.8751V35.0001C13.125 35.4831 12.7321 35.8751 12.25 35.8751C11.7679 35.8751 11.375 35.4831 11.375 35.0001V31.5001C11.375 30.0529 10.1972 28.8751 8.74999 28.8751H7.87499V23.9393L25.375 7.13838ZM39.4354 53.3751H37.5646C37.1149 53.3751 36.75 53.0094 36.7517 52.5028L37.3144 44.6251H39.6839L40.25 52.5605C40.25 53.0094 39.8851 53.3751 39.4354 53.3751ZM39.5596 42.8751H37.4395L37.5646 41.1251H39.4354L39.5596 42.8751ZM53.375 31.5001C53.375 31.9831 52.9821 32.3751 52.5 32.3751H40.25C38.8027 32.3751 37.625 33.5529 37.625 35.0001V39.3751H37.5646C36.6511 39.3751 35.8846 40.0883 35.819 41L35.1855 49.8751H7.87499V30.6251H8.74999C9.23211 30.6251 9.62499 31.0171 9.62499 31.5001V35.0001C9.62499 36.4474 10.8027 37.6251 12.25 37.6251C13.6972 37.6251 14.875 36.4474 14.875 35.0001V28.8751C14.875 27.91 15.6599 27.1251 16.625 27.1251C17.5901 27.1251 18.375 27.91 18.375 28.8751V44.6251C18.375 46.5554 19.9447 48.1251 21.875 48.1251C23.8052 48.1251 25.375 46.5554 25.375 44.6251V35.0001C25.375 34.5171 25.7679 34.1251 26.25 34.1251C26.7321 34.1251 27.125 34.5171 27.125 35.0001V37.6251C27.125 39.5554 28.6947 41.1251 30.625 41.1251C32.5552 41.1251 34.125 39.5554 34.125 37.6251V28.8751H49C50.4472 28.8751 51.625 27.6974 51.625 26.2501V23.6251H52.5C52.9821 23.6251 53.375 24.0171 53.375 24.5001V31.5001Z" fill="black"/>
</g>
<defs>
<clipPath id="clip0_365_373">
<rect width="56" height="56" fill="white"/>
</clipPath>
</defs>
</svg>
