<svg width="56" height="56" viewBox="0 0 56 56" fill="none" xmlns="http://www.w3.org/2000/svg">
<g clip-path="url(#clip0_365_359)">
<path d="M50.7827 25.578C48.51 23.31 45.6307 21.6534 42.406 20.8694V9.60871C42.4013 9.28204 42.2147 8.97404 41.8973 8.83871L21.532 0.0700437C21.3313 -0.018623 21.0933 -0.0279563 20.8693 0.0700437L0.545953 8.82471C0.228667 8.94138 0 9.24938 0 9.60871V28C0 35.4527 2.24 41.244 5.52071 45.6167C9.8 51.3287 15.848 54.5907 20.9673 55.9627C21.112 56.0047 21.266 56.0094 21.42 55.972C22.638 55.6407 23.912 55.2067 25.2047 54.656C26.2593 54.208 27.3233 53.676 28.3874 53.0647C31.1967 54.9174 34.5614 56 38.1827 56C43.1013 56 47.558 54.0027 50.7827 50.778C54.0073 47.5534 56 43.1014 56 38.178C56 33.2594 54.0073 28.8027 50.7827 25.578ZM24.5467 53.1114C23.4126 53.5967 22.288 53.9887 21.2006 54.292C16.4173 52.962 10.8266 49.9054 6.85529 44.6134C3.78467 40.5114 1.68 35.056 1.68 28V10.1594L21.2006 1.75471L40.726 10.1594V20.5427C39.8953 20.426 39.046 20.3607 38.1827 20.3607C37.8187 20.3607 37.464 20.3747 37.1047 20.398V13.09C37.1047 12.7307 36.8807 12.4274 36.5633 12.306L21.532 5.82404C21.3126 5.73071 21.0746 5.73538 20.8693 5.82404L5.79595 12.32C5.47867 12.4554 5.28738 12.768 5.28738 13.09V28C5.28738 31.0707 5.73533 34.0387 6.72462 36.806C7.65795 39.4054 9.06262 41.8227 11.0273 43.988L11.0693 44.03C12.376 45.4627 13.888 46.732 15.5307 47.8007C17.22 48.8974 19.0494 49.7887 20.9347 50.4327C21.1353 50.5027 21.35 50.4887 21.532 50.4094C22.1153 50.204 22.6753 49.9894 23.2027 49.7607C23.5527 49.6114 23.898 49.448 24.248 49.28C24.6633 49.8027 25.1067 50.3067 25.5827 50.778C26.0027 51.198 26.446 51.5994 26.9033 51.9774C26.1193 52.3974 25.3307 52.78 24.5467 53.1114ZM35.4293 13.6454V20.5754C31.6073 21.168 28.1913 22.9694 25.5827 25.578C22.358 28.8027 20.3607 33.2594 20.3607 38.178C20.3607 41.7667 21.4246 45.1034 23.2494 47.8987C23.016 48.0107 22.7827 48.118 22.54 48.2207C22.0827 48.4167 21.6347 48.594 21.2053 48.748C19.5393 48.16 17.9293 47.362 16.4407 46.396C14.9147 45.402 13.51 44.226 12.3107 42.9054C12.2967 42.8867 12.2827 42.8727 12.2687 42.8587C10.4626 40.866 9.16533 38.64 8.30667 36.2414C7.38271 33.6654 6.96729 30.884 6.96729 28V13.6454L21.2006 7.50871L35.4293 13.6454ZM49.5927 49.5927C46.676 52.514 42.6393 54.32 38.1827 54.32C33.726 54.32 29.6893 52.514 26.768 49.5927C23.8513 46.6714 22.0407 42.6347 22.0407 38.178C22.0407 33.7214 23.8513 29.6894 26.768 26.768C29.6893 23.8467 33.726 22.0407 38.1827 22.0407C42.6393 22.0407 46.676 23.8467 49.5927 26.768C52.514 29.6894 54.32 33.7214 54.32 38.178C54.32 42.6347 52.514 46.6714 49.5927 49.5927Z" fill="black"/>
<path d="M40.726 10.1595V20.5429C39.8953 20.4262 39.0459 20.3609 38.1827 20.3609C37.8187 20.3609 37.464 20.3749 37.1047 20.3982V13.0902C37.1047 12.7309 36.8807 12.4275 36.5633 12.3062L21.532 5.82422C21.3126 5.73088 21.0746 5.73555 20.8693 5.82422L5.79595 12.3202C5.47866 12.4555 5.28737 12.7682 5.28737 13.0902V28.0002C5.28737 31.0709 5.73533 34.0389 6.72461 36.8062C7.65795 39.4055 9.06261 41.8229 11.0273 43.9882L11.0693 44.0302C12.376 45.4629 13.888 46.7322 15.5307 47.8009C17.2199 48.8975 19.0494 49.7889 20.9347 50.4329C21.1353 50.5029 21.35 50.4889 21.532 50.4095C22.1153 50.2042 22.6753 49.9895 23.2027 49.7609C23.5527 49.6115 23.898 49.4482 24.248 49.2802C24.6633 49.8029 25.1067 50.3069 25.5827 50.7782C26.0027 51.1982 26.4459 51.5995 26.9033 51.9775C26.1193 52.3975 25.3307 52.7802 24.5467 53.1115C23.4126 53.5969 22.288 53.9889 21.2006 54.2922C16.4173 52.9622 10.8266 49.9055 6.85528 44.6135C3.78466 40.5115 1.67999 35.0562 1.67999 28.0002V10.1595L21.2006 1.75488L40.726 10.1595Z" fill="#A79BA7"/>
<path d="M35.4293 13.6455V20.5755C31.6073 21.1681 28.1913 22.9695 25.5827 25.5781C22.358 28.8028 20.3607 33.2595 20.3607 38.1781C20.3607 41.7668 21.4246 45.1035 23.2494 47.8988C23.016 48.0108 22.7827 48.1181 22.54 48.2208C22.0827 48.4168 21.6347 48.5941 21.2053 48.7481C19.5393 48.1601 17.9293 47.3621 16.4407 46.3961C14.9147 45.4021 13.51 44.2261 12.3107 42.9055C12.2967 42.8868 12.2827 42.8728 12.2687 42.8588C10.4626 40.8661 9.16533 38.6401 8.30666 36.2415C7.38271 33.6655 6.96729 30.8841 6.96729 28.0001V13.6455L21.2006 7.50879L35.4293 13.6455Z" fill="#EFE2DD"/>
<path d="M49.5926 26.7679C46.676 23.8465 42.6393 22.0405 38.1827 22.0405C33.726 22.0405 29.6893 23.8465 26.768 26.7679C23.8513 29.6892 22.0406 33.7212 22.0406 38.1779C22.0406 42.6345 23.8513 46.6712 26.768 49.5925C29.6893 52.5139 33.726 54.3199 38.1827 54.3199C42.6393 54.3199 46.676 52.5139 49.5926 49.5925C52.514 46.6712 54.3199 42.6345 54.3199 38.1779C54.3199 33.7212 52.514 29.6892 49.5926 26.7679ZM47.9126 41.7059C47.9079 44.3845 46.8207 46.8112 45.0614 48.5659C43.302 50.3299 40.8707 51.4172 38.1827 51.4172C35.4994 51.4172 33.068 50.3252 31.3086 48.5659C29.5494 46.8019 28.462 44.3705 28.462 41.6872C28.462 40.1752 28.8166 38.7145 29.4093 37.2865C29.9833 35.8959 30.786 34.5425 31.7006 33.2032C32.5033 32.0225 33.3246 30.9352 34.1553 29.8339C34.6219 29.2132 35.0933 28.5925 35.5133 28.0139L35.532 27.9905L37.4686 25.3119C37.5246 25.2372 37.59 25.1719 37.6693 25.1112C38.0426 24.8405 38.5653 24.9245 38.8406 25.3025L40.7866 27.9905C41.216 28.5739 41.692 29.2039 42.1633 29.8339C42.9846 30.9212 43.8013 32.0085 44.5947 33.1752L44.618 33.2032C45.5327 34.5379 46.3494 35.8865 46.942 37.2819C47.5486 38.7099 47.9126 40.1752 47.9126 41.6872V41.7059Z" fill="#01D0FB"/>
<path d="M46.942 37.2823C46.3494 35.8869 45.5327 34.5383 44.618 33.2036L44.5947 33.1756C43.8013 32.0089 42.9846 30.9216 42.1633 29.8343C41.692 29.2043 41.216 28.5743 40.7866 27.9909L38.8406 25.3029C38.5653 24.9249 38.0426 24.8409 37.6693 25.1116C37.59 25.1723 37.5246 25.2376 37.4686 25.3123L35.532 27.9909L35.5133 28.0143C35.0933 28.5929 34.6219 29.2136 34.1553 29.8343C33.3246 30.9356 32.5033 32.0229 31.7006 33.2036C30.786 34.5429 29.9833 35.8963 29.4093 37.2869C28.8166 38.7149 28.462 40.1756 28.462 41.6876C28.462 44.3709 29.5494 46.8023 31.3086 48.5663C33.068 50.3256 35.4994 51.4176 38.1827 51.4176C40.8707 51.4176 43.302 50.3303 45.0614 48.5663C46.8207 46.8116 47.9079 44.3849 47.9126 41.7063V41.6876C47.9126 40.1756 47.5486 38.7103 46.942 37.2823ZM46.2327 41.6876C46.2327 43.9089 45.332 45.9249 43.876 47.3809C42.4199 48.8369 40.4086 49.7376 38.1827 49.7376C35.9614 49.7376 33.95 48.8369 32.4986 47.3809C31.0426 45.9249 30.142 43.9089 30.142 41.6876C30.142 40.4089 30.4453 39.1583 30.9586 37.9263C31.486 36.6569 32.228 35.4016 33.082 34.1509V34.1463C33.8099 33.0823 34.65 31.9669 35.4947 30.8469C35.9426 30.2496 36.3906 29.6569 36.8666 29.0036L36.89 28.9709L38.1593 27.2209L39.4286 28.9709L39.4333 28.9756C39.914 29.6383 40.3713 30.2403 40.824 30.8423C41.6593 31.9529 42.4947 33.0589 43.2133 34.1136C43.2226 34.1276 43.232 34.1416 43.2366 34.1556C44.1 35.4063 44.8606 36.6663 45.3973 37.9309C45.9199 39.1583 46.2327 40.4043 46.2327 41.6783V41.6876Z" fill="black"/>
<path d="M45.3974 37.9307C44.8607 36.666 44.1 35.406 43.2367 34.1554C43.232 34.1414 43.2227 34.1274 43.2134 34.1134C42.4947 33.0587 41.6594 31.9527 40.824 30.842C40.3714 30.24 39.914 29.638 39.4334 28.9754L39.4287 28.9707L38.1594 27.2207L36.89 28.9707L36.8667 29.0034C36.3907 29.6567 35.9427 30.2494 35.4947 30.8467C34.65 31.9667 33.81 33.082 33.082 34.146V34.1507C32.2281 35.4014 31.486 36.6567 30.9587 37.926C30.4454 39.158 30.142 40.4087 30.142 41.6874C30.142 43.9087 31.0427 45.9247 32.4987 47.3807C33.95 48.8367 35.9614 49.7374 38.1827 49.7374C40.4087 49.7374 42.42 48.8367 43.876 47.3807C45.332 45.9247 46.2327 43.9087 46.2327 41.6874V41.678C46.2327 40.404 45.92 39.158 45.3974 37.9307ZM37.5667 47.6327C36.0734 47.6327 34.7246 46.9607 33.7541 45.878C32.802 44.8187 32.214 43.3627 32.214 41.762C32.214 40.8754 32.4007 40.0074 32.718 39.1627C33.0167 38.346 33.432 37.562 33.9033 36.792C34.146 36.3954 34.664 36.2694 35.056 36.512C35.4527 36.7547 35.5787 37.268 35.336 37.6647C34.9114 38.36 34.5427 39.0554 34.286 39.746C34.0387 40.404 33.894 41.076 33.894 41.762C33.894 42.9427 34.314 43.9974 35 44.7627C35.658 45.4954 36.568 45.9527 37.5667 45.9527C38.0287 45.9527 38.4067 46.3307 38.4067 46.7927C38.4067 47.2547 38.0287 47.6327 37.5667 47.6327Z" fill="#A6E7F0"/>
<path d="M38.4067 46.7929C38.4067 47.2549 38.0287 47.6329 37.5667 47.6329C36.0733 47.6329 34.7246 46.9609 33.754 45.8782C32.802 44.8189 32.214 43.3629 32.214 41.7622C32.214 40.8755 32.4006 40.0075 32.718 39.1629C33.0167 38.3462 33.432 37.5622 33.9033 36.7922C34.1459 36.3955 34.664 36.2695 35.056 36.5122C35.4527 36.7549 35.5787 37.2682 35.336 37.6649C34.9114 38.3602 34.5427 39.0555 34.286 39.7462C34.0386 40.4042 33.894 41.0762 33.894 41.7622C33.894 42.9429 34.314 43.9975 35 44.7629C35.6579 45.4955 36.568 45.9529 37.5667 45.9529C38.0287 45.9529 38.4067 46.3309 38.4067 46.7929Z" fill="black"/>
</g>
<defs>
<clipPath id="clip0_365_359">
<rect width="56" height="56" fill="white"/>
</clipPath>
</defs>
</svg>
