<svg width="56" height="56" viewBox="0 0 56 56" fill="none" xmlns="http://www.w3.org/2000/svg">
<path d="M28.3357 7.21515L11.4213 22.2951C11.3595 22.3495 11.3099 22.4164 11.2757 22.4914C11.2416 22.5663 11.2238 22.6477 11.2233 22.73V45.5739C11.2236 45.6505 11.239 45.7264 11.2685 45.7971C11.2981 45.8678 11.3413 45.9319 11.3957 45.9859C11.4501 46.0399 11.5146 46.0826 11.5855 46.1117C11.6564 46.1408 11.7323 46.1555 11.809 46.1552H45.642C45.796 46.1547 45.9435 46.0933 46.0524 45.9844C46.1613 45.8755 46.2228 45.7279 46.2233 45.5739V22.73C46.2234 22.648 46.2062 22.5669 46.1728 22.4919C46.1394 22.417 46.0906 22.3499 46.0295 22.2951L29.1152 7.21515C29.0081 7.11905 28.8693 7.06592 28.7255 7.06592C28.5816 7.06592 28.4427 7.11905 28.3357 7.21515Z" fill="#E2F0FA"/>
<path d="M46.223 22.7301C46.2232 22.5641 46.1527 22.406 46.0293 22.2952L29.1149 7.21523C28.8932 7.01615 28.5572 7.01615 28.3355 7.21523L23.1081 11.8789C22.9846 11.9898 22.9141 12.1478 22.9143 12.3138V23.6733C22.9143 23.86 22.9275 24.0583 22.9573 24.2546C23.0748 25.2146 23.3895 26.2698 24.3266 27.0105C24.3376 27.0193 24.3493 27.0281 24.361 27.0363C25.9026 28.0776 28.9642 30.3046 28.9642 30.3046C29.0654 30.3785 29.1877 30.4177 29.313 30.4166C34.7591 30.4162 46.2233 30.4166 46.2233 30.4166L46.223 22.7301Z" fill="#2E3D50"/>
<path d="M46.223 22.7344L22.9143 22.7344V23.6732C22.9143 23.8599 22.9275 24.0582 22.9573 24.2545C23.0563 25.0637 23.2838 25.9314 23.9261 26.6358C24.0368 26.7566 24.193 26.8252 24.3568 26.8252C31.452 26.8247 46.223 26.8252 46.223 26.8252V22.7344Z" fill="#D06A3B"/>
<path d="M45.0563 30.4162V21.6919C45.0576 21.5246 44.9901 21.3645 44.8713 21.2527L41.5299 18.135C41.366 17.9838 41.1331 17.9468 40.9339 18.0402C40.7346 18.1339 40.6061 18.3413 40.6051 18.5702V30.429L45.0563 30.4162Z" fill="#FDA35D"/>
<path d="M22.9143 19.2165H41.0473C41.5796 19.2143 41.8298 18.5571 41.4348 18.2002L37.4947 14.6864C37.3878 14.5919 37.2499 14.5398 37.1072 14.54H22.9143V19.2165Z" fill="#D06A3B"/>
<path d="M33.7355 11.8014C33.6333 11.8472 33.5465 11.9216 33.4854 12.0155C33.4243 12.1095 33.3915 12.219 33.391 12.331V26.244C33.3913 26.3207 33.4067 26.3965 33.4363 26.4671C33.4658 26.5378 33.509 26.602 33.5634 26.656C33.6178 26.71 33.6823 26.7527 33.7532 26.7818C33.8241 26.8108 33.9 26.8256 33.9767 26.8254H37.4732C37.5498 26.8257 37.6258 26.8109 37.6967 26.7818C37.7676 26.7528 37.8321 26.71 37.8865 26.656C37.9409 26.602 37.9841 26.5378 38.0136 26.4671C38.0432 26.3965 38.0586 26.3207 38.0589 26.244V15.4529C38.0589 15.3709 38.0417 15.2898 38.0084 15.2148C37.975 15.1399 37.9261 15.0728 37.8651 15.018L34.3642 11.8961C34.2798 11.8212 34.1755 11.7724 34.0639 11.7555C33.9523 11.7387 33.8383 11.7547 33.7355 11.8014Z" fill="#FDA35D"/>
<path d="M26.975 18.0538C26.8209 18.0543 26.6734 18.1158 26.5645 18.2247C26.4556 18.3336 26.3942 18.4811 26.3936 18.6351V28.1516C26.3934 28.244 26.4152 28.3351 26.4571 28.4175C26.499 28.4998 26.5599 28.571 26.6348 28.6253L28.9687 30.3089C29.0681 30.3795 29.187 30.4171 29.3089 30.4165H30.4758C30.6298 30.416 30.7774 30.3545 30.8863 30.2456C30.9952 30.1367 31.0566 29.9892 31.0571 29.8352V26.2439V18.635C31.0566 18.481 30.9952 18.3335 30.8863 18.2246C30.7774 18.1157 30.6298 18.0543 30.4758 18.0537L26.975 18.0538Z" fill="#FDA35D"/>
<path d="M8.04963 37.8873L6.01284 38.7356C5.87015 38.7951 5.75689 38.9088 5.69796 39.0517C5.63902 39.1946 5.63922 39.3551 5.69849 39.4978L8.71276 46.7924C8.7542 46.8919 8.82238 46.9779 8.90977 47.041C8.99715 47.1041 9.10035 47.1418 9.20783 47.1498C9.31532 47.1579 9.42291 47.136 9.51871 47.0866C9.61451 47.0372 9.69476 46.9622 9.75054 46.8699L11.1715 44.536C11.2194 44.458 11.2483 44.3698 11.2558 44.2785C11.2632 44.1873 11.2491 44.0955 11.2145 44.0107L8.81604 38.2018C8.78662 38.1306 8.74338 38.066 8.68885 38.0116C8.63431 37.9572 8.56952 37.9141 8.49827 37.8849C8.42701 37.8557 8.35069 37.8409 8.27368 37.8413C8.19666 37.8417 8.12055 37.8573 8.04963 37.8873Z" fill="#FDA35D"/>
<path d="M7.61039 35.627L4.73391 36.8241C4.59123 36.8836 4.47797 36.9972 4.41903 37.1402C4.36009 37.2831 4.3603 37.4435 4.41957 37.5863L5.28509 39.6748C5.31413 39.7458 5.3569 39.8104 5.41095 39.8648C5.46499 39.9193 5.52925 39.9626 5.60005 39.9922C5.67085 40.0218 5.74679 40.0371 5.82353 40.0374C5.90026 40.0376 5.97632 40.0226 6.04727 39.9934L8.92375 38.7963C9.06644 38.7368 9.17969 38.6232 9.23863 38.4803C9.29757 38.3374 9.29737 38.1769 9.2381 38.0341L8.37688 35.9457C8.34786 35.8741 8.30495 35.809 8.25059 35.7542C8.19622 35.6994 8.13151 35.6559 8.06021 35.6262C7.98891 35.5966 7.91243 35.5814 7.83522 35.5815C7.758 35.5817 7.68158 35.5971 7.61039 35.627Z" fill="#4A6282"/>
<path d="M5.99995 31.7301L3.11917 32.9272V32.9316C1.93874 33.4256 1.36901 34.7952 1.86179 35.9803C2.10049 36.554 2.55784 37.0158 3.1407 37.2506V37.255C3.14655 37.2566 3.15246 37.2581 3.15836 37.2594L4.74301 37.901C4.88566 37.958 5.04501 37.9564 5.1865 37.8966L8.05867 36.7039C8.20083 36.6447 8.31383 36.5317 8.37302 36.3895L9.04049 34.8049C9.28868 34.2262 9.28868 33.5715 9.04931 32.992C8.55827 31.8112 7.18727 31.2383 6.00489 31.7303L5.99995 31.7301Z" fill="#4A6282"/>
<path d="M6.45206 32.8063C7.04912 32.5564 7.72097 32.8354 7.97211 33.4393C8.09492 33.7365 8.09095 34.0566 7.96771 34.3436V34.348L7.39069 35.7173L4.95771 36.7293L3.57975 36.1695H3.57535C3.28582 36.0533 3.05921 35.8233 2.93808 35.5322C2.68817 34.9312 2.96672 34.2589 3.56674 34.0078L6.45206 32.8063Z" fill="#E2F0FA"/>
<path d="M6.34871 33.6719L4.24733 34.5461C4.17629 34.5751 4.11167 34.6178 4.05719 34.6719C4.0027 34.7259 3.95942 34.7902 3.92982 34.861C3.90022 34.9318 3.8849 35.0078 3.88471 35.0845C3.88451 35.1613 3.89944 35.2373 3.92868 35.3083C3.98814 35.4509 4.10183 35.5642 4.24474 35.6231C4.38765 35.6821 4.54809 35.6819 4.69086 35.6226L6.79654 34.7528C6.93923 34.6933 7.05248 34.5796 7.11142 34.4367C7.17036 34.2938 7.17017 34.1334 7.11089 33.9906C7.08185 33.9195 7.03908 33.8549 6.98503 33.8004C6.93098 33.746 6.86674 33.7027 6.79593 33.6731C6.72513 33.6435 6.64916 33.6281 6.57242 33.6279C6.49568 33.6277 6.41966 33.6427 6.34871 33.6719Z" fill="#4A6282"/>
<path d="M29.1142 7.21426C28.8925 7.01517 28.5564 7.01517 28.3347 7.21426L26.3936 8.94645V15.1253C26.3947 15.4459 26.6543 15.7055 26.9749 15.7066H30.4758C30.7964 15.7055 31.056 15.4459 31.0571 15.1253V8.94645L29.1142 7.21426Z" fill="#FDA35D"/>
<path d="M27.8965 1.97484L5.11287 21.8389H5.10847C4.85089 22.0657 4.78152 22.4402 4.88455 22.7216C4.98707 23.002 5.28497 23.2451 5.6295 23.247L11.8001 23.3157C11.9464 23.3169 12.0879 23.2631 12.1963 23.165L28.7231 8.43379L45.2543 23.165C45.3617 23.2621 45.5013 23.3158 45.6461 23.3157L48.7336 23.2814L51.8125 23.247C52.1584 23.247 52.463 23.0033 52.566 22.7216C52.6692 22.44 52.5995 22.0656 52.3421 21.8389H52.3377L29.5412 1.97484V1.97928C29.0744 1.56823 28.363 1.56798 27.8963 1.97928L27.8965 1.97484Z" fill="#4A6282"/>
<path d="M15.9858 30.4854C14.9795 30.4854 14.1428 31.3017 14.1428 32.3068V45.5739C14.1433 45.7279 14.2047 45.8755 14.3136 45.9844C14.4225 46.0933 14.5701 46.1547 14.7241 46.1553H25.132C25.2086 46.1556 25.2845 46.1408 25.3554 46.1117C25.4263 46.0827 25.4908 46.0399 25.5452 45.9859C25.5996 45.9319 25.6428 45.8678 25.6724 45.7971C25.7019 45.7264 25.7173 45.6506 25.7176 45.5739V32.3068C25.7176 31.3017 24.8766 30.4854 23.8703 30.4854H15.9858Z" fill="#4A6282"/>
<path d="M15.9858 31.6523H23.8703C24.2583 31.6523 24.5506 31.9447 24.5506 32.3069V44.9883H15.3097V32.3069C15.3097 31.9447 15.5977 31.6523 15.9858 31.6523Z" fill="#C8DAE5"/>
<path d="M22.8928 36.7808C22.8161 36.7805 22.7402 36.7952 22.6693 36.8243C22.5984 36.8534 22.5339 36.8961 22.4795 36.9501C22.4251 37.0041 22.3819 37.0682 22.3523 37.1389C22.3227 37.2096 22.3074 37.2855 22.3071 37.3621V39.7046C22.3074 39.7812 22.3227 39.8571 22.3523 39.9278C22.3819 39.9985 22.4251 40.0626 22.4795 40.1166C22.5339 40.1706 22.5984 40.2133 22.6693 40.2424C22.7402 40.2715 22.8161 40.2862 22.8928 40.2859C23.0468 40.2854 23.1943 40.224 23.3032 40.1151C23.4121 40.0062 23.4736 39.8586 23.4741 39.7046V37.3621C23.4736 37.2081 23.4122 37.0605 23.3033 36.9516C23.1943 36.8427 23.0468 36.7813 22.8928 36.7808Z" fill="#4A6282"/>
<path d="M22.2727 37.978C22.1961 37.9783 22.1202 37.9937 22.0495 38.0232C21.9789 38.0528 21.9147 38.096 21.8607 38.1504C21.8067 38.2048 21.764 38.2693 21.7349 38.3402C21.7059 38.4111 21.6911 38.487 21.6914 38.5637C21.6919 38.7177 21.7533 38.8652 21.8622 38.9741C21.9711 39.0831 22.1187 39.1445 22.2727 39.145H22.8928C23.0468 39.1445 23.1943 39.0831 23.3032 38.9741C23.4121 38.8652 23.4736 38.7177 23.4741 38.5637C23.4744 38.487 23.4596 38.4111 23.4305 38.3402C23.4015 38.2693 23.3588 38.2048 23.3048 38.1504C23.2508 38.096 23.1866 38.0528 23.1159 38.0232C23.0452 37.9937 22.9694 37.9783 22.8928 37.978H22.2727Z" fill="#4A6282"/>
<path d="M40.3928 25.6582C40.3158 25.6579 40.2395 25.6728 40.1683 25.7021C40.0971 25.7315 40.0324 25.7746 39.978 25.829C39.9235 25.8835 39.8804 25.9482 39.8511 26.0194C39.8217 26.0906 39.8068 26.1668 39.8071 26.2438V28.5821C39.8068 28.659 39.8217 28.7353 39.8511 28.8065C39.8804 28.8777 39.9235 28.9424 39.978 28.9968C40.0324 29.0513 40.0971 29.0944 40.1683 29.1237C40.2395 29.1531 40.3158 29.168 40.3928 29.1677C40.4694 29.1674 40.5452 29.152 40.6159 29.1225C40.6866 29.0929 40.7508 29.0497 40.8048 28.9953C40.8588 28.9409 40.9015 28.8764 40.9305 28.8055C40.9596 28.7346 40.9744 28.6587 40.9741 28.5821V26.2438C40.9744 26.1672 40.9596 26.0913 40.9305 26.0204C40.9015 25.9495 40.8588 25.885 40.8048 25.8306C40.7508 25.7762 40.6866 25.733 40.6159 25.7034C40.5452 25.6738 40.4694 25.6585 40.3928 25.6582Z" fill="black"/>
<path d="M29.3089 28.001C29.2322 28.0007 29.1563 28.0155 29.0854 28.0445C29.0145 28.0736 28.95 28.1163 28.8956 28.1703C28.8412 28.2243 28.798 28.2884 28.7684 28.3591C28.7389 28.4298 28.7235 28.5057 28.7232 28.5823C28.7229 28.6593 28.7379 28.7356 28.7672 28.8068C28.7965 28.878 28.8396 28.9427 28.8941 28.9971C28.9485 29.0515 29.0132 29.0947 29.0844 29.124C29.1556 29.1533 29.2319 29.1682 29.3089 29.1679H31.6428C31.7194 29.1677 31.7952 29.1523 31.8659 29.1227C31.9366 29.0931 32.0008 29.0499 32.0548 28.9956C32.1088 28.9412 32.1515 28.8767 32.1805 28.8058C32.2096 28.7348 32.2244 28.6589 32.2241 28.5823C32.2236 28.4283 32.1621 28.2807 32.0532 28.1718C31.9443 28.0629 31.7968 28.0015 31.6428 28.001H29.3089Z" fill="black"/>
<path d="M29.3089 25.6582C29.2319 25.6579 29.1556 25.6728 29.0844 25.7021C29.0132 25.7315 28.9485 25.7746 28.8941 25.829C28.8396 25.8835 28.7965 25.9482 28.7672 26.0194C28.7379 26.0906 28.7229 26.1668 28.7232 26.2438V42.0429C28.7229 42.1199 28.7379 42.1962 28.7672 42.2674C28.7965 42.3386 28.8396 42.4033 28.8941 42.4577C28.9485 42.5122 29.0132 42.5552 29.0844 42.5846C29.1556 42.6139 29.2319 42.6289 29.3089 42.6286H42.7267C42.8033 42.6283 42.8791 42.6129 42.9498 42.5833C43.0205 42.5538 43.0847 42.5106 43.1386 42.4562C43.1926 42.4018 43.2354 42.3373 43.2644 42.2664C43.2935 42.1955 43.3083 42.1196 43.308 42.0429V26.2438C43.3083 26.1672 43.2935 26.0913 43.2644 26.0204C43.2354 25.9495 43.1926 25.885 43.1386 25.8306C43.0847 25.7762 43.0205 25.733 42.9498 25.7034C42.8791 25.6738 42.8033 25.6585 42.7267 25.6582H29.3089Z" fill="#4A6282"/>
<path fill-rule="evenodd" clip-rule="evenodd" d="M31.6415 42.0442V28.584H40.3915V42.0442H31.6415Z" fill="#7CB3F4"/>
<path fill-rule="evenodd" clip-rule="evenodd" d="M28.7232 39.1191V42.043C28.722 42.3669 28.9849 42.6299 29.3089 42.6286H40.3928C40.715 42.6275 40.9753 42.3652 40.9741 42.043V39.7048C40.9753 39.3825 40.715 39.1203 40.3928 39.1191H28.7232Z" fill="#4A6282"/>
<path fill-rule="evenodd" clip-rule="evenodd" d="M29.3089 28.001C28.9866 27.9997 28.7244 28.26 28.7232 28.5823V42.0432C28.722 42.3671 28.9849 42.6301 29.3089 42.6288H32.2241V28.5823C32.2229 28.2617 31.9634 28.0021 31.6428 28.001H29.3089Z" fill="#4A6282"/>
<path fill-rule="evenodd" clip-rule="evenodd" d="M29.3089 25.6582C28.9849 25.657 28.722 25.9199 28.7232 26.2438V29.1677H40.3928C40.715 29.1665 40.9753 28.9043 40.9741 28.5821V26.2438C40.9753 25.9216 40.715 25.6594 40.3928 25.6582H29.3089Z" fill="#4A6282"/>
<path fill-rule="evenodd" clip-rule="evenodd" d="M39.8071 25.6582V42.043C39.8059 42.367 40.0688 42.6299 40.3928 42.6286H42.7267C43.049 42.6275 43.3092 42.3653 43.308 42.043V26.2439C43.3092 25.9216 43.049 25.6594 42.7267 25.6583C41.7535 25.6583 40.7803 25.6583 39.8071 25.6582Z" fill="#4A6282"/>
<path d="M47.3162 33.2671C47.2392 33.2668 47.1629 33.2817 47.0918 33.311C47.0206 33.3404 46.9559 33.3835 46.9014 33.4379C46.847 33.4924 46.8039 33.5571 46.7745 33.6283C46.7452 33.6995 46.7303 33.7757 46.7306 33.8527C46.7309 33.9294 46.7462 34.0051 46.7758 34.0758C46.8054 34.1465 46.8486 34.2107 46.903 34.2647C46.9574 34.3187 47.0219 34.3615 47.0928 34.3905C47.1637 34.4196 47.2396 34.4343 47.3162 34.434H47.8976C47.9742 34.4343 48.0501 34.4196 48.121 34.3905C48.192 34.3615 48.2564 34.3187 48.3108 34.2647C48.3652 34.2107 48.4084 34.1465 48.438 34.0758C48.4676 34.0051 48.4829 33.9294 48.4832 33.8527C48.4835 33.7757 48.4685 33.6995 48.4392 33.6283C48.4099 33.5571 48.3668 33.4924 48.3123 33.4379C48.2579 33.3835 48.1932 33.3404 48.122 33.311C48.0508 33.2817 47.9746 33.2668 47.8976 33.2671H47.3162Z" fill="#2E3D50"/>
<path d="M39.1476 33.2671C39.0709 33.2674 38.9951 33.2827 38.9244 33.3123C38.8537 33.3419 38.7895 33.3851 38.7355 33.4395C38.6816 33.4939 38.6388 33.5583 38.6098 33.6292C38.5807 33.7001 38.5659 33.7761 38.5662 33.8527C38.5668 34.0067 38.6282 34.1543 38.7371 34.2632C38.846 34.3721 38.9935 34.4335 39.1476 34.434H39.7332C39.8872 34.4335 40.0347 34.3721 40.1436 34.2632C40.2525 34.1543 40.314 34.0067 40.3145 33.8527C40.3148 33.7761 40.3 33.7002 40.2709 33.6293C40.2419 33.5584 40.1991 33.4939 40.1452 33.4395C40.0912 33.3851 40.027 33.3419 39.9563 33.3123C39.8856 33.2827 39.8098 33.2674 39.7332 33.2671H39.1476Z" fill="#2E3D50"/>
<path d="M39.7332 32.6816C39.6532 32.6817 39.574 32.6982 39.5007 32.7302C39.4273 32.7622 39.3613 32.8089 39.3068 32.8675C39.2523 32.926 39.2104 32.9952 39.1837 33.0707C39.1571 33.1461 39.1462 33.2262 39.1518 33.306L39.7332 41.5005C39.7435 41.6477 39.8092 41.7855 39.9171 41.8862C40.0249 41.9869 40.1669 42.0429 40.3145 42.0431H46.7306C46.8781 42.0429 47.0201 41.9869 47.128 41.8862C47.2359 41.7855 47.3016 41.6477 47.3119 41.5005L47.8975 33.306C47.9032 33.2262 47.8923 33.1461 47.8656 33.0707C47.839 32.9952 47.7971 32.926 47.7426 32.8675C47.688 32.8089 47.6221 32.7622 47.5487 32.7302C47.4754 32.6982 47.3962 32.6817 47.3162 32.6816H39.7332Z" fill="#C8DAE5"/>
<path d="M41.4813 32.6821V35.02C41.4809 35.097 41.4959 35.1733 41.5252 35.2445C41.5545 35.3156 41.5976 35.3804 41.6521 35.4348C41.7065 35.4892 41.7712 35.5324 41.8424 35.5617C41.9136 35.591 41.9899 35.6059 42.0668 35.6056C42.1435 35.6053 42.2193 35.5899 42.2899 35.5604C42.3606 35.5308 42.4247 35.4876 42.4787 35.4332C42.5326 35.3788 42.5753 35.3143 42.6044 35.2435C42.6334 35.1726 42.6482 35.0966 42.6479 35.02V32.6821H41.4813ZM43.8157 32.6821V37.9481C43.8163 38.1028 43.8784 38.251 43.9882 38.3599C44.098 38.4689 44.2466 38.5297 44.4013 38.5291C44.5552 38.5285 44.7027 38.4672 44.8115 38.3583C44.9204 38.2495 44.9818 38.102 44.9824 37.9481V32.6821H43.8157Z" fill="#4895EF"/>
<path d="M22.8196 44.9883C22.7426 44.988 22.6663 45.003 22.5951 45.0323C22.5239 45.0616 22.4592 45.1047 22.4048 45.1591C22.3504 45.2136 22.3072 45.2783 22.2779 45.3495C22.2486 45.4206 22.2336 45.4969 22.2339 45.5739V49.6518C22.2342 49.7284 22.2496 49.8043 22.2792 49.875C22.3087 49.9457 22.3519 50.0098 22.4063 50.0638C22.4607 50.1177 22.5252 50.1605 22.5961 50.1896C22.667 50.2186 22.7429 50.2334 22.8196 50.2331H29.8902C29.9668 50.2334 30.0428 50.2186 30.1137 50.1896C30.1846 50.1605 30.249 50.1177 30.3034 50.0638C30.3578 50.0098 30.401 49.9456 30.4306 49.8749C30.4602 49.8042 30.4755 49.7284 30.4758 49.6518V45.5739C30.4761 45.4969 30.4612 45.4206 30.4318 45.3495C30.4025 45.2783 30.3594 45.2136 30.305 45.1592C30.2505 45.1047 30.1858 45.0616 30.1146 45.0323C30.0435 45.003 29.9672 44.988 29.8902 44.9883H22.8196Z" fill="#A21538"/>
<path d="M23.4009 46.1553H29.3089V49.0705H23.4009V46.1553Z" fill="#F0517A"/>
<path d="M46.2232 44.9712C46.1466 44.9715 46.0708 44.9868 46.0001 45.0164C45.9294 45.046 45.8652 45.0892 45.8112 45.1436C45.7573 45.198 45.7145 45.2625 45.6855 45.3334C45.6564 45.4043 45.6416 45.4802 45.6419 45.5568V49.6519C45.6424 49.8059 45.7039 49.9535 45.8128 50.0624C45.9217 50.1713 46.0692 50.2327 46.2232 50.2332H53.7331C53.8871 50.2327 54.0346 50.1713 54.1435 50.0624C54.2524 49.9535 54.3138 49.8059 54.3144 49.6519V45.5568C54.3147 45.4802 54.2999 45.4043 54.2708 45.3334C54.2418 45.2625 54.199 45.198 54.145 45.1436C54.0911 45.0892 54.0269 45.046 53.9562 45.0164C53.8855 44.9868 53.8097 44.9715 53.7331 44.9712H46.2232Z" fill="#A21538"/>
<path d="M42.1411 49.0703C41.9871 49.0709 41.8395 49.1323 41.7306 49.2412C41.6217 49.3501 41.5603 49.4976 41.5597 49.6516V53.7467C41.5594 53.8234 41.5743 53.8993 41.6033 53.9702C41.6324 54.0411 41.6751 54.1056 41.7291 54.16C41.7831 54.2144 41.8472 54.2576 41.9179 54.2872C41.9886 54.3167 42.0644 54.3321 42.1411 54.3324H50.3097C50.3864 54.3321 50.4622 54.3167 50.5329 54.2872C50.6036 54.2576 50.6677 54.2144 50.7217 54.16C50.7757 54.1056 50.8184 54.0411 50.8475 53.9702C50.8766 53.8993 50.8914 53.8234 50.8911 53.7467V49.6516C50.8905 49.4976 50.8291 49.3501 50.7202 49.2412C50.6113 49.1323 50.4638 49.0709 50.3097 49.0703H42.1411Z" fill="#A21538"/>
<path d="M38.0589 44.9712C37.9819 44.9709 37.9056 44.9859 37.8344 45.0152C37.7632 45.0445 37.6985 45.0876 37.6441 45.142C37.5897 45.1965 37.5465 45.2612 37.5172 45.3324C37.4879 45.4036 37.4729 45.4798 37.4732 45.5568V49.6519C37.4735 49.7286 37.4889 49.8044 37.5185 49.8751C37.548 49.9458 37.5913 50.0099 37.6457 50.0639C37.7 50.1179 37.7645 50.1607 37.8354 50.1897C37.9063 50.2188 37.9822 50.2335 38.0589 50.2333H46.2232C46.2999 50.2335 46.3758 50.2188 46.4467 50.1897C46.5176 50.1607 46.5821 50.1179 46.6365 50.0639C46.6909 50.0099 46.7341 49.9458 46.7637 49.8751C46.7932 49.8044 46.8086 49.7286 46.8089 49.6519V45.5568C46.8092 45.4798 46.7942 45.4036 46.7649 45.3324C46.7356 45.2612 46.6924 45.1965 46.638 45.142C46.5836 45.0876 46.5189 45.0445 46.4477 45.0152C46.3765 44.9859 46.3002 44.9709 46.2232 44.9712H38.0589Z" fill="#A21538"/>
<path d="M33.9767 49.0703C33.9 49.07 33.8241 49.0848 33.7532 49.1138C33.6823 49.1429 33.6178 49.1857 33.5634 49.2397C33.509 49.2937 33.4658 49.3578 33.4363 49.4285C33.4067 49.4992 33.3913 49.575 33.391 49.6516V53.7467C33.3907 53.8237 33.4057 53.9 33.435 53.9712C33.4643 54.0424 33.5075 54.107 33.5619 54.1615C33.6163 54.2159 33.681 54.259 33.7522 54.2884C33.8234 54.3177 33.8997 54.3327 33.9767 54.3324H42.141C42.218 54.3327 42.2943 54.3177 42.3655 54.2884C42.4367 54.259 42.5014 54.2159 42.5558 54.1615C42.6102 54.107 42.6534 54.0424 42.6827 53.9712C42.712 53.9 42.727 53.8237 42.7267 53.7467V49.6516C42.7264 49.575 42.711 49.4992 42.6815 49.4285C42.6519 49.3578 42.6087 49.2937 42.5543 49.2397C42.4999 49.1857 42.4354 49.1429 42.3645 49.1138C42.2936 49.0848 42.2177 49.07 42.141 49.0703H33.9767Z" fill="#A21538"/>
<path d="M29.8902 44.9712C29.8135 44.9715 29.7377 44.9868 29.667 45.0164C29.5963 45.046 29.5322 45.0892 29.4782 45.1436C29.4242 45.198 29.3815 45.2625 29.3524 45.3334C29.3234 45.4043 29.3085 45.4802 29.3088 45.5568V49.6519C29.3094 49.8059 29.3708 49.9535 29.4797 50.0624C29.5886 50.1713 29.7362 50.2327 29.8902 50.2332H38.0588C38.2128 50.2327 38.3604 50.1713 38.4693 50.0624C38.5782 49.9535 38.6396 49.8059 38.6402 49.6519V45.5568C38.6405 45.4802 38.6257 45.4043 38.5966 45.3334C38.5675 45.2625 38.5248 45.198 38.4708 45.1436C38.4168 45.0892 38.3527 45.046 38.282 45.0164C38.2113 44.9868 38.1355 44.9715 38.0588 44.9712H29.8902Z" fill="#A21538"/>
<path d="M25.808 49.0703C25.654 49.0709 25.5065 49.1322 25.3976 49.2411C25.2886 49.35 25.2272 49.4976 25.2267 49.6516V53.7467C25.2264 53.8234 25.2412 53.8993 25.2703 53.9702C25.2993 54.0411 25.3421 54.1056 25.396 54.16C25.45 54.2144 25.5142 54.2576 25.5849 54.2872C25.6556 54.3167 25.7314 54.3321 25.808 54.3324H33.9767C34.0533 54.3321 34.1291 54.3167 34.1998 54.2872C34.2705 54.2576 34.3347 54.2144 34.3887 54.16C34.4426 54.1056 34.4854 54.0411 34.5144 53.9702C34.5435 53.8993 34.5583 53.8234 34.558 53.7467V49.6516C34.5575 49.4976 34.4961 49.35 34.3871 49.2411C34.2782 49.1322 34.1307 49.0709 33.9767 49.0703H25.808Z" fill="#A21538"/>
<path d="M42.1411 40.876C41.9871 40.8765 41.8395 40.938 41.7306 41.0469C41.6217 41.1558 41.5603 41.3033 41.5597 41.4573V45.5567C41.5603 45.7107 41.6217 45.8582 41.7306 45.9671C41.8395 46.076 41.9871 46.1375 42.1411 46.138H50.3097C50.4637 46.1375 50.6113 46.076 50.7202 45.9671C50.8291 45.8582 50.8905 45.7107 50.8911 45.5567V41.4573C50.8905 41.3033 50.8291 41.1558 50.7202 41.0469C50.6113 40.938 50.4637 40.8765 50.3097 40.876H42.1411Z" fill="#A21538"/>
<path d="M33.9767 40.876C33.9 40.8757 33.8241 40.8905 33.7532 40.9196C33.6823 40.9486 33.6178 40.9913 33.5634 41.0453C33.509 41.0993 33.4658 41.1635 33.4363 41.2342C33.4067 41.3049 33.3913 41.3807 33.391 41.4573V45.5567C33.3913 45.6333 33.4067 45.7091 33.4363 45.7798C33.4658 45.8505 33.509 45.9147 33.5634 45.9687C33.6178 46.0227 33.6823 46.0654 33.7532 46.0945C33.8241 46.1236 33.9 46.1383 33.9767 46.138H42.141C42.2177 46.1383 42.2936 46.1236 42.3645 46.0945C42.4354 46.0654 42.4999 46.0227 42.5543 45.9687C42.6087 45.9147 42.6519 45.8505 42.6815 45.7798C42.711 45.7091 42.7264 45.6333 42.7267 45.5567V41.4573C42.7264 41.3807 42.711 41.3049 42.6815 41.2342C42.6519 41.1635 42.6086 41.0993 42.5543 41.0453C42.4999 40.9913 42.4354 40.9486 42.3645 40.9196C42.2936 40.8905 42.2177 40.8757 42.141 40.876H33.9767Z" fill="#A21538"/>
<path d="M34.558 50.2334H41.5597V53.1659H34.558V50.2334Z" fill="#F0517A"/>
<path d="M42.7267 42.043H49.7241V44.9711H42.7267V42.043Z" fill="#F0517A"/>
<path d="M46.8088 46.1382H53.1517V49.0706H46.8088V46.1382Z" fill="#DC1C4B"/>
<path d="M42.7267 50.2334H49.7241V53.1659H42.7267V50.2334Z" fill="#DC1C4B"/>
<path d="M30.4758 46.1382H37.4732V49.0706H30.4758V46.1382Z" fill="#DC1C4B"/>
<path d="M34.558 42.043H41.5597V44.9711H34.558V42.043Z" fill="#DC1C4B"/>
<path d="M38.6402 46.1382H45.6419V49.0706H38.6402V46.1382Z" fill="#DC1C4B"/>
<path d="M16.5844 40.0166C15.9974 40.0166 15.4179 40.0852 14.8572 40.2332C14.1691 40.3952 13.5126 40.6666 12.9112 41.025C11.8267 41.6731 10.8979 42.6007 10.2668 43.7594C10.1392 43.9943 10.0081 44.23 9.87149 44.4567C9.86999 44.4589 9.86928 44.4633 9.86708 44.4655C8.52109 46.8111 6.87567 48.978 4.99193 50.9164L2.64151 53.3408L2.64591 53.3452C2.53778 53.4527 2.47604 53.5984 2.47394 53.7508C2.47424 53.8275 2.48963 53.9032 2.51922 53.9739C2.54881 54.0445 2.59204 54.1087 2.64642 54.1626C2.7008 54.2166 2.76527 54.2593 2.83616 54.2884C2.90704 54.3174 2.98296 54.3322 3.05957 54.3319H30.1105C30.2646 54.3316 30.4123 54.2703 30.5214 54.1614C30.6305 54.0525 30.6921 53.905 30.6927 53.7508C30.6929 53.6164 30.6466 53.4859 30.5617 53.3817L29.2458 51.7616C29.2326 51.7461 29.2207 51.732 29.207 51.7184L26.3131 48.829L26.2999 48.8114C25.7157 48.0964 25.161 47.3573 24.6342 46.5942L24.6298 46.5899C24.0076 45.6747 23.4281 44.733 22.8981 43.7609C21.6332 41.4553 19.2129 40.0182 16.5862 40.0182L16.5844 40.0166Z" fill="#FEC872"/>
<path d="M11.2232 49.0703C11.0686 49.0693 10.9199 49.1298 10.8099 49.2383L10.7366 49.3115C10.6825 49.366 10.6397 49.4306 10.6106 49.5017C10.5815 49.5728 10.5667 49.649 10.5671 49.7259C10.5675 49.8027 10.5831 49.8787 10.6129 49.9494C10.6428 50.0202 10.6863 50.0844 10.7411 50.1383C10.8503 50.2469 10.9982 50.3079 11.1523 50.3079C11.3064 50.3079 11.4542 50.2469 11.5635 50.1383L11.6367 50.0651C11.6912 50.0109 11.7344 49.9465 11.7639 49.8756C11.7933 49.8046 11.8085 49.7285 11.8085 49.6517C11.8085 49.5749 11.7933 49.4988 11.7639 49.4279C11.7344 49.3569 11.6912 49.2925 11.6367 49.2383C11.5266 49.1298 11.3779 49.0693 11.2232 49.0703Z" fill="#F29602"/>
<path d="M12.3213 46.7276C12.1667 46.7266 12.018 46.787 11.9079 46.8956C11.8532 46.9495 11.8096 47.0136 11.7798 47.0844C11.7499 47.1552 11.7344 47.2312 11.7339 47.3081C11.7335 47.3849 11.7483 47.461 11.7774 47.5321C11.8065 47.6032 11.8493 47.6678 11.9035 47.7223L11.9767 47.7955C12.0309 47.85 12.0953 47.8932 12.1663 47.9226C12.2372 47.9521 12.3133 47.9673 12.3901 47.9673C12.4669 47.9673 12.543 47.9521 12.6139 47.9226C12.6848 47.8932 12.7493 47.85 12.8035 47.7955C12.9121 47.6862 12.9731 47.5384 12.9731 47.3843C12.9731 47.2302 12.9121 47.0824 12.8035 46.9731L12.7303 46.8999C12.6219 46.7908 12.475 46.7288 12.3213 46.7276Z" fill="#F29602"/>
<path d="M19.3187 50.2373C19.2418 50.2374 19.1658 50.2526 19.0948 50.2822C19.0239 50.3117 18.9595 50.355 18.9053 50.4095C18.7967 50.5188 18.7357 50.6666 18.7357 50.8207C18.7357 50.9748 18.7967 51.1227 18.9053 51.2319L18.9785 51.3052C19.0324 51.3599 19.0966 51.4034 19.1674 51.4333C19.2382 51.4631 19.3142 51.4787 19.391 51.4791C19.4678 51.4796 19.5439 51.4648 19.615 51.4357C19.6861 51.4066 19.7508 51.3637 19.8053 51.3096C19.8597 51.2554 19.9029 51.1909 19.9324 51.12C19.9619 51.049 19.9771 50.973 19.9771 50.8962C19.9771 50.8194 19.9619 50.7433 19.9324 50.6724C19.9029 50.6014 19.8597 50.537 19.8053 50.4828L19.7321 50.4096C19.6779 50.3551 19.6135 50.3118 19.5426 50.2822C19.4716 50.2527 19.3955 50.2374 19.3187 50.2373Z" fill="#F29602"/>
<path d="M14.6509 50.2373C14.4972 50.2386 14.3502 50.3004 14.2418 50.4095C14.1326 50.5182 14.0708 50.6657 14.07 50.8198C14.0692 50.9739 14.1294 51.1221 14.2374 51.2319L14.3106 51.3052C14.3645 51.3599 14.4287 51.4034 14.4995 51.4333C14.5703 51.4631 14.6462 51.4787 14.7231 51.4791C14.7999 51.4796 14.8761 51.4648 14.9471 51.4357C15.0182 51.4066 15.0829 51.3637 15.1374 51.3096C15.1918 51.2554 15.235 51.1909 15.2645 51.12C15.294 51.049 15.3091 50.973 15.3091 50.8962C15.3091 50.8194 15.294 50.7433 15.2645 50.6724C15.235 50.6014 15.1918 50.537 15.1374 50.4828L15.0642 50.4096C15.01 50.3551 14.9456 50.3118 14.8747 50.2822C14.8037 50.2527 14.7278 50.2374 14.6509 50.2373Z" fill="#F29602"/>
<path d="M18.1517 43.2139C18.0749 43.2139 17.9988 43.2292 17.9279 43.2587C17.8569 43.2883 17.7925 43.3315 17.7384 43.386C17.6839 43.4402 17.6407 43.5047 17.6113 43.5756C17.5818 43.6466 17.5666 43.7226 17.5666 43.7994C17.5666 43.8763 17.5818 43.9523 17.6113 44.0233C17.6407 44.0942 17.6839 44.1586 17.7384 44.2128L17.8116 44.286C17.8658 44.3405 17.9302 44.3837 18.0011 44.4132C18.0721 44.4427 18.1481 44.4578 18.225 44.4578C18.3018 44.4578 18.3778 44.4427 18.4488 44.4132C18.5197 44.3837 18.5841 44.3405 18.6383 44.286C18.6928 44.2318 18.736 44.1674 18.7654 44.0965C18.7949 44.0255 18.8101 43.9495 18.8101 43.8726C18.8101 43.7958 18.7949 43.7198 18.7654 43.6489C18.736 43.5779 18.6928 43.5134 18.6383 43.4592L18.5651 43.386C18.511 43.3315 18.4466 43.2883 18.3756 43.2587C18.3047 43.2292 18.2286 43.2139 18.1517 43.2139Z" fill="#F29602"/>
<path d="M20.4856 46.7276C20.331 46.7266 20.1823 46.787 20.0723 46.8956C20.0178 46.9498 19.9746 47.0142 19.9451 47.0851C19.9156 47.156 19.9005 47.2321 19.9005 47.3089C19.9005 47.3858 19.9156 47.4619 19.9451 47.5328C19.9746 47.6037 20.0178 47.6681 20.0723 47.7223L20.1455 47.7955C20.2548 47.9042 20.4026 47.9652 20.5567 47.9652C20.7108 47.9652 20.8586 47.9042 20.9679 47.7955C21.0771 47.6868 21.1389 47.5393 21.1397 47.3852C21.1406 47.2311 21.0804 47.0829 20.9723 46.9731L20.8991 46.8999C20.8449 46.8453 20.7805 46.802 20.7096 46.7725C20.6386 46.7429 20.5625 46.7276 20.4856 46.7276Z" fill="#F29602"/>
<path d="M22.8196 49.0703C22.6649 49.0693 22.5163 49.1298 22.4062 49.2383C22.3517 49.2925 22.3086 49.3569 22.2791 49.4279C22.2496 49.4988 22.2344 49.5749 22.2344 49.6517C22.2344 49.7285 22.2496 49.8046 22.2791 49.8756C22.3086 49.9465 22.3517 50.0109 22.4062 50.0651L22.4794 50.1383C22.5887 50.2469 22.7365 50.3079 22.8906 50.3079C23.0447 50.3079 23.1926 50.2469 23.3018 50.1383C23.3566 50.0844 23.4001 50.0202 23.43 49.9494C23.4598 49.8787 23.4754 49.8027 23.4758 49.7259C23.4762 49.649 23.4615 49.5728 23.4324 49.5017C23.4033 49.4306 23.3604 49.366 23.3063 49.3115L23.233 49.2383C23.123 49.1298 22.9742 49.0693 22.8196 49.0703Z" fill="#F29602"/>
<path d="M16.9848 45.5562C16.9079 45.5562 16.8318 45.5715 16.7609 45.601C16.69 45.6306 16.6256 45.6738 16.5714 45.7283C16.4628 45.8376 16.4018 45.9855 16.4018 46.1396C16.4018 46.2937 16.4628 46.4415 16.5714 46.5508L16.6446 46.624C16.6985 46.6787 16.7627 46.7223 16.8335 46.7522C16.9042 46.782 16.9802 46.7976 17.057 46.798C17.1339 46.7984 17.21 46.7836 17.2811 46.7545C17.3522 46.7254 17.4169 46.6826 17.4714 46.6284C17.5258 46.5742 17.569 46.5098 17.5985 46.4389C17.6279 46.368 17.6431 46.2919 17.6431 46.2151C17.6431 46.1382 17.6279 46.0621 17.5985 45.9912C17.569 45.9203 17.5258 45.8559 17.4714 45.8017L17.3982 45.7285C17.344 45.6739 17.2796 45.6306 17.2087 45.6011C17.1377 45.5715 17.0616 45.5562 16.9848 45.5562Z" fill="#F29602"/>
<path d="M26.3893 50.2334H33.3911V53.1659H26.3893V50.2334Z" fill="#DC1C4B"/>
<path d="M27.8976 1.97705L5.11397 21.8389H5.10956C4.85199 22.0657 4.78212 22.4393 4.88514 22.7207C4.98766 23.0011 5.2857 23.3135 5.63023 23.3154H11.2243V42.4105C11.0682 42.5842 10.9196 42.7662 10.78 42.9562L9.03683 38.7339C9.25488 38.5799 9.34506 38.2911 9.23854 38.0343L8.46839 36.1659L9.04144 34.8044C9.28963 34.2257 9.28878 33.5712 9.05025 32.9917C8.55922 31.8109 7.18837 31.2384 6.00597 31.7305L3.12008 32.9313C1.93965 33.4253 1.37062 34.795 1.8634 35.9801C2.10211 36.5538 2.55918 37.0158 3.15086 37.255L4.51236 37.8065L5.28595 39.675C5.39067 39.9312 5.65749 40.0717 5.91941 40.0293L8.59455 46.5018C7.52634 48.0738 6.31896 49.549 4.99313 50.9132L2.64271 53.3423C2.28279 53.7119 2.54394 54.3321 3.05969 54.3324H50.3109C50.633 54.3312 50.8931 54.0689 50.8919 53.7467V50.2331H53.7345C54.0549 50.2319 54.3143 49.9724 54.3156 49.652V45.5561C54.3167 45.234 54.0567 44.9718 53.7345 44.9705H50.8919V41.4569C50.8907 41.1365 50.6312 40.8771 50.3109 40.8758H47.3589L47.8192 34.4341H47.9001C48.2223 34.4352 48.4846 34.1753 48.4857 33.853C48.4868 33.5295 48.2246 33.2668 47.9012 33.2674C47.9024 32.9444 47.6409 32.6818 47.3179 32.6818H46.2252V23.3154H51.8148C52.1607 23.3154 52.4659 23.0024 52.569 22.7207C52.6722 22.439 52.6019 22.0656 52.3423 21.8389L29.5421 1.97705C29.3087 1.77263 29.0152 1.66946 28.7207 1.66943C28.4262 1.6694 28.1316 1.77251 27.8976 1.97705ZM28.142 3.30664V7.38884L11.5877 22.1465L6.59968 22.0884L28.142 3.30664ZM29.3087 3.31701L50.8533 22.0885C49.1896 22.1097 47.5256 22.1269 45.8619 22.1455L29.3087 7.38897V3.31701ZM28.7242 8.4337L29.8908 9.47391V14.5393H27.5564V9.47504L28.7242 8.4337ZM26.3943 10.5107V14.5393H24.0814V12.5716L26.3943 10.5107ZM31.0575 10.5142L33.3908 12.5946V14.5394H31.0575V10.5142ZM22.9148 13.612V23.6734C22.9148 24.9533 23.5214 26.4066 24.3447 27.023C25.7161 27.9504 28.1334 29.7009 28.7231 30.1288V42.0427C28.7219 42.3666 28.9847 42.6295 29.3087 42.6283H33.3908V44.9708C30.8245 44.969 28.2824 44.9891 25.7175 44.9891V32.3072C25.7175 31.3021 24.877 30.4855 23.8707 30.4855H15.9865C14.9802 30.4855 14.1431 31.3021 14.1431 32.3072V40.4625C13.4705 40.7004 12.9323 41.0038 12.3908 41.3649V22.9933L22.9148 13.612ZM34.5587 13.6349L36.892 15.7153V25.6581H34.5587V13.6349ZM24.0814 15.7073H33.3908V18.0543H24.0814V15.7073ZM38.0587 16.7555L40.4421 18.8803L40.417 22.7346H38.0586L38.0587 16.7555ZM24.0814 19.2164H26.3943V22.7346H24.0814V19.2164ZM27.5564 19.2164H29.8908V25.6581H29.3087C28.9847 25.657 28.7218 25.9198 28.7231 26.2437V28.6887C28.376 28.4384 28.0062 28.1727 27.5564 27.8513V19.2164ZM31.0575 19.2164H33.3908V22.7346H31.0575V19.2164ZM41.5598 19.8761L45.0564 22.9933V29.1718H43.3087V26.2437C43.3098 25.9211 43.0491 25.6588 42.7265 25.6581H41.5598V19.8761ZM26.3943 23.9013V27.0265C25.906 26.6824 25.436 26.3548 25.0499 26.0934C24.4784 25.3933 24.1234 24.6814 24.0905 23.9013H26.3943ZM31.0575 23.9013H33.3908V25.6581H31.0575V23.9013ZM38.0587 23.9013H40.4091L40.3959 25.6581H38.058L38.0587 23.9013ZM29.8908 26.8248H39.8075V28.0006H29.8908V26.8248ZM32.2242 41.4618V29.1685H39.8075V30.9253C39.8087 31.2476 40.0708 31.5077 40.3931 31.5064C40.7137 31.5052 40.9731 31.2459 40.9742 30.9253V26.8248H42.1408V30.9252C42.142 31.2474 42.4043 31.5075 42.7265 31.5063C43.0473 31.5057 43.3074 31.2461 43.3087 30.9252V30.3396H45.0564V32.682H39.7346C39.4124 32.6832 39.1523 32.9455 39.1535 33.2677H39.1491C38.8268 33.2688 38.5657 33.531 38.567 33.8533C38.5681 34.1739 38.8285 34.4332 39.1491 34.4343H39.2325L39.6905 40.8761H33.9768C33.6546 40.8749 33.3925 41.1396 33.3912 41.4618H32.2242ZM29.8908 29.1684H31.0575V41.4617H29.8908V29.1684ZM23.8707 31.6521C24.2587 31.6521 24.5508 31.945 24.5508 32.3072V44.9889H23.6029C23.3592 44.5847 23.1227 44.1756 22.8966 43.7607C21.6317 41.4551 19.2112 40.0146 16.5847 40.0146C16.1593 40.0164 15.7331 40.0603 15.3098 40.1411V32.3071C15.3098 31.9449 15.5985 31.652 15.9865 31.652L23.8707 31.6521ZM6.90615 32.7151C7.35876 32.7163 7.7842 32.9868 7.97255 33.4397C8.09535 33.7369 8.09117 34.0563 7.96814 34.3455L7.39163 35.7172L4.95804 36.7289L3.57831 36.1695C3.28658 36.0533 3.05914 35.8238 2.93801 35.5326C2.68811 34.9316 2.9669 34.2593 3.56694 34.0082L6.45283 32.8062C6.60209 32.7438 6.75528 32.7147 6.90615 32.7151ZM6.54044 33.6288C6.47473 33.6324 6.4099 33.6469 6.34905 33.6721L4.24814 34.546C3.94918 34.668 3.8062 35.0096 3.92915 35.3082C4.05284 35.6054 4.39406 35.7461 4.69137 35.6226L6.79682 34.7533C7.09401 34.6296 7.23476 34.2884 7.1113 33.9911C7.0176 33.7612 6.78842 33.6158 6.54044 33.6288ZM40.3589 33.8487H41.4823V35.0199C41.4811 35.3439 41.744 35.6068 42.0679 35.6055C42.3901 35.6044 42.6502 35.3421 42.649 35.0199V33.8487H43.8168V37.948C43.818 38.2703 44.0801 38.5303 44.4024 38.529C44.723 38.5279 44.9824 38.2686 44.9835 37.948V33.8487H46.6924L46.1889 40.8761H42.1408H40.858L40.3589 33.8487ZM22.3075 37.3624V37.9776H22.2734C21.9507 37.9782 21.6899 38.2406 21.6912 38.5632C21.6917 38.8845 21.9521 39.1448 22.2734 39.1454H22.3075V39.7048C22.3087 40.027 22.571 40.2871 22.8931 40.2859C23.2135 40.2847 23.4729 40.0252 23.4742 39.7048V37.3624C23.473 37.042 23.2135 36.7826 22.8931 36.7813C22.571 36.7802 22.3088 37.0402 22.3075 37.3624ZM7.52024 36.9317L7.93837 37.9434L6.13825 38.6931L5.72012 37.6768L7.52024 36.9317ZM7.96343 39.1967L10.0233 44.1915L9.86724 44.4672C9.70387 44.752 9.53578 45.0344 9.36366 45.3137L7.00301 39.5953L7.96343 39.1967ZM21.8746 44.3214C22.9044 46.1904 24.0384 47.8676 25.2823 49.4096C25.2463 49.4855 25.2274 49.5683 25.2265 49.6523V53.1659H4.43616L5.83185 51.7281C7.77912 49.7244 9.47543 47.4854 10.8699 45.0574C11.0174 44.8128 11.1572 44.5641 11.2914 44.3168C11.8182 43.3496 12.5954 42.572 13.5097 42.0256C14.4112 41.4954 15.4975 41.2132 16.5847 41.1814C18.7859 41.1814 20.8151 42.3862 21.8746 44.3214ZM34.5587 42.0427H41.5598V44.9708H34.5587V42.0427ZM42.7265 42.0427H49.7242V44.9708H42.7265V42.0427ZM18.1524 43.214C17.9972 43.214 17.8483 43.2759 17.7389 43.386C17.5096 43.614 17.5096 43.9851 17.7389 44.2131L17.8118 44.286C18.0399 44.5153 18.4109 44.5153 18.639 44.286C18.8675 44.0581 18.8675 43.688 18.639 43.46L18.566 43.386C18.4564 43.2759 18.3077 43.214 18.1524 43.214ZM16.5722 45.7296C16.3467 45.957 16.3467 46.3236 16.5722 46.551L16.6451 46.6251C16.8719 46.8556 17.2429 46.8577 17.4723 46.6297C17.7016 46.4016 17.7016 46.0306 17.4723 45.8026L17.3982 45.7296C17.2889 45.6195 17.1399 45.5576 16.9847 45.557C16.8297 45.557 16.6812 45.6193 16.5722 45.7296ZM30.4765 46.1386H37.473V49.0712H30.4765V46.1386ZM38.6408 46.1386H45.642V49.0712H38.6408V46.1386ZM46.8087 46.1386H53.1524V49.0712H46.8087V46.1386ZM24.3389 46.1556H29.3087V49.0711H26.5583C25.7065 48.1214 24.988 47.1282 24.3389 46.1556ZM11.9078 46.8961C11.6776 47.1232 11.676 47.4942 11.9034 47.7233L11.9764 47.7962C12.2043 48.0247 12.5745 48.0247 12.8024 47.7962C13.0286 47.5686 13.0286 47.2011 12.8024 46.9736L12.7294 46.9007C12.6212 46.7917 12.4741 46.7299 12.3204 46.7281C12.1657 46.7263 12.0178 46.7873 11.9078 46.8961ZM20.0722 46.8961C19.8429 47.1242 19.8429 47.4952 20.0722 47.7233L20.1462 47.7962C20.3736 48.0217 20.7403 48.0217 20.9677 47.7962C21.1952 47.5699 21.1973 47.2024 20.9721 46.9736L20.8991 46.9007C20.7896 46.7906 20.6408 46.7287 20.4855 46.7281C20.3307 46.7263 20.1822 46.7873 20.0722 46.8961ZM10.8106 49.2386L10.7365 49.3115C10.5086 49.5408 10.5107 49.9119 10.7409 50.1386C10.9685 50.3649 11.336 50.3649 11.5635 50.1386L11.6365 50.0657C11.8658 49.8377 11.8658 49.4666 11.6365 49.2386C11.5265 49.1304 11.3783 49.0711 11.2235 49.0711C11.0687 49.0699 10.9205 49.1304 10.8106 49.2386ZM22.4066 49.2386C22.1774 49.4666 22.1774 49.8377 22.4066 50.0657L22.4796 50.1386C22.7072 50.3649 23.0747 50.3649 23.3022 50.1386C23.5328 49.9119 23.5349 49.5408 23.3066 49.3115L23.2336 49.2386C23.1234 49.1301 22.9747 49.0711 22.82 49.0711C22.6653 49.0699 22.5169 49.1301 22.4066 49.2386ZM26.3897 50.2332H33.3908V53.1658H30.0971H26.3897V50.2332ZM34.5587 50.2332H41.5598V53.1658H34.5587V50.2332ZM42.7265 50.2332H49.7242V53.1658H42.7265V50.2332ZM14.2423 50.4099C14.0147 50.6361 14.0126 51.0037 14.2379 51.2325L14.3108 51.3054C14.5376 51.536 14.9086 51.5381 15.138 51.31C15.3672 51.082 15.3672 50.7109 15.138 50.4829L15.065 50.41C14.9556 50.2999 14.8067 50.238 14.6515 50.2379C14.4978 50.239 14.3506 50.3009 14.2423 50.4099ZM18.9055 50.4099C18.6793 50.6374 18.6793 51.005 18.9055 51.2325L18.9785 51.3054C19.2052 51.536 19.5763 51.5381 19.8056 51.31C20.0349 51.082 20.0349 50.7109 19.8056 50.4829L19.7327 50.41C19.6233 50.2999 19.4744 50.238 19.3191 50.2379C19.1639 50.2378 19.015 50.2998 18.9055 50.4099Z" fill="black"/>
</svg>
