<svg width="56" height="56" viewBox="0 0 56 56" fill="none" xmlns="http://www.w3.org/2000/svg">
<g clip-path="url(#clip0_365_337)">
<path d="M43.0734 25.1999H37.3707C36.6095 25.1994 35.8663 25.4315 35.2407 25.8652C34.6152 26.299 34.1371 26.9135 33.8707 27.6266L32.536 31.1733C32.3606 31.6444 32.0916 32.075 31.7451 32.4391C31.3986 32.8033 30.9818 33.0934 30.52 33.2919L26.6467 34.9533C25.8702 35.2863 25.229 35.8717 24.8267 36.6146L22.428 41.0666H16.5294C15.7832 41.067 15.0541 41.2902 14.4355 41.7076C13.8169 42.1249 13.3371 42.7175 13.0574 43.4093L9.94002 51.2306C9.76962 51.6548 9.7059 52.1143 9.75443 52.5689C9.80297 53.0235 9.96228 53.4592 10.2184 53.8378C10.4745 54.2165 10.8196 54.5265 11.2235 54.7408C11.6273 54.955 12.0775 55.0669 12.5347 55.0666H5.20802C4.67545 55.0662 4.14913 54.9518 3.66441 54.7311C3.1797 54.5105 2.7478 54.1887 2.39772 53.7873C2.04765 53.386 1.78749 52.9143 1.63473 52.4042C1.48196 51.894 1.44012 51.357 1.51202 50.8293L3.52802 36.0266C3.65889 35.049 4.0488 34.1242 4.65735 33.3479L9.61336 26.9733C10.0431 26.4185 10.3659 25.7887 10.5654 25.1159L14.1494 12.9453C14.3768 12.1731 14.8477 11.4951 15.4919 11.0123C16.1361 10.5296 16.919 10.268 17.724 10.2666H36.3067C37.1355 10.2652 37.9412 10.5395 38.5968 11.0465C39.2525 11.5534 39.7208 12.2641 39.928 13.0666L43.0734 25.1999Z" fill="#9E9E9E"/>
<path d="M31.0707 27.6264L29.7361 31.173C29.5607 31.6441 29.2916 32.0747 28.9451 32.4389C28.5986 32.803 28.1818 33.0932 27.7201 33.2917L23.8467 34.953C23.0703 35.2861 22.429 35.8714 22.0267 36.6144L19.6281 41.0664H22.4281L24.8267 36.6144C25.229 35.8714 25.8703 35.2861 26.6467 34.953L30.5201 33.2917C30.9818 33.0932 31.3986 32.803 31.7451 32.4389C32.0916 32.0747 32.3607 31.6441 32.5361 31.173L33.8707 27.6264C34.1371 26.9133 34.6152 26.2987 35.2407 25.865C35.8663 25.4313 36.6095 25.1991 37.3707 25.1997H34.5707C33.8095 25.1991 33.0663 25.4313 32.4407 25.865C31.8152 26.2987 31.3371 26.9133 31.0707 27.6264Z" fill="#707070"/>
<path d="M10.2574 43.4091L7.14004 51.2304C6.96964 51.6546 6.90592 52.1141 6.95445 52.5687C7.00299 53.0233 7.1623 53.459 7.41843 53.8376C7.67455 54.2163 8.01966 54.5263 8.4235 54.7406C8.82734 54.9548 9.27757 55.0667 9.73471 55.0664H12.5347C12.0776 55.0667 11.6273 54.9548 11.2235 54.7406C10.8197 54.5263 10.4746 54.2163 10.2184 53.8376C9.9623 53.459 9.80299 53.0233 9.75446 52.5687C9.70592 52.1141 9.76964 51.6546 9.94004 51.2304L13.0574 43.4091C13.3371 42.7173 13.817 42.1247 14.4355 41.7074C15.0541 41.29 15.7832 41.0668 16.5294 41.0664H13.7294C12.9832 41.0668 12.2541 41.29 11.6355 41.7074C11.017 42.1247 10.5371 42.7173 10.2574 43.4091Z" fill="#707070"/>
<path d="M39.928 13.0666C39.7208 12.2641 39.2525 11.5534 38.5969 11.0465C37.9412 10.5395 37.1355 10.2652 36.3067 10.2666H33.5067C34.3355 10.2652 35.1412 10.5395 35.7969 11.0465C36.4525 11.5534 36.9208 12.2641 37.128 13.0666L40.2734 25.1999H43.0734L39.928 13.0666Z" fill="#707070"/>
<path d="M53.2 55.0664H39.8254C40.278 55.0676 40.7241 54.959 41.1254 54.7497C41.5267 54.5404 41.8711 54.2368 42.1291 53.8649C42.3871 53.4931 42.5509 53.0641 42.6065 52.615C42.6621 52.1658 42.6077 51.7099 42.448 51.2864L41.86 49.709C41.6217 49.0712 41.2128 48.511 40.6779 48.0896C40.143 47.6683 39.5026 47.402 38.8267 47.3197L35.2987 46.881C34.7663 46.8123 34.2546 46.6312 33.7976 46.3496C33.3406 46.068 32.9488 45.6924 32.648 45.2477L30.9774 42.7277C30.6362 42.2163 30.1739 41.7971 29.6317 41.5072C29.0895 41.2174 28.4842 41.066 27.8694 41.0664H22.428L24.8267 36.6144C25.229 35.8714 25.8703 35.2861 26.6467 34.953L30.52 33.2917C30.9818 33.0932 31.3986 32.803 31.7451 32.4389C32.0916 32.0747 32.3607 31.6441 32.536 31.173L33.8707 27.6264C34.1371 26.9133 34.6152 26.2987 35.2407 25.865C35.8663 25.4313 36.6095 25.1991 37.3707 25.1997H44.7347C45.608 25.1989 46.4539 25.5051 47.1243 26.0646C47.7948 26.6242 48.2473 27.4017 48.4027 28.261L49.5414 34.5424C49.6539 35.1513 49.917 35.7224 50.3067 36.2037L52.7894 39.3117C53.2181 39.8505 53.4923 40.4958 53.5827 41.1784L55.048 52.9664C55.0811 53.2288 55.058 53.4952 54.9803 53.7481C54.9026 54.0009 54.7721 54.2343 54.5973 54.4329C54.4226 54.6314 54.2077 54.7906 53.9668 54.8998C53.7259 55.009 53.4645 55.0658 53.2 55.0664Z" fill="#607D8B"/>
<path d="M55.048 52.9664L53.5827 41.1784C53.4923 40.4958 53.2181 39.8505 52.7894 39.3117L50.3067 36.2037C49.917 35.7224 49.6539 35.1513 49.5414 34.5424L48.4027 28.261C48.2473 27.4017 47.7948 26.6242 47.1243 26.0646C46.4538 25.5051 45.608 25.1989 44.7347 25.1997H41.9347C42.808 25.1989 43.6538 25.5051 44.3243 26.0646C44.9948 26.6242 45.4473 27.4017 45.6027 28.261L46.7414 34.5424C46.8539 35.1513 47.117 35.7224 47.5067 36.2037L49.9894 39.3117C50.4181 39.8505 50.6923 40.4958 50.7827 41.1784L52.248 52.9664C52.2811 53.2288 52.258 53.4952 52.1803 53.7481C52.1026 54.0009 51.9721 54.2343 51.7973 54.4329C51.6226 54.6314 51.4077 54.7906 51.1668 54.8998C50.9259 55.009 50.6645 55.0658 50.4 55.0664H53.2C53.4645 55.0658 53.7259 55.009 53.9668 54.8998C54.2077 54.7906 54.4226 54.6314 54.5973 54.4329C54.7721 54.2343 54.9026 54.0009 54.9803 53.7481C55.058 53.4952 55.0811 53.2288 55.048 52.9664Z" fill="#37474F"/>
<path d="M39.8254 55.0664H12.5347C12.0776 55.0667 11.6273 54.9548 11.2235 54.7406C10.8197 54.5263 10.4745 54.2163 10.2184 53.8376C9.96229 53.459 9.80298 53.0233 9.75444 52.5687C9.70591 52.1141 9.76963 51.6546 9.94003 51.2304L13.0574 43.4091C13.3371 42.7173 13.8169 42.1247 14.4355 41.7074C15.0541 41.29 15.7832 41.0668 16.5294 41.0664H27.8694C28.4842 41.066 29.0895 41.2174 29.6317 41.5073C30.1739 41.7971 30.6362 42.2163 30.9774 42.7277L32.648 45.2477C32.9488 45.6924 33.3406 46.068 33.7976 46.3496C34.2546 46.6312 34.7663 46.8124 35.2987 46.8811L38.8267 47.3197C39.5026 47.402 40.143 47.6683 40.6779 48.0897C41.2128 48.511 41.6217 49.0712 41.86 49.7091L42.448 51.2864C42.6077 51.7099 42.662 52.1658 42.6065 52.615C42.5509 53.0642 42.3871 53.4931 42.1291 53.865C41.8711 54.2368 41.5267 54.5404 41.1254 54.7497C40.7241 54.959 40.278 55.0677 39.8254 55.0664Z" fill="#00BCD4"/>
<path d="M42.448 51.2864L41.86 49.7091C41.6217 49.0712 41.2128 48.511 40.6779 48.0897C40.143 47.6683 39.5026 47.402 38.8267 47.3197L35.2987 46.8811C34.7663 46.8124 34.2546 46.6312 33.7976 46.3496C33.3406 46.068 32.9487 45.6924 32.648 45.2477L30.9773 42.7277C30.6361 42.2163 30.1739 41.7971 29.6317 41.5073C29.0895 41.2174 28.4841 41.066 27.8693 41.0664H25.0693C25.6841 41.066 26.2895 41.2174 26.8317 41.5073C27.3739 41.7971 27.8361 42.2163 28.1773 42.7277L29.848 45.2477C30.1487 45.6924 30.5406 46.068 30.9976 46.3496C31.4546 46.6312 31.9663 46.8124 32.4987 46.8811L36.0267 47.3197C36.7026 47.402 37.343 47.6683 37.8779 48.0897C38.4128 48.511 38.8217 49.0712 39.06 49.7091L39.648 51.2864C39.8076 51.7099 39.862 52.1658 39.8065 52.615C39.7509 53.0642 39.5871 53.4931 39.3291 53.865C39.0711 54.2368 38.7266 54.5404 38.3253 54.7497C37.924 54.959 37.4779 55.0677 37.0253 55.0664H39.8253C40.2779 55.0677 40.724 54.959 41.1253 54.7497C41.5266 54.5404 41.8711 54.2368 42.1291 53.865C42.3871 53.4931 42.5509 53.0642 42.6065 52.615C42.662 52.1658 42.6076 51.7099 42.448 51.2864Z" fill="#00838F"/>
<path d="M54.5067 41.051C54.3936 40.2031 54.0519 39.402 53.5183 38.7335L51.0338 35.6218C50.7426 35.2615 50.5454 34.8347 50.4598 34.3795L49.322 28.0935C49.1281 27.0187 48.5623 26.0463 47.7236 25.3467C46.8849 24.6471 45.8269 24.2648 44.7347 24.2668H43.7958L40.8315 12.8316C40.5711 11.8298 39.9855 10.9428 39.1666 10.3097C38.3477 9.67663 37.3418 9.33327 36.3067 9.3335H17.724C16.7182 9.33824 15.7405 9.66635 14.9355 10.2694C14.1305 10.8724 13.5407 11.7184 13.2534 12.6823L9.66935 24.8548C9.50283 25.4148 9.23418 25.9391 8.87695 26.4014L3.92002 32.7723C3.20863 33.6786 2.75294 34.7589 2.60029 35.9008L0.58802 50.7016C0.497857 51.3614 0.549936 52.0328 0.740759 52.6708C0.931582 53.3088 1.25673 53.8985 1.69436 54.4004C2.13198 54.9023 2.67196 55.3048 3.278 55.5807C3.88404 55.8566 4.54212 55.9996 5.20802 56.0002H53.2C53.5968 55.9997 53.989 55.9149 54.3505 55.7513C54.7121 55.5878 55.0347 55.3493 55.2971 55.0516C55.5595 54.7539 55.7556 54.4039 55.8724 54.0247C55.9893 53.6455 56.0242 53.2458 55.9748 52.852L54.5067 41.051ZM3.09962 53.174C2.83734 52.8729 2.64252 52.5191 2.52823 52.1365C2.41393 51.7538 2.38281 51.3512 2.43695 50.9555L4.45295 36.1491C4.56208 35.3358 4.88692 34.5666 5.39375 33.9212L10.3544 27.5419C10.8543 26.8961 11.2294 26.1627 11.4604 25.3794L15.0444 13.2087C15.2166 12.6308 15.57 12.1236 16.0525 11.7619C16.535 11.4002 17.121 11.2033 17.724 11.2002H36.3067C36.9284 11.2 37.5326 11.4062 38.0245 11.7864C38.5163 12.1667 38.8681 12.6994 39.0246 13.3011L41.8675 24.2668H37.3707C36.4208 24.2706 35.4943 24.5623 34.7135 25.1033C33.9328 25.6443 33.3343 26.4093 32.9971 27.2974L31.6615 30.844C31.5298 31.1965 31.3282 31.5188 31.0688 31.7914C30.8095 32.0641 30.4977 32.2815 30.1523 32.4307L26.2752 34.093C25.307 34.5108 24.5073 35.2418 24.0044 36.1687L21.8699 40.1335H16.5275C15.5939 40.1303 14.681 40.4086 13.908 40.932C13.1349 41.4555 12.5376 42.1998 12.194 43.0679L9.06922 50.8808C8.86015 51.4058 8.77319 51.9714 8.8149 52.5349C8.85662 53.0984 9.02593 53.6451 9.31002 54.1335H5.20802C4.80848 54.1333 4.41361 54.0475 4.04995 53.882C3.68629 53.7165 3.36225 53.4751 3.09962 53.174ZM35.7187 54.1335H12.5356C12.2305 54.1335 11.9301 54.0588 11.6606 53.9158C11.3911 53.7728 11.1608 53.5659 10.9897 53.3133C10.8187 53.0607 10.7122 52.77 10.6796 52.4666C10.6469 52.1633 10.6891 51.8566 10.8024 51.5734L13.9282 43.7604C14.1343 43.2398 14.4926 42.7933 14.9563 42.4793C15.42 42.1653 15.9675 41.9984 16.5275 42.0002H27.8684C28.3301 41.9989 28.7849 42.1122 29.1921 42.3298C29.5993 42.5474 29.9462 42.8626 30.2018 43.2471L31.8818 45.7671C32.2534 46.325 32.7409 46.7962 33.3111 47.1488C33.8812 47.5013 34.5206 47.7269 35.1858 47.8102L38.7175 48.2507C39.2247 48.3132 39.7049 48.5137 40.106 48.8303C40.5071 49.1469 40.8136 49.5676 40.992 50.0464L41.581 51.6154C41.6863 51.8981 41.7215 52.2022 41.6835 52.5015C41.6456 52.8008 41.5357 53.0865 41.3632 53.334C41.1907 53.5816 40.9608 53.7836 40.6931 53.9229C40.4254 54.0621 40.128 54.1344 39.8263 54.1335H35.7187ZM53.8963 53.8199C53.8097 53.9193 53.7026 53.9987 53.5824 54.0528C53.4623 54.107 53.3318 54.1345 53.2 54.1335H43.0528C43.3297 53.6566 43.4975 53.1242 43.5441 52.5748C43.5908 52.0253 43.5151 51.4723 43.3226 50.9555L42.7336 49.3856C42.435 48.5889 41.9237 47.8892 41.2553 47.3627C40.5869 46.8361 39.787 46.5028 38.9424 46.399L35.4107 45.9575C35.0116 45.9076 34.628 45.7723 34.2859 45.5608C33.9438 45.3494 33.6513 45.0667 33.4283 44.732L31.7483 42.2167C31.3236 41.5764 30.7471 41.051 30.0701 40.6876C29.3932 40.3241 28.6368 40.1337 27.8684 40.1335H23.9914L25.648 37.0535C25.9513 36.4971 26.4324 36.0583 27.0144 35.8075L30.8887 34.1462C31.4651 33.897 31.9853 33.5342 32.4183 33.0794C32.8513 32.6246 33.1881 32.0872 33.4087 31.4992L34.7443 27.9526C34.9423 27.4164 35.3006 26.9541 35.7705 26.6287C36.2404 26.3032 36.7991 26.1303 37.3707 26.1335H44.7347C45.3896 26.132 46.0242 26.3612 46.527 26.7809C47.0298 27.2006 47.3687 27.7839 47.4843 28.4286L48.6267 34.7118C48.7677 35.4718 49.0955 36.1848 49.5806 36.7866L52.0651 39.8983C52.3869 40.3022 52.5924 40.7863 52.6596 41.2983L54.125 53.0872C54.141 53.2186 54.1288 53.3518 54.0894 53.4782C54.05 53.6045 53.9842 53.721 53.8963 53.8199Z" fill="black"/>
<path d="M16.8 31.7337C17.0475 31.7337 17.2849 31.6353 17.4599 31.4602L20.3728 28.5473C20.7237 28.1985 21.1978 28.002 21.6926 28.0004H25.9075C26.8971 27.9977 27.8456 27.6046 28.547 26.9065L32.3932 23.0602C32.5632 22.8842 32.6573 22.6485 32.6552 22.4037C32.6531 22.159 32.5549 21.9249 32.3818 21.7519C32.2088 21.5788 31.9747 21.4807 31.73 21.4786C31.4853 21.4764 31.2495 21.5705 31.0735 21.7405L27.2272 25.5868C26.8764 25.9356 26.4022 26.1321 25.9075 26.1337H21.6926C20.703 26.1364 19.7544 26.5295 19.0531 27.2276L16.1401 30.1405C16.0097 30.271 15.9208 30.4373 15.8848 30.6184C15.8488 30.7994 15.8673 30.987 15.9379 31.1575C16.0085 31.328 16.1281 31.4738 16.2816 31.5764C16.435 31.6789 16.6154 31.7337 16.8 31.7337Z" fill="black"/>
<path d="M45.7334 41.0669H41.314C40.8307 41.0654 40.3559 40.9395 39.9353 40.7013C39.5147 40.4631 39.1625 40.1207 38.9126 39.707L37.1999 36.8529C37.138 36.7454 37.0552 36.6515 36.9566 36.5764C36.8579 36.5013 36.7453 36.4466 36.6253 36.4155C36.5052 36.3845 36.3802 36.3776 36.2575 36.3954C36.1348 36.4132 36.0169 36.4552 35.9106 36.5191C35.8043 36.5829 35.7118 36.6673 35.6385 36.7673C35.5653 36.8673 35.5126 36.9809 35.4837 37.1015C35.4548 37.2221 35.4502 37.3472 35.4702 37.4696C35.4902 37.5919 35.5344 37.7091 35.6002 37.8142L37.3128 40.6674C37.729 41.3569 38.3158 41.9277 39.0166 42.3246C39.7174 42.7215 40.5086 42.9312 41.314 42.9335H45.7334C45.9809 42.9335 46.2183 42.8352 46.3933 42.6602C46.5684 42.4851 46.6667 42.2477 46.6667 42.0002C46.6667 41.7527 46.5684 41.5153 46.3933 41.3402C46.2183 41.1652 45.9809 41.0669 45.7334 41.0669Z" fill="black"/>
<path d="M42.098 36.8172C42.2087 37.0387 42.4028 37.2073 42.6377 37.2857C42.8726 37.3641 43.129 37.346 43.3505 37.2353C43.5721 37.1247 43.7406 36.9306 43.819 36.6957C43.8974 36.4608 43.8793 36.2043 43.7687 35.9828L42.8353 34.1161C42.7247 33.8946 42.5306 33.7261 42.2957 33.6477C42.0608 33.5692 41.8044 33.5874 41.5828 33.698C41.3613 33.8086 41.1927 34.0028 41.1143 34.2377C41.0359 34.4726 41.054 34.729 41.1647 34.9505L42.098 36.8172Z" fill="black"/>
<path d="M19.6 20.5335C19.7538 20.5337 19.9052 20.4958 20.0409 20.4234C20.1765 20.3509 20.2921 20.2461 20.3775 20.1181L22.2442 17.3181C22.3122 17.2162 22.3595 17.1018 22.3833 16.9816C22.4071 16.8613 22.407 16.7375 22.383 16.6173C22.359 16.4971 22.3115 16.3828 22.2434 16.281C22.1752 16.1791 22.0876 16.0916 21.9856 16.0236C21.8836 15.9556 21.7693 15.9083 21.649 15.8845C21.5288 15.8607 21.405 15.8608 21.2848 15.8848C21.1646 15.9088 21.0503 15.9562 20.9484 16.0244C20.8466 16.0926 20.7591 16.1802 20.6911 16.2821L18.8244 19.0821C18.7307 19.2226 18.6768 19.3859 18.6686 19.5546C18.6604 19.7233 18.698 19.8911 18.7777 20.0401C18.8573 20.189 18.9758 20.3136 19.1206 20.4005C19.2654 20.4874 19.4311 20.5333 19.6 20.5335Z" fill="black"/>
<path d="M29.3123 49C29.1495 48.3431 28.8105 47.743 28.3319 47.2644C27.8533 46.7858 27.2532 46.4469 26.5963 46.284L24.4925 45.7576C24.2547 45.7041 24.0054 45.7458 23.7978 45.8737C23.5903 46.0017 23.4411 46.2057 23.3821 46.4423C23.3231 46.6788 23.3589 46.9291 23.482 47.1395C23.6051 47.3499 23.8057 47.5038 24.0408 47.5683L26.1445 48.0938C26.4727 48.1758 26.7724 48.3455 27.0116 48.5847C27.2508 48.8239 27.4205 49.1236 27.5025 49.4518L28.028 51.5555C28.0777 51.7582 28.1939 51.9384 28.358 52.0673C28.5221 52.1962 28.7247 52.2664 28.9333 52.2667C29.0098 52.2665 29.0859 52.2571 29.1601 52.2387C29.4002 52.1787 29.6067 52.0259 29.7341 51.8138C29.8615 51.6016 29.8994 51.3476 29.8396 51.1075L29.3123 49Z" fill="black"/>
<path d="M18.6667 45.7334H16.8C16.5525 45.7334 16.3151 45.8317 16.1401 46.0068C15.965 46.1818 15.8667 46.4192 15.8667 46.6667C15.8667 46.9143 15.965 47.1517 16.1401 47.3267C16.3151 47.5017 16.5525 47.6001 16.8 47.6001H18.6667C18.9142 47.6001 19.1516 47.5017 19.3267 47.3267C19.5017 47.1517 19.6 46.9143 19.6 46.6667C19.6 46.4192 19.5017 46.1818 19.3267 46.0068C19.1516 45.8317 18.9142 45.7334 18.6667 45.7334Z" fill="black"/>
</g>
<defs>
<clipPath id="clip0_365_337">
<rect width="56" height="56" fill="white"/>
</clipPath>
</defs>
</svg>
