<svg width="32" height="32" viewBox="0 0 32 32" fill="none" xmlns="http://www.w3.org/2000/svg">
<path d="M12.9932 0.446311L15.5713 3.08303C15.7471 3.25881 16.04 3.25881 16.2158 3.08303L18.7354 0.446311C19.0869 0.0947487 19.6143 -0.0810325 20.1416 0.036155C20.6104 0.211936 21.0205 0.563499 21.1377 1.09084L22.0166 4.60647C22.0752 4.84084 22.3682 5.01662 22.6025 4.95803L26.1182 3.96194C26.5869 3.84475 27.1143 3.96194 27.4658 4.3135C27.8174 4.66506 27.9932 5.1924 27.8174 5.71975L26.8799 9.17678C26.7627 9.46975 26.9385 9.70412 27.1729 9.76272L30.6885 10.7002C31.2158 10.8174 31.5674 11.169 31.7432 11.6963C31.8604 12.1651 31.7432 12.6924 31.333 13.044L28.7549 15.5635C28.5791 15.7979 28.5791 16.0908 28.7549 16.2666L31.333 18.7862C31.7432 19.1377 31.8604 19.6651 31.7432 20.1924C31.5674 20.6612 31.2158 21.0713 30.6885 21.1885L27.1729 22.0674C26.9385 22.126 26.7627 22.419 26.8799 22.6533L27.8174 26.169C27.9932 26.6377 27.8174 27.1651 27.4658 27.5166C27.1143 27.8682 26.5869 28.044 26.1182 27.8682L22.6025 26.8721C22.3682 26.8135 22.0752 26.9893 22.0166 27.2237L21.1377 30.7393C21.0205 31.2666 20.6104 31.6182 20.1416 31.7354C19.6143 31.9112 19.0869 31.7354 18.7354 31.3838L16.2158 28.8057C16.04 28.5713 15.7471 28.5713 15.5713 28.8057L12.9932 31.3838C12.6416 31.7354 12.1143 31.9112 11.6455 31.7354C11.1768 31.6182 10.7666 31.2666 10.6494 30.7393L9.77051 27.2237C9.65332 26.9893 9.41895 26.8135 9.18457 26.8721L5.66895 27.8682C5.1416 28.044 4.61426 27.8682 4.2627 27.5166C3.91113 27.1651 3.79395 26.6377 3.91113 26.169L4.90723 22.6533C4.96582 22.419 4.84863 22.126 4.55566 22.0674L1.04004 21.1885C0.571289 21.0127 0.161133 20.6612 0.0439453 20.1924C-0.0732422 19.6651 0.0439453 19.1377 0.395508 18.7862L3.03223 16.2666C3.20801 16.0908 3.20801 15.7393 3.03223 15.5635L0.395508 13.044C0.0439453 12.6924 -0.0732422 12.1651 0.0439453 11.6963C0.161133 11.169 0.571289 10.8174 1.04004 10.7002L4.55566 9.76272C4.84863 9.70412 4.96582 9.46975 4.90723 9.17678L3.91113 5.71975C3.79395 5.1924 3.91113 4.66506 4.2627 4.3135C4.61426 3.96194 5.1416 3.84475 5.66895 3.96194L9.18457 4.95803C9.41895 5.01662 9.65332 4.84084 9.77051 4.60647L10.6494 1.09084C10.7666 0.563499 11.1182 0.211936 11.6455 0.0947487C12.1143 -0.0810325 12.6416 0.0947487 12.9932 0.446311Z" fill="black"/>
</svg>
